<svg xmlns="http://www.w3.org/2000/svg" width="1366" height="768" version="1.0" viewBox="0 0 1024.5 576"><defs><clipPath id="a"><path d="M0 355.594h57.703v220.265H0Zm0 0"/></clipPath><clipPath id="b"><path d="M13.41 510.195h56.25v11.25H13.41Zm0 0"/></clipPath></defs><g clip-path="url(#a)"><path fill="#587d9f" d="M56.816 360.164c-.25.031-.488.102-.714.215a4.555 4.555 0 0 0-.7.422c-.195.172-.355.383-.543.562-3.289 3.11-6.277 6.41-6.953 11.145a3.002 3.002 0 0 1-.27.644 4.91 4.91 0 0 1-.366-.656c-1.442-3.441-2.704-6.969-4.407-10.308-.425-.852-1.011-1.614-1.422-2.481a4.782 4.782 0 0 1-.418-1.328c-.086-.484.063-.977 0-1.469a2.604 2.604 0 0 0-.562-1.133.493.493 0 0 0-.395-.203.493.493 0 0 0-.394.203c-.106.145-.2.301-.281.426-.258.438-.418.91-.48 1.41-.11.528-.196 1.055-.321 1.575-.23.976-.547 1.921-.95 2.84a9.97 9.97 0 0 1-3.898 4.527c-.308.187-.597.41-.851.613v-2.117c.058-1.403.125-2.797.175-4.2 0-.695.051-1.39.07-2.09a5.949 5.949 0 0 0-.05-1.784 1.49 1.49 0 0 0-.613-.868h-.07a.17.17 0 0 0-.067.063 7.042 7.042 0 0 0-.734 3.16 22.993 22.993 0 0 1-.665 3.637 47.396 47.396 0 0 1-8.832 15.785 19.977 19.977 0 0 0-3.761 7.066 20.036 20.036 0 0 0-.703 7.969c.207 1.738.66 3.414 1.355 5.02a18.16 18.16 0 0 0 2.734 4.43c.961 1.218 1.395 2.269.313 3.843a12.212 12.212 0 0 0-1.785 4.41 12.21 12.21 0 0 0 .023 4.762 72.146 72.146 0 0 0 1.977 10.258c.59 1.863.781 3.77.57 5.715a13.806 13.806 0 0 1-1.781 5.46c-.172.387-.313.79-.418 1.2-1.234 3.851-2.555 7.648-3.66 11.558-1.551 5.524-3.094 11.051-4.313 16.668a18.455 18.455 0 0 1-2 5.2 18.507 18.507 0 0 1-3.441 4.378 7.66 7.66 0 0 0-.793 1.122c.484-.098.973-.16 1.465-.176.527 0 1.457.125 1.5.34 1.406 6.875 1.32 13.8.62 20.746-.476 4.851-1.046 9.707-1.523 14.558-.48 4.856-.8 9.93-1.398 14.852-.547 4.62-1.363 9.21-2.012 13.816-.383 2.723-.52 5.477-1.004 8.168-.562 3.121-1.379 6.188-2.086 9.281-.171.598-.343 1.207-.511 1.813a14.02 14.02 0 0 0-.852 1.937c-.453 1.7-.75 3.45-1.226 5.102-1.09 3.867-2.258 7.7-3.41 11.55-.34.602-.688 1.208-1.04 1.81-.16.484-.355.96-.5 1.452-.418 1.481-.258 2.43 1.703 2.61 1.594.144 2.051-.406 2.418-1.844.801-3.129 1.805-6.203 2.805-9.273 1.652-5.098 3.832-10.106 4.922-15.297 1.414-6.801 1.984-13.79 2.906-20.692 1.137-8.34 2.235-16.675 3.297-25.004.484-3.78 1.524-4.25 4.59-2.003.191.18.402.328.64.441.254.074.657.117.801 0a.818.818 0 0 0 .094-.8c-.246-.442-.648-.798-.937-1.223-1.704-2.551-3.7-4.88-3.325-8.364.606-5.636.938-11.304 1.305-17 .324-5.015.281-10.07.852-15.062.484-4.043 1.644-8.024 2.554-12.016.477-2.066 1.621-2.55 3.477-1.523.238.136.613 0 .922 0a3.771 3.771 0 0 0-.137-.934c-.34-.851-1.082-1.613-1.066-2.406.078-2.879 0-5.856.742-8.602.851-3.21 2.426-6.246 3.789-9.347a33.134 33.134 0 0 1 2.922-5.703c2.265-3.215 5.242-6 7.133-9.403 2.144-3.867 3.543-8.191 1.328-12.695a.303.303 0 0 1 .101-.3c2.207-.849 4.48-1.571 6.602-2.548 3.75-1.804 6.816-4.574 8.137-8.5a16.5 16.5 0 0 0 .832-6.101 16.536 16.536 0 0 0-1.438-5.985 15.04 15.04 0 0 1-1.328-5.98 15.042 15.042 0 0 1 1.148-6.012c.727-1.703 1.067-3.86 1.953-5.476.672-1.157 1.454-1.606 2.11-2.778.402-.75 1.21-1.597 1.254-2.465 0-.254-.102-.289-.172-.39a.544.544 0 0 0-.563-.223Zm-15.597 2.774a.9.9 0 0 1 .23-.434.291.291 0 0 1 .211-.117.303.303 0 0 1 .235.066.842.842 0 0 1 .261.313c1.637 4.546 4.16 9.007 4.61 13.668.41 4.25-1.438 8.644-2.309 12.976 0 .102-.281.164-.434.246v.094-.102c-.308-3.832-.433-7.648-.953-11.492-.41-3.015-1.476-5.93-1.91-8.965-.16-2.086-.14-4.171.059-6.253Zm-1.977-2.399c.461 4.82.856 9.664 1.426 14.45.426 3.304 1.496 6.542 1.77 9.859.41 5.097-.715 10.02-3.997 14.074-1.14 1.41-3.168 2.11-4.793 3.129l-.359.297-.05-.086a24.663 24.663 0 0 0 2.554-4.004c.734-1.61 1.3-3.274 1.703-4.996.207-.852.367-1.7.504-2.61.078-.449.172-.902.215-1.359a2.351 2.351 0 0 0-.113-1.09.096.096 0 0 0-.043-.066c-.125-.078-.375.543-.418.636-.11.239-.211.485-.305.73-.18.485-.332.977-.504 1.466l-1.047 2.957c-.48 1.176-.82 2.39-1.012 3.644-.148-.086-.113-.304-.054-.476.43-1.707.742-3.442.937-5.192.387-1.37.551-2.77.496-4.191-.273.144-.316.39-.418.664-.547 1.563-.996 3.145-1.5 4.715-.636 1.965-1.27 3.93-1.933 5.875a10.79 10.79 0 0 1-1.242 2.066c-.086-.215-.301-.476-.239-.629a32.415 32.415 0 0 0 2.86-14.168c-.075-2.34.043-4.695-.102-7.023-.289-4.742 2.41-8.5 3.895-12.746a28.573 28.573 0 0 0 1.77-5.926Zm-6.09 7.649c.399-.454.832-.872 1.297-1.258.457-.383 1.125-.653 1.524-1.07-1.235 3.296-2.88 6.503-3.578 9.902-.586 2.87-.067 5.949-.043 8.984 0 1.094.078 2.192.093 3.29a1.064 1.064 0 0 1-.16.519c-.394-.207-.676-1.524-.851-1.957-.29-.723-.57-1.438-.852-2.16a13.883 13.883 0 0 1-1.187-4.454c.07-1.464.285-2.91.64-4.332a18.417 18.417 0 0 1 1.313-4.59 11.393 11.393 0 0 1 1.804-2.882Zm-10.816 31.601a17.272 17.272 0 0 1-.691-2.047 19.032 19.032 0 0 1-.641-5.37 21.4 21.4 0 0 1 .258-2.747c.066-.469.152-.926.254-1.395.093-.39.156-.789.187-1.19 0-.392-.664-.083-.723.136-.433 1.699-1.234 3.398-1.109 5.101.375 3.04.902 6.047 1.586 9.036a16.777 16.777 0 0 1-2.242-4.926 16.765 16.765 0 0 1-.563-5.38c.274-6.577 4.34-11.25 7.95-16.257 1.96-2.727 3.043-6.086 4.507-9.164.282-.578.485-1.188.723-1.785-.305 1.496-.543 3.02-.937 4.496-.918 3.504-2 6.965-2.82 10.48a4.766 4.766 0 0 0 .445 3.094c3.406 6.692 3.406 13.234-.57 19.676-.7 1.133-1.528 2.187-2.286 3.281.25-1.281.469-2.547.758-3.848.52-2.34 1.117-4.66 1.601-7.003a1.761 1.761 0 0 0-.117-.852c0-.117-.187-.672-.36-.383a6.955 6.955 0 0 0-.687 1.7c-.418 1.335-.742 2.695-1.261 3.995-.11.313-.18.633-.215.961 0 .168-.176.297-.281.442a1.825 1.825 0 0 1-.125-.477c0-1.351-.145-2.71-.223-4.07a30.076 30.076 0 0 1 .11-5.531c.124-.93.335-1.836.632-2.723.152-.453.332-.898.535-1.332a4.39 4.39 0 0 0 .453-1.105c.059-.34-.57 0-.656.125-.648 1.234-1.652 2.449-1.773 3.742-.356 3.941-.356 7.914-.52 11.898a10.009 10.009 0 0 1-.348 1.7l-.085-.06a5.6 5.6 0 0 0-.332-1.148c-.153-.382-.301-.722-.434-1.07Zm9.98 24.469c-1.703 1.887-3.593 3.64-4.972 5.73a25.699 25.699 0 0 0-2.367 5.77c-2.633 7.652-5.418 15.172-7.727 22.875a36.933 36.933 0 0 0-1.133 5.36c-.238 1.702-.633 3.331-.734 5.05-.094 1.555-.067 3.117-.117 4.684-.094 3.398-.547 6.8-.856 10.156l-.508 5.812c-.265 3.051-.257 6.121-.683 9.172-.332 2.43-.852 4.828-1.184 7.258-.598 4.25-1.14 8.586-1.703 12.887l-.05.433a863.373 863.373 0 0 0-.65 5.559c-.655 5.77-1.105 11.582-1.976 17.328-.117.758-.238 1.523-.347 2.29a14.89 14.89 0 0 0-.344 2.198c-.781 5.168-1.422 10.364-2.707 15.438a77.631 77.631 0 0 1-2.43 7.836 53.214 53.214 0 0 1-.96 2.472c-.18.45-.368.848-.555 1.344-.274.63-.543 1.25-.852 1.867a9.841 9.841 0 0 0-.852 1.785c2.137-10.097 6.032-19.792 7.489-30.011.418-2.942.64-5.906.851-8.864.215-2.957.442-5.753.852-8.601.41-2.848 1.015-5.566 1.328-8.39.512-4.59.726-9.204 1.144-13.801.485-5.34 1.098-10.668 1.559-16.016.195-2.3.066-4.629.211-6.942.117-3.34.402-6.667.852-9.98 1.101-6.637 2.09-13.336 3.816-19.828 1.832-6.918 4.574-13.598 6.672-20.45.543-1.769.273-3.831.117-5.745-.469-5.95-3.047-11.688-1.992-17.797a7.31 7.31 0 0 1 1.601-3.825c.606-.62 2.164-.417 3.297-.402 2.844.05 5.7.352 8.52.274 2-.051 3.066.52 3.015 2.617a21.712 21.712 0 0 1-1.488 7.742 21.763 21.763 0 0 1-4.137 6.715Zm19.594-57.063a18.62 18.62 0 0 0-.426 1.13c-.27.835-.484 1.687-.644 2.55a30.997 30.997 0 0 0-.504 7.36c.039 1.14.144 2.273.316 3.398a30.914 30.914 0 0 0 1.004 3.98c.094.297.18.602.254.899.172.777.29 1.558.36 2.347.34 3.246.289 6.434-2.13 8.914a3.87 3.87 0 0 0-.503.461.94.94 0 0 0 .11-.382 6.752 6.752 0 0 0 .374-1.563c-.18.066-.344.172-.484.305-.196.144-.383.297-.586.441a3.408 3.408 0 0 0-.856.852c-3.023 4.086-6.855 6.875-11.976 7.648a5.684 5.684 0 0 1-1.032 0c.297-.152.583-.324.852-.512l.18-.125a1787.79 1787.79 0 0 1 8.101-6.12 10.355 10.355 0 0 0 2.344-2.16c.305-.442.555-.927.852-1.34a.986.986 0 0 0 .332-.708 442.7 442.7 0 0 1-9.977 6.989 14.734 14.734 0 0 0 3.223-3.598 14.68 14.68 0 0 0 1.89-4.438 2.4 2.4 0 0 1 .305-.789c.234-.257.496-.48.785-.671a5.03 5.03 0 0 0 1.442-2.125c.707-1.7 1.445-3.399 2.058-5.176a32.844 32.844 0 0 0 1.594-7.301c.203-1.965-.059-4.027.469-5.95a13.863 13.863 0 0 1 1.203-2.89c.465-.848 1.097-1.633 1.558-2.488.043.289-.343.797-.453 1.062Zm0 0"/></g><g clip-path="url(#b)"><path d="M69.543 515.613c-.012-.011-.027-.02-.043-.031a45.094 45.094 0 0 1-6.86-5.102c-.296-.27-1.292.141-.976.43a46.215 46.215 0 0 0 6.063 4.63 646.511 646.511 0 0 0-23.512-.509c-5.606-.316-11.211-.574-16.824-.64-3.875-.047-7.746 0-11.618.164-.308.011-1.144.496-.445.468 6.375-.27 12.746-.191 19.113.051a608.87 608.87 0 0 0-8.02.145c-3.96.093-7.913.226-11.87.398-.309.012-1.145.496-.446.469 9.747-.418 19.5-.613 29.254-.586 4.149.23 8.297.496 12.446.746 3.097.184 6.195.356 9.293.5-.832.348-1.641.758-2.434 1.23-1.668.997-3.238 2.145-5.105 2.747-.313.097-.434.297-.395.445.04.148.234.246.55.144a54.743 54.743 0 0 0 11.704-5.277.45.45 0 0 0 .16-.16c.07-.086.074-.176-.035-.262Zm-15.633.004 1.844.035c3.805.086 7.61.207 11.414.356-.305.09-.61.187-.91.293a768.85 768.85 0 0 1-12.348-.684Zm8.746 3.14c1.278-.8 2.594-1.46 3.989-1.944l.097.003a52.605 52.605 0 0 1-4.355 2.11c.09-.055.18-.114.27-.168Zm0 0"/></g><path fill="#8b93db" d="M78.9 520.79h2.081c.055 0 .055-.41 0-.41-1.36 0-1.699-.21-1.699-1.703v-6.02l3.984 5.587c.055.066.078.066.133.027.2-.32.422-.621.633-.926l3.246-4.449v6.219c0 1.254-.184 1.281-1.277 1.281-.055 0-.043.406.011.406.872-.012 1.043-.012 1.387-.012l.922-.011h1.387c.054 0 .054-.41 0-.41-1.082.011-1.282-.016-1.282-1.27v-5.871c0-1.254.2-1.281 1.282-1.27.054 0 .054-.406 0-.406h-2.07l-3.91 5.41-3.84-5.41h-2.442c-.055 0-.055.422 0 .422 1.133 0 1.348.024 1.348 1.332 0 1.598 0 3.934.011 5.582 0 1.336-.304 1.531-1.464 1.531-.055 0-.055.371 0 .371Zm19.37-6.968h-2.757c-.055 0-.055.383 0 .383.976.011 1.172.527.683 1.687l-1.53 3.617-1.544-3.707c-.566-1.36-.46-1.597.672-1.597.055 0 .055-.383 0-.383h-3.297c-.043 0-.043.383 0 .383.633 0 .961.238 1.531 1.597l2.004 4.75-.011.028c-.25 1.57-1.215 2.468-1.914 2.468-.172-.226-.543-.82-1.188-.82-.36 0-.527.238-.527.504 0 .433.683.789 1.398.789 1.387 0 2.086-1.16 2.719-2.613h.012l2.14-5.016c.489-1.16 1.055-1.676 1.61-1.687.027 0 .027-.383 0-.383Zm6.017-1.293c.449 0 .722-.293.722-.676 0-.395-.316-.672-.722-.672-.422 0-.715.305-.715.672 0 .398.316.676.715.676Zm.422 1.133a91.89 91.89 0 0 1-1.758.304c-.051.028-.04.328 0 .344.676.211.847.29.847 1.438v4.41c0 .832.024 1.199.024 2.004 0 .78-.25 1.652-1.172 1.652-.266.012-.398-.066-.516-.106-.054-.78-.316-1.082-.754-1.082-.304 0-.527.211-.527.5 0 .543.844 1.082 1.781 1.082 1.098 0 2.192-.75 2.192-3.062v-7.39c0-.055-.051-.094-.117-.094Zm5.555 7.273c2.125 0 3.63-1.504 3.63-3.629s-1.505-3.644-3.63-3.644c-2.113 0-3.605 1.52-3.605 3.644 0 2.125 1.492 3.629 3.605 3.629Zm0-.395c-1.453 0-2.43-1.269-2.43-3.234 0-1.969.977-3.234 2.43-3.234 1.465 0 2.442 1.265 2.442 3.222 0 1.965-.977 3.246-2.442 3.246Zm11.351-1.625v-5.16c0-.039-.082-.093-.122-.093-.832.144-1.253.226-1.753.304-.055.012-.082.305 0 .344.843.238.832.488.832 1.387v3.457c-.57.476-1.414 1.043-2.297 1.043-.977 0-1.598-.528-1.598-2.219v-4.223c.012-.039-.066-.093-.121-.093-.566.12-1.172.21-1.742.304-.078.012-.09.317-.012.344.844.238.844.488.844 1.387v2.48c0 1.953.672 2.758 2.047 2.758 1.109 0 2.03-.633 2.902-1.32h.082l-.082 1.164c-.012.066.121.156.188.144.949-.16 1.16-.21 1.66-.304.054 0 .054-.317 0-.329-.844-.238-.828-.488-.828-1.375Zm3.11 1.875h2.336c.067 0 .067-.394 0-.394-1.32 0-1.36-.16-1.36-1.059v-3.312c.395-1.149 1.255-1.465 1.372-1.477h.027c.317.223.727.383 1.11.383.394 0 .832-.226.832-.594 0-.37-.344-.675-.965-.675-.777 0-2.059.765-2.414 1.757h-.078c.078-1.27.062-1.02.09-1.597 0-.078-.106-.16-.223-.133-1.188.2-1.11.184-1.703.277-.028.012-.055.328 0 .344.922.238.91.5.91 1.387v3.64c0 .899-.027 1.059-1.031 1.059-.051 0-.051.394 0 .394Zm6.044 0h1.953c.055 0 .055-.394 0-.394-.95 0-.977-.16-.977-1.059v-3.879c.594-.503 1.426-1.043 2.297-1.043.977 0 1.598.528 1.598 2.22v2.702c0 .899-.04 1.059-.992 1.059-.051 0-.051.394 0 .394h3.05c.051 0 .051-.394 0-.394-.988 0-1.03-.16-1.03-1.059v-2.902c0-1.953-.673-2.773-2.044-2.773-1.136 0-2.035.648-2.906 1.32h-.078l.078-1.16c0-.078-.09-.16-.2-.133-1.093.2-1.081.184-1.648.277-.05.012-.05.328 0 .344.844.238.832.488.832 1.387v3.64c0 .899-.027 1.059-1.03 1.059-.052 0-.052.394 0 .394Zm14.344-2.363c-.5.715-1.16 1.758-2.586 1.758-1.863 0-2.68-1.637-2.68-2.957v-.254h5.133c.043-.184.066-.488.066-.7 0-1.37-1.093-2.612-2.718-2.612-2.125 0-3.618 1.57-3.618 3.722 0 2.008 1.403 3.54 3.395 3.54 1.676 0 2.64-1.243 3.219-2.352.015-.04-.184-.196-.211-.145Zm-2.836-4.355c1.094 0 1.687.843 1.687 1.82 0 .488-.222.648-.71.648h-3.368c.211-1.558 1.16-2.468 2.39-2.468Zm11.283-.25h-2.758c-.055 0-.055.383 0 .383.976.011 1.171.527.683 1.687l-1.531 3.617-1.543-3.707c-.566-1.36-.461-1.597.672-1.597.055 0 .055-.383 0-.383h-3.297c-.043 0-.043.383 0 .383.633 0 .96.238 1.531 1.597l2.004 4.75-.012.028c-.25 1.57-1.214 2.468-1.914 2.468-.172-.226-.543-.82-1.187-.82-.36 0-.528.238-.528.504 0 .433.684.789 1.399.789 1.387 0 2.086-1.16 2.719-2.613h.011l2.141-5.016c.488-1.16 1.055-1.676 1.61-1.687.027 0 .027-.383 0-.383Zm0 0"/></svg>