<svg xmlns="http://www.w3.org/2000/svg" width="1366" height="768" version="1.0" viewBox="0 0 1024.5 576"><defs><clipPath id="a"><path d="M0 .14h1024v575.72H0Zm0 0"/></clipPath><clipPath id="b"><path d="M26 283h70.164v54.547H26Zm0 0"/></clipPath><clipPath id="c"><path d="M0 302h193.906v230.227H0Zm0 0"/></clipPath><clipPath id="d"><path d="M0 .14h362.133v322.372H0Zm0 0"/></clipPath><clipPath id="e"><path d="M0 .14h356V298H0Zm0 0"/></clipPath></defs><g fill="#fff" clip-path="url(#a)"><path d="M0 .14h1024.5v576H0Zm0 0"/><path d="M0 .14h1024.5v576H0Zm0 0"/></g><g clip-path="url(#b)"><path fill="#cb962e" fill-rule="evenodd" d="M48.465 331.781a3.943 3.943 0 0 0 1.476-3.082 3.97 3.97 0 0 0-3.976-3.96c-.809 0-1.809.234-2.746 1.007-.528.43-1.535 1.883-1.535 1.883s.043-.067.062-.09c-.629.863-1.324 1.902-2.11 2.606a3.95 3.95 0 0 0-.304 5.593 3.994 3.994 0 0 0 5.621.301c1.18-1.05 2.285-2.547 3.23-3.84.047-.062.172-.25.282-.418Zm13.305-5.453a3.958 3.958 0 0 0-1.368 3.5c.262 2.102 1.504 3.074 3.18 3.402.504.102 1.754.325 3.16-.71.192-.141 1.164-1.168 1.422-1.41.934-.883 1.77-1.805 2.598-2.786.031-.035.3-.304.476-.48a3.953 3.953 0 0 0 1.696-3.242c0-1.961-1.04-2.97-2.196-3.551-.683-.344-1.925-.793-3.531-.031-.371.175-2.36 1.996-2.531 2.199-.637.754-1.27 1.46-1.989 2.136-.136.13-.695.735-.917.973Zm26.71-7.34c-.476.422-1.843 1.637-2.148 1.977l-1.148 1.394c-.153.18-.336.438-.465.63a3.94 3.94 0 0 0-.75 3.784c.41 1.254 1.195 1.899 1.937 2.29.914.476 2.024.69 3.336.171a3.918 3.918 0 0 0 1.473-1.015c.082-.09.312-.465.582-.79l.945-1.148c.344-.297 2.356-2.054 2.992-2.996.68-1.008.926-2.015.926-2.84 0-2.187-1.785-3.96-3.98-3.96a3.974 3.974 0 0 0-3.7 2.503Zm-52.25-7.629a3.958 3.958 0 0 0 2.012-3.441c0-2.188-1.785-3.961-3.98-3.961-.692 0-2.075.262-3.414 1.531-1.16 1.102-3.153 3.895-3.618 4.352a3.955 3.955 0 0 0-.015 5.605 3.998 3.998 0 0 0 5.629.016c.398-.395 2.836-3.418 3.386-4.102Zm15.11-3.832a3.94 3.94 0 0 0-.809 3.875c.688 2.078 2.938 3.207 5.028 2.524a4.06 4.06 0 0 0 1.406-.801c.25-.215.969-1.238 1.265-1.672.891-1.05 1.747-2.223 2.72-3.191a3.955 3.955 0 0 0 0-5.606 4.001 4.001 0 0 0-5.63 0c-1.16 1.156-2.191 2.551-3.265 3.797-.106.121-.512.754-.715 1.074Zm31.492 4.493a103.778 103.778 0 0 1 4.754-5.047 3.954 3.954 0 0 0 0-5.602 3.994 3.994 0 0 0-5.629 0 111.99 111.99 0 0 0-5.113 5.426 3.953 3.953 0 0 0 .37 5.594 3.996 3.996 0 0 0 5.618-.371Zm-37.254-23.997a3.924 3.924 0 0 0-1.316 2.45c-.29 2.168 1.246 4.16 3.422 4.449.687.09 1.64.058 2.671-.578.446-.274 1.825-1.89 1.825-1.89s-.137.175-.16.202c.792-.949 1.765-1.793 2.636-2.66a3.947 3.947 0 0 0 0-5.601 3.99 3.99 0 0 0-5.625 0c-1.043 1.035-2.18 2.058-3.125 3.19l-.328.438"/></g><path fill="#f3c6ee" d="M183.125 385.613c-3.336 22.055-21.207 62.133-68.52 63.461-47.312 1.328-74.738-13.55-85.28-45.5-10.54-31.953 10.62-81.773 39.16-86.68 36.206-6.226 124.773 1.704 114.64 68.72Zm0 0"/><g clip-path="url(#c)"><path d="M79.46 532.094c3.333 0 6.645.015 9.954-.024.281-.008.66-.347.82-.633 1.914-3.437 3.875-6.847 5.668-10.351 1.993-3.895 3.914-7.84 5.688-11.84 1.687-3.812 3.305-7.676 4.676-11.613 1.476-4.223 2.875-8.504 3.859-12.863.84-3.707 1.047-7.555 1.531-11.34.031-.274.043-.547.067-.926 1.183.2 2.535.058 3.37.652 1.067.762 2.212.922 3.352 1.266.555.164 1.153.176 1.727.293 1.121.226 2.047.61 2.598 1.805.53 1.16 2.015 1.21 3.253.308 1.332-.965 1.645-.867 2.196.676.508 1.43 1.594 2.09 3.07 1.883a3.05 3.05 0 0 1 .625-.032c1.941.11 3.438-.597 4.262-2.402.43-.953.992-.992 1.804-.531 1.102.625 2.247 1.074 3.579.988 1.632-.11 2.125-.437 2.546-2.027.958.172 1.864.293 2.38-.871.093-.203.726-.223 1.113-.219 1.757.023 1.84-.055 1.672-1.824-.137-1.465.55-2.317 2.058-2.574.129-.02.246-.106.344-.149-.242-1.625 1.27-3.168-.156-4.738.336-.078.445-.14.52-.117 1.437.492 2.034.125 1.757-1.348-.266-1.438-.8-2.84-1.348-4.207-.261-.656-.273-1.09.27-1.559.93-.82.914-1.879.082-2.816-1.082-1.215-2.629-1.484-4.024-2.074a28.22 28.22 0 0 1-1.984-.93c-.832-.445-1.398-1-1.43-2.098-.035-1.144-.93-1.777-1.894-2.316-.543-.305-.945-.856-1.45-1.246-.675-.531-1.355-1.078-2.093-1.52-2.856-1.726-5.77-3.37-8.598-5.136-1.5-.942-2.965-1.97-4.285-3.141-1.187-1.055-2.144-2.363-3.059-3.746 1.149.695 2.301 1.387 3.45 2.086.207.129.367.332.586.433 2.597 1.192 5.129 2.579 7.82 3.477 2.156.715 4.512.809 6.781 1.207 1.285.223 2.528.191 3.809-.187.703-.211 1.523-.051 2.289.003 4.715.336 9.418.047 13.828-1.62 4.55-1.72 9.148-3.473 13.129-6.391 4.77-3.496 9.445-7.098 12.098-12.633.21-.442.68-.79 1.09-1.106a247.805 247.805 0 0 1 4.28-3.18c.743-.546.786-.968.102-1.558a1.41 1.41 0 0 0-.347-.238c-2.235-1.027-4.399-2.305-6.735-2.988-1.578-.465-3.406-.09-5.34-.09.309-.301.528-.688.832-.77 1.403-.394 1.836-1.504 2.157-2.719.105-.402.086-.859.265-1.214.156-.305.524-.711.801-.711.879-.004 1.066-.543.938-1.164-.336-1.645-.293-3.375-1.305-4.868-.895-1.324-.797-2.253.363-3.359 1.055-1.004 1.23-2.168.973-3.445-.223-1.114-.594-2.203-.934-3.285-.082-.247-.328-.438-.476-.668-.59-.887-1.176-1.774-1.743-2.672-.199-.313-.343-.66-.535-1.051a4473.26 4473.26 0 0 0 4.992-3.945c.192-.149.446-.262.567-.457.988-1.57 2.172-3.07 2.84-4.774.453-1.152.218-2.562.554-3.875.262-1.027-.148-2.262-.406-3.363-.101-.442-.547-.879-.941-1.156-.602-.422-.86-.805-.278-1.407.594-.617.504-1.265.29-2.035-.16-.59-.028-1.261.015-1.894.074-1.121.656-2.325-.613-3.2-.153-.101-.262-.347-.281-.539-.102-1.03-.786-1.617-1.614-2.023-.523-.258-.64-.57-.722-1.117-.075-.528-.344-1.348-.715-1.461-1.508-.469-1.817-1.742-2.145-2.93-.554-2.02-1.512-3.5-3.781-3.765-.254-.032-.516-.418-.676-.696-.652-1.125-1.64-1.754-2.87-2.117a4.06 4.06 0 0 1-1.356-.68c-1.371-1.093-2.371-1.066-3.555.184-.211.219-.371.473-.55.715-.11-.04-.22-.082-.329-.117 0-1.204-.05-2.41.012-3.61.097-1.75-.625-3.219-1.305-4.773-.785-1.801-2.406-2.633-3.746-3.785-.293-.25-1.129-.192-1.523.043-.973.586-1.836 1.355-2.606 1.941-.27-.836-.543-1.879-.95-2.86-.464-1.124-1.269-1.964-2.405-2.507-1.274-.606-1.95-1.45-1.875-3.086.168-3.582-1.946-6.05-4.758-7.856-1.98-1.27-4.203-2.152-6.27-3.28-.664-.364-1.246-.934-1.754-1.513-.457-.52-.718-1.195-1.132-1.757-1.067-1.43-2.286-2.438-4.305-2.043-.953.187-2.004-.012-2.988-.184-.829-.144-1.543-.183-2.29.328-.656.45-1.421.735-2.136 1.094-.043.176-.086.355-.121.535-.282-.398-.508-.844-.852-1.176-.953-.918-1.988-.668-2.668.453-.613 1.02-1.398 1.938-2.086 2.922-.558.809-1.082 1.653-1.625 2.489-.234.359-.453.734-.828 1.343-.305-.68-.484-1.105-.683-1.523-.801-1.742-1.454-1.98-3.254-1.297-.946.36-1.938.598-2.989.918-.293-.91-.523-1.633-.765-2.352-.63-1.906-1.528-2.468-3.48-2.015-1.692.39-3.302.492-4.81-.582-.183-.125-.472-.184-.703-.164-.964.086-1.628-.406-2.324-.992a5.191 5.191 0 0 0-1.816-.965c-.305-.098-.91.12-1.086.386-.316.48-.61.637-1.18.594-.472-.031-.969.121-1.43.278-.718.242-.89-.079-.816-.711.004-.032.012-.067.012-.102.176-1.289.484-2.789-.649-3.64-1.64-1.231-3.609-1.825-5.718-1.227-.328.09-.68.262-.899.508-.91.98-1.746 2.039-2.672 3.011-.437.454-1.039.746-1.53 1.157-.759.636-1.59 1.222-2.212 1.98-1.582 1.945-3.074 3.961-4.582 5.969-.39.523-.703 1.105-1.058 1.66-.247-.457-.41-1.05-.801-1.375-.242-.203-.824 0-1.41.023-.082-.441-.227-1.171-.344-1.906-.223-1.418-1.367-1.937-2.465-2.441-.273-.125-.727.152-1.187.265-.141-.23-.329-.562-.54-.875-.753-1.136-2.242-1.101-2.976.051-.117.184-.41.32-.637.356a15.53 15.53 0 0 1-1.758.082c-.75 0-1.207.398-1.343 1.082-.227 1.156-.383 2.332-.57 3.496-.06.363-.133.719-.258 1.402-.684-.902-1.278-1.5-1.645-2.215-.574-1.11-1.426-1.48-2.621-1.53-1-.044-2.04.323-3.04-.317-.155-.102-1.073.629-1.35 1.136-.696 1.254-1.196 2.621-1.848 3.91-.297.59-.524 1.504-1.59.997-.094-.043-.399.16-.465.308-.52 1.14-1.035 2.278-1.465 3.442-.11.28.09.683.324 1.02-.015.062-.011.16-.054.187-1.403.96-2.094 2.172-1.645 3.949.098.383-.25.988-.562 1.344-.864.992-1.305 2.046-.891 3.359.059.188.11.512.02.586-1.204.973-.477 2.008-.02 2.91 1.336 2.645 2.965 5.152 4.113 7.863.848 2.008 1.899 4.079 1.547 6.414-.148.993-.434 1.965-.61 2.95-.316 1.73-.597 3.464-.866 5.027-.45-1.129-.989-2.555-1.586-3.953-.536-1.242-1.04-2.516-1.723-3.68-.754-1.285-2.008-1.547-3.426-1.055-.316.106-.914-.042-1.117-.292-.871-1.063-1.77-1.668-3.25-1.18-.445.144-1.203-.27-1.652-.625-.891-.723-1.614-1.64-2.5-2.371-1.438-1.192-3.22-1.223-4.957-1.106-.461.032-1.079.504-1.282.934-.465.988-.882 2.062-1.023 3.133a14.307 14.307 0 0 1-1.488 4.855c-1.051 2.027-1.868 4.176-2.7 6.3-.355.895-.707 1.692-1.507 2.31-.653.503-1.133 1.218-1.735 1.796-.254.243-.601.485-.941.543-3.192.555-4.07 3.262-4.434 5.965-.035.223.024.531.164.692.825.949.336 1.629-.394 2.296-1.305 1.196-1.512 2.758-1.477 4.415.004.316-.02.738-.207.941-1.637 1.754-1.504 3.832-1.031 5.91.457 2.031 1.062 4.035 1.684 6.027.18.586.64 1.086 1.023 1.723-.508.68-.719 1.54-.297 2.567.496 1.207.348 2.437-.184 3.632-.492 1.098-.52 2.203-.015 3.34.234.531.39 1.16.36 1.73-.169 2.9 1.628 3.919 3.948 4.352.668.121 1.336.266 1.997.586-.704.184-1.473.246-2.086.59-.594.324-1.266.863-1.446 1.445-.11.375.508 1.184.992 1.473 1.22.73 2.54 1.293 3.825 1.902 1.558.73 3.113 1.473 4.695 2.153 1.516.648 3.117.703 4.734.472.48-.07.98-.035 1.465-.027 1.043.023 1.48.59 1.336 1.594-.144 1.023-.219 2.058-.324 3.105.047 0-.05.028-.086-.004-2.598-2.5-5.973-3.363-9.313-3.996-5.035-.949-10.16-1.492-15.296-1.137-2.317.16-4.598.758-6.899 1.137-.789.13-1.59.188-2.387.305-.242.039-.476.16-.69.492.491.098.983.25 1.48.281 1.183.078 2.03.707 2.69 1.602 2.677 3.66 6.157 6.488 9.817 9.031 3.41 2.367 7.207 4.098 11.243 5.258 4.351 1.25 8.671 2.613 13.027 3.855 2.305.657 4.66 1.125 6.988 1.72 2.324.589 4.723 1.003 6.93 1.898 2.312.933 4.422 2.347 6.62 3.554-.019.137-.034.27-.05.403-.469 0-.988.129-1.398-.024-1.969-.707-3.86-1.644-5.86-2.234-4.972-1.473-10.097-1.961-15.218-1.246-5.032.707-10.024 1.73-14.989 2.836-1.765.39-3.39 1.422-5.074 2.156-.289.125-.57.27-.863.351-3.406 1.016-6.68 2.504-10.281 2.82-.145.012-.278.16-.418.247 3.117 2.738 6.84 2.996 10.718 2.691.016.117.032.227.047.348-1.043.633-2.12 1.215-3.12 1.91-1.567 1.09-3.415 1.996-4.528 3.453-1.207 1.574-1.727 3.684-2.512 5.574-.207.5-.215 1.09-.418 1.586-.988 2.387-1.941 4.79-3.059 7.118-.609 1.27-1.562 2.375-2.273 3.605-.39.676-.594 1.461-.883 2.191.11.059.223.118.332.172.758-.59 1.516-1.164 2.27-1.761 1.61-1.278 3.316-2.196 5.469-2.325 3.18-.191 6.039-1.511 8.835-2.968.91-.473 1.876-.848 2.81-1.266-1.13 2.18-2.216 4.262-3.29 6.348-.68 1.32-.488 2.648.04 3.953.081.207.366.394.597.453.094.02.394-.309.41-.496.14-1.64 1.39-2.445 2.41-3.504 2.625-2.711 5.688-4.793 8.86-6.774 2.296-1.437 4.82-2.3 7.37-3.168 4.157-1.406 7.766-3.773 10.91-6.832.22-.214.454-.41.598-.543-.48 11.54-2.609 23.036-1.484 34.739.703.105 1.148-.219 1.48-1.004.274-.649.813-1.188 1.262-1.758.871-1.117 1.856-2.16 2.625-3.348 1.98-3.058 3.852-6.175 6.399-8.843 1.402-1.477 2.445-3.286 3.707-4.903 1.695-2.168 3.48-4.261 5.164-6.437 2.597-3.356 5.582-6.461 7.367-10.36 1.031-2.257 1.687-4.695 2.379-7.093.187-.645-.117-1.43-.192-2.153 1.75.082 6.34 3.25 10.653 7.41-.227.375-.473.782-.707 1.192-1.168 2.035-.297 3.89 2.03 4.242.856.137 1.735.152 2.802.238-.09.836-.075 1.668-.282 2.45-.394 1.46.438 3.043 1.88 2.84 1.93-.274 3.09 1.226 4.714 1.558.184.04.328.41.43.652 1.05 2.493 1.988 5.04 3.168 7.47 1.312 2.683 2.68 5.374 5.02 7.386.171.144.242.55.183.797-.332 1.386-.75 2.761-1.086 4.148-1.293 5.29-3.164 10.38-5.527 15.274-1.825 3.78-3.848 7.464-5.742 11.207-1.887 3.73-4.512 6.937-7.153 10.132-1.734 2.055-3.558 4.067-5.406 6.196Zm43.52-102.438c-1.105.563-2.125.418-3.066-.379a1.128 1.128 0 0 0-.375-.187c-2.008-.688-2.902-2.285-3.047-4.215-.32-4.277-.469-8.559-.687-12.84-.02-.351 0-.707 0-1.058-.121.007-.239.007-.356.011 0 1.266-.043 2.532.008 3.797.164 4.387-.121 8.84 1.676 13.09-1.297-.336-2.625-.691-3.352-1.887-1.043-1.71-2.09-3.457-2.836-5.312-1.488-3.676-2.96-7.387-4.078-11.188-.773-2.629-.12-3.39 1.992-4.148a13.669 13.669 0 0 1 2.422-.645c1.516-.261 2.906.532 3.617 1.926.97 1.899 2.075 3.5 4.465 4.004 1.766.367 3.25 1.402 4.465 3 1.137 1.496 2.59 2.871 4.719 3.305 2.441.496 4.488 1.64 5.062 4.457.16.8.668 1.734 1.313 2.191 1.172.824 1.848 1.945 2.562 3.09.235.379.551.71.832 1.066.5.63.985.63 1.711.227 2.352-1.32 4.653-2.82 7.586-2.457 1.16.144 2.149-.461 3.051-1.18.426-.336.938-.566 1.406-.844.043.079.086.157.137.235-.766.582-1.719 1.031-2.27 1.773-1.34 1.813-2.554 3.73-3.714 5.668-.758 1.274-1.614 2.281-3.082 2.781-1.93.657-3.883.84-5.887.657-2.695-.242-5.387-.48-8.07-.801-.942-.11-1.856-.465-2.782-.707.293-.227.555-.242.82-.254 4.348-.195 8.622-.746 12.493-2.977.324-.187.629-.418.945-.628-.058-.082-.125-.168-.183-.247-1.051.524-2.082 1.082-3.153 1.563-2.812 1.27-5.847 1.516-8.86 1.934-2.538.351-4.632-.305-6.476-1.98.332-.294.657-.583.985-.872Zm8.598-120.027-.027.027c1.027-.418 1.89-1.187 3.18-.969 1.285.215 2.62.086 3.925.188.582.047 1.328.121 1.692.484.894.903 1.601 2 2.406 2.993.457.558.883 1.21 1.476 1.558.579.336.813.688.797 1.285-.023.664-.011 1.332-.113 1.98-.18 1.13-.445 2.243-.668 3.364.106.024.215.04.316.059.356-1.985.715-3.97 1.086-6.004.938.5 1.868 1.168 2.907 1.504 2.761.898 4.812 2.629 6.27 5.066.706 1.188 1.046 2.504.85 3.883-.882-.89-1.593-1.895-2.55-2.516-2.078-1.344-4.45-1.824-6.918-1.613-.484.043-1.168.227-1.39.574-.794 1.262-1.848 1.11-2.997.781-.84-.234-1.43.102-1.84.82-.304.528-.605 1.063-.902 1.594.074-1.28.32-2.507.473-3.746.152-1.195.183-2.41.297-3.609.109-1.25.297-2.492.367-3.75.066-1.2.015-2.402.015-3.602-.507 6.247-1 12.465-2.539 18.563.094.016.176.039.27.055.289-1.059.574-2.121.805-2.953.37 1.156.793 2.464 1.199 3.777.832 2.691 1.652 5.383 2.5 8.07 1.246 3.95 1.55 7.953.77 12.235-1.122-1.657-2.141-3.344-4.415-2.391-.468-1.352-.882-2.57-1.32-3.781-.652-1.809-1.758-3.059-3.742-3.598-1.914-.523-3.348-1.773-4.16-3.672a38.895 38.895 0 0 0-1.86-3.75c-.312-.558-.758-1.168-1.297-1.445-.964-.492-1.351-1.238-1.546-2.2-.47-2.386-1.102-4.742-2.254-6.886-1.133-2.106-2.286-4.207-4.457-5.516-.774-.465-1.375-1.203-2.055-1.816.781-.223 1.555-.313 2.187-.66 1.735-.961 2.309-.79 3.032 1.097.023.067.023.145.066.2.29.394.586.789.879 1.18.41-.352.855-.68 1.223-1.067.175-.188.254-.504.304-.77.254-1.238 1.227-1.859 2.243-2.722.53 4.965 1.093 9.73 2.417 14.36.098-.18.094-.34.067-.509-.68-4.23-1.277-8.476-2.09-12.683-.328-1.688.73-2.723 1.309-3.993.09-.199.62-.347.886-.277.262.07.582.414.633.684.348 1.91.586 3.836.934 5.75.465 2.562 1 5.11 1.504 7.66.101-.024.203-.04.304-.059-.785-4.336-1.578-8.675-2.386-13.125 1.007.938 1.136.922 1.937-.11ZM26.324 453.547c1.805-.195 3.61-.367 5.41-.602 2.278-.3 4.54-.48 7.118.051-3.04 1.832-5.832 3.52-8.63 5.207-1.753 1.063-3.55 1.938-5.699 1.496-.195-.043-.418.024-.625.051-3.355.43-6.515 1.469-9.445 3.16a310.55 310.55 0 0 0-6.031 3.594c-.961.586-1.875 1.25-2.817 1.875.043.086.094.164.137.25.356-.164.735-.297 1.074-.508 1.836-1.137 3.649-2.316 5.493-3.441 3.496-2.14 7.125-3.973 11.25-4.578.773-.11 1.582-.016 2.37-.016-.113.371-.245.473-.39.55-2.004 1.137-4.023 2.243-6.008 3.41-1.078.638-2.191 1.274-3.136 2.083-4.555 3.906-9.997 6.254-15.375 8.879.347-.672.69-1.27.972-1.89 1.656-3.606 3.172-7.27 4.18-11.13.543-2.054 1.71-3.738 3.594-4.836 2.195-1.28 4.398-2.554 6.597-3.843.145-.086.227-.278.473-.59-1.965-.074-3.734-.281-5.484-.164-2.227.148-3.95-.785-5.493-1.832 3.012-.98 6.098-1.864 9.086-3 2.7-1.024 5.262-2.344 8.14-2.946 5.017-1.054 10.013-2.148 15.145-2.457 5.852-.351 11.461.668 16.864 2.91.254.106.488.266.843.465-1.808.457-3.414 1.051-5.058 1.227-2.102.226-4.242.074-6.363.144-1.395.047-2.79.145-4.176.301-3.844.414-7.68.91-11.524 1.305-4.656.48-9.316.887-13.972 1.336-.285.027-.555.148-.836.222.14.196.265.254.383.243 5.3-.578 10.605-1.211 15.91-1.723 5.664-.55 11.336-.996 17-1.46.64-.052 1.3.058 2.113.1-.238.188-.3.262-.383.305-2.937 1.5-5.87 3.024-8.836 4.48-.484.24-1.093.317-1.644.31-1.395-.012-2.801-.239-4.18-.145-2.437.172-4.86.504-7.285.8-.258.036-.492.278-.738.423 0 .007-.024-.016-.024-.016Zm127.93-23.883c-1.176.309-2.348.64-3.527.922-1.141.266-2.29.64-3.622.086 1.63-2.606 3.063-5.266 6.051-6.887.582.652 1.25 1.399 2.012 2.246.574-.449.309-1.207.309-1.863.003-2.613 1.316-4.688 2.773-6.695a.646.646 0 0 1 .254-.184c2.562-1.207 5.344-1.703 8.031-1.07 1.867.445 3.422.226 5.063-.406 1.03-.395 2.03-.168 2.738.652.941 1.101 1.89 2.195 2.918 3.387-6.691 6.878-15.527 10.054-24.402 13.168.386.023.71-.063 1.043-.165 4.43-1.308 8.707-3.023 12.835-5.09 3.454-1.726 6.711-3.773 9.407-6.55 1.277-1.317 2.586-2.492 4.234-3.285.063-.035.117-.078.176-.114 1.844-1.062 3.738-1.566 5.8-.62.555.257 1.137.437 1.72.656-.313.441-.618.851-.919 1.265-1.597 2.235-2.761 4.797-4.964 6.574-.926.747-1.899 1.442-2.75 2.262-4.579 4.477-10.426 6.735-16.125 9.27-3 1.332-6.235 1.453-9.414 1.824-1.176.14-2.364.176-3.551.183-1.278 0-2.547-.14-3.824-.125-.688.008-1.38.348-2.051.286-2.25-.227-4.5-.496-6.735-.883-3.351-.574-6.14-2.555-9.218-3.832-.028-.012-.016-.113-.024-.145.871 0 1.801-.203 2.598.04 2.187.671 4.308 1.534 6.465 2.304.39.14.804.188 1.21.277.008-.027.008-.054.012-.078-2.074-.719-4.14-1.433-6.214-2.148.023-.094.046-.192.074-.293.324.031.652.062.976.09 2.215.187 4.442.593 6.645.496 2.57-.117 5.062-.766 6.394-3.426.121-.246.594-.379.926-.45 1.906-.382 3.824-.702 5.727-1.105.332-.07.61-.398.91-.61Zm-36.54-112.77c1.852.512 2.407 2.313 3.532 3.543.695.758.676 1.618.414 2.528-.902 3.074-1.812 6.156-2.719 9.23-.183.61-.359 1.223-.539 1.832l.328.094c1.137-3.66 2.27-7.328 3.36-10.863 1.45.879 1.351 2.582 1.7 4.105.062.274.14.54.222.801.383 1.223 1.136 2.461 1.054 3.652-.086 1.286-.941 2.52-1.46 3.774-.16.383-.32.773-.465 1.164-.102.266-.168.543-.254.816.074.028.148.059.222.086.871-2.05 1.743-4.101 2.723-6.402.55.625 1.008 1.012 1.281 1.496a42.922 42.922 0 0 1 1.918 3.723c1.008 2.214 2.711 3.504 4.996 4.257.793.262 1.735.868 2.09 1.57.801 1.606 1.293 3.368 1.875 5.083.063.183-.039.484-.168.652-.82 1.031-1.699 2.016-2.512 3.055-.37.473-.671.644-1.304.37-.996-.429-1.617-.003-1.98 1.028-.141.387-.505.758-.856.996-1.61 1.09-3.262 2.23-3.422 4.325-.074.984.348 1.972-.336 2.921-.125.172.137.641.262.954.129.32.32.62.449.941.277.68.05 1.059-.64 1.371-.794.36-1.153-.21-1.645-.527-1.223-.801-2.418-1.809-4-1.438-.723.172-1.203.14-1.836-.246-.52-.312-1.363-.605-1.79-.383-.378.2-.378 1.118-.55 1.72-.016.062-.066.116-.144.257-.258.05-.567.121-1.024.219.274-.813.45-1.493.723-2.125 1.52-3.465 2.273-7.121 2.945-10.825.684-3.761 1.676-7.472 2.54-11.203.112-.488.288-.96.503-1.66-.258.238-.36.293-.394.371a12.57 12.57 0 0 0-.415 1.074c-1.289 3.918-1.972 7.95-2.625 12.02-.527 3.277-1.757 6.441-2.687 9.652-.262.899-.648 1.766-.867 2.672-.23.961-.332 1.961-.5 3.012-1.285-.305-1.465.723-1.887 1.465-.781-1.23-.781-1.23-2.492-.856-1.352-1.406-2.742-1.386-4.078-.007-.176.187-.547.28-.825.269-1.18-.055-2.261.012-2.585 1.512-.04-.43.152-.93-.012-1.121-.68-.786-.36-1.657-.363-2.489-.004-2.925.117-5.859-.028-8.777-.074-1.453-.699-2.852-1.68-4.031-.003.422.126.8.223 1.183.305 1.176.836 2.352.848 3.536a121.66 121.66 0 0 1-.29 9.925c-.042.645-.84 1.27-1.347 1.852-.492.566-.922-.043-1.394-.117-.418-.063-.883.132-1.32.215.245.89-.614.902-1.106 1.472-.242-1.785-1.586-1.293-2.582-1.457-.285-.05-.625.238-.942.371.246.29.45.649.754.852.41.277.903.441 1.36.656-.028.113-.059.219-.086.332-.532.11-1.09.149-1.582.344-.785.32-.77.808-.14 1.2-.24.687-.454 1.296-.673 1.937-.937.093-1.129.57-.523 1.418.804 1.128.726 1.742-.442 2.687-.566-.46-1.109-1.02-1.761-1.39-.418-.235-.996-.18-1.496-.255.19.465.382.934.574 1.399.027.059.05.121-.024-.066-.629.55-1.187 1.043-1.75 1.535.532.554 1.063 1.11 1.668 1.738-1.078.43-1.758 1.121-1.086 2.172-.746.867-1.406 1.562-1.965 2.324-.128.176-.011.668.16.89.86 1.153.856 1.266-.406 1.864-1.191.562-1.507 1.102-1.234 2.125-.46.437-1.59.605-.898 1.598.601.87.332 2.171 1.449 2.77.082.046.023.323.074.484.106.34.234.668.375.996.422.98 1.371 1.18 2.242 1.312 1.047.16 1.215.79 1.278 1.66-4.442-1.613-8.606-8.156-8.594-13.453.12-.031.262-.101.383-.086 2.109.235 3.613-.875 4.425-2.55 1.258-2.587 2.297-5.297 3.176-8.036.531-1.652-.312-2.855-1.996-3.523-.723-.29-1.492-.461-2.387-.73.782-1.52 1.551-2.91 2.23-4.352 2.423-5.14 5.395-9.93 9.216-14.149 2.375-2.617 5.132-4.683 8.613-5.703 1.078-.312 2.21-.844 3.02-1.594.816-.765 1.44-1.87 1.816-2.937.351-1.016.246-2.184.394-3.277.043-.32.2-.707.434-.91 1.113-.965 1.063-1.938-.18-2.653-.972-.558-1.058-.894-.343-1.77.55-.675 1.218-1.257 1.746-1.945.925-1.199.793-2.187.027-3.527-.758-1.324-1.89-2.504-1.746-4.25.16-1.965.035-3.961.277-5.918.317-2.54.856-5.055 1.348-7.563.062-.332.496-.87.687-.843.493.074 1.141.297 1.372.676.66 1.113.898 2.148.312 3.609-.922 2.297-1.223 4.848-1.762 7.293-.082.351-.011.742-.011 1.117.777-3.101 1.347-6.2 2.261-8.797.535.352 1.09.66 1.57 1.063.606.504 1.145 1.093 1.72 1.644Zm-72.144 54.34.02-.02c.23.579.379 1.212.719 1.724.632.968.812 1.992.914 3.136.152 1.692.543 3.363.933 5.024.16.691.649 1.3.867 1.992.965 3.015 1.836 6.062 2.852 9.058 1.102 3.25 2.535 6.336 5.121 8.727-.96.852-.973 1.121-.016 1.98.305.278.723.434 1.028.711 1.129 1.032 2.234 2.082 3.351 3.13-.078.09-.16.183-.234.273-8.02-3.996-16.004-8.059-24.348-11.34.934.574 1.965.937 2.946 1.402 4.004 1.89 8.007 3.781 11.984 5.735 3.227 1.586 6.418 3.25 9.61 4.914.663.34 1.374.703 1.87 1.238 1.977 2.117 3.872 4.312 5.813 6.465.836.933 1.719 1.824 2.586 2.738-1.684-.531-3.223-1.238-4.82-1.777-3.637-1.23-7.29-2.34-11.18-2.543-4.758-.246-9.45-1.414-14.254-1.098-2.617.168-5.23.32-7.848.43-1.097.05-1.941.437-2.597 1.32-.645.863-1.54 1.414-2.61 1.235a13.655 13.655 0 0 1-3.191-.981c-1.55-.68-3.043-1.5-4.543-2.281-.707-.371-1.418-.75-2.07-1.207-.84-.598-.782-1.29.168-1.739.586-.28 1.242-.46 1.89-.574.961-.172 1.946-.246 2.918-.36-.23-.288-.476-.386-.726-.456-1.653-.438-3.32-.813-4.953-1.309-1.516-.465-2.13-1.453-2.176-3.058-.024-.692-.02-1.442-.285-2.055-.641-1.477-.301-2.852.328-4.133.437-.91.32-1.71.004-2.504-.38-.957-.41-1.793.203-2.66.383-.539.375-.996-.344-1.344-.29-.14-.535-.547-.637-.875-.629-2.023-1.265-4.047-1.8-6.097-.399-1.543-.56-3.23.414-4.543.695-.934.87-1.817.89-2.867.028-1.211.348-2.317 1.25-3.23.492-.497.852-1.126 1.172-1.56 5.512 2.418 11.012 4.832 16.512 7.247-.18-.348-.45-.504-.727-.625-2.742-1.204-5.511-2.356-8.226-3.618-2.63-1.21-5.22-2.511-7.797-3.824-.27-.14-.528-.633-.512-.945.125-2.164 1.059-4.992 3.969-5.426.562-.086 1.094-.601 1.566-1.016 1.246-1.082 2.145-2.625 4.09-2.71 1.195-.055 2.242-.458 2.57-1.852.145-.598.461-1.16.688-1.719.601.79 1.183 1.559 1.765 2.328l-.027.024c-.195-.43-.308-.942-.613-1.285-1.375-1.528-1.149-3.696-2.184-5.356-.125-.203.035-.601.094-.902.281-1.461.54-2.93.883-4.383.18-.77.379-1.594.82-2.215.32-.453 1.047-.816 1.617-.86 2.285-.171 4.114.759 5.516 2.575.312.41.742.734 1.125 1.09.652.59 1.418.785 2.23.457.782-.309 1.329-.07 1.84.523.317.367.68.715 1.086.977.219.144.614.207.848.113 1.36-.539 2.328-.32 3.078.918.543.887.938 1.863 1.363 2.813.84 1.87 1.66 3.753 2.489 5.628.273.618.238 1.012-.434 1.458-1.527 1.003-2.977 2.175-3.398 4.074-.508 2.285-.63 4.605-.04 6.918.098.375.102.761.165 1.3-.598-.89-1.083-1.609-1.575-2.328Zm98.313-19.832.32-.105c.047-.227.149-.45.14-.668-.058-1.117.262-2.043 1.134-2.797.277-.234.464-.613.609-.96.355-.856.984-1.411 1.89-1.294.93.125 1.188.926 1.329 1.785.34 2.055 1.894 3.293 3.984 3.285.363 0 .746.086 1.082.22 1.918.78 2.856 2.202 2.875 4.3.004.703.207 1.46.535 2.09.696 1.36 1.524 2.644 2.309 3.953.129.207.332.371.496.555.07-.223.156-.45.21-.68.048-.227-.034-.566.095-.688.984-.914 1-2.183 1.363-3.332.101-.312.523-.77.781-.75.684.036.91-.27 1.113-.828.43-1.164.817-2.37 2.329-2.644 1-.18 1.597.172 1.605 1.18a74.446 74.446 0 0 1-.086 3.734 168.428 168.428 0 0 1-.332 5.426c-.031.386-.207.78-.394 1.128-.696 1.27-1.547 2.473-2.114 3.797-.597 1.407-1.293 2.668-2.836 3.094-1.906.531-2.882 1.945-3.78 3.524-.602 1.058-1.22 2.136-2.017 3.043-1.652 1.886-2.582 4-2.668 6.503-.101 2.989-.253 5.973-.351 8.965-.117 3.524-.188 7.047-.293 10.57-.066 2.149-.09 4.31-.274 6.454-.242 2.855-1.292 5.34-3.703 7.101-.87.633-1.664 1.399-2.582 1.953-.754.457-1.64.696-2.468 1.032 1.296-2.512 1.644-5.024 1.707-7.61-.25.453-.309.957-.41 1.45-.278 1.32-.422 2.699-.891 3.953-.88 2.351-4.285 4.277-7.149 4.234 1.57-2.945 2.47-6.93 1.829-8.746-.141.59-.247.973-.317 1.363-.23 1.235-.316 2.516-.7 3.7a17.902 17.902 0 0 1-1.687 3.68c-.562.925-1.355.815-1.824-.157-.394-.813-.62-1.707-1.043-2.504-.363-.688-.765-1.559-1.39-1.875-1.414-.707-2.98-1.125-4.485-1.668-.316-.113-.699-.188-.918-.406-1.176-1.223-2.3-2.485-3.453-3.727a1.614 1.614 0 0 0-.508-.363c-1.453-.656-2.933-1.262-4.355-1.973-.66-.328-1.34-.765-1.781-1.332-.618-.785-1.07-1.715-1.493-2.629-.359-.773-.902-1.21-1.714-1.375-2.41-.508-4.668-.125-6.633 1.371-.461.352-.809 1.036-.926 1.618-.418 2.09.441 3.984 1.121 5.878.691 1.922 1.465 3.813 2.293 5.946-.379-.211-.527-.281-.668-.371-2.191-1.473-4.379-2.953-6.574-4.422-.84-.559-1.86-.945-2.524-1.66-2.074-2.243-4.148-4.512-5.976-6.95-2.633-3.52-4.063-7.582-4.676-11.933-.336-2.399-.496-4.75.86-6.957.449-.727.64-1.606 1-2.39.265-.595.535-1.223.945-1.716.605-.718 2.375-.945 2.8-.488.739.774 1.45 1.594 2.274 2.274 4.3 3.55 8.633 7.062 12.96 10.582.34.27.72.484 1.075.722-.266-.484-.652-.816-1.047-1.129-1.582-1.25-3.207-2.453-4.746-3.754a583.99 583.99 0 0 1-8.324-7.191c-.695-.613-1.5-1.234-1.895-2.035-.933-1.856-.652-4.195 1.961-4.649.641-.113 1.32-.058 1.973.016 2.371.266 3.004-.086 4.11-2.227.175-.336.648-.593 1.038-.726.528-.18 1.11-.207 1.88-.332 2.132 5.066 4.152 10.273 6.507 15.324 2.336 5.008 5.008 9.86 7.531 14.777.094-.046.192-.097.29-.144-1.45-3.008-2.895-6.016-4.352-9.024-1.477-3.03-3.102-6-4.406-9.101-1.368-3.246-2.524-6.57-4.387-9.594-.504-.812-.746-1.789-1.113-2.683-.524-1.282.293-2.97 1.945-2.883.535.023 1.207-.04 1.598-.344.941-.73 1.53-.465 2.187.36.742.921 1.52 1.835 2.395 2.62.343.305 1.004.32 1.52.309.1 0 .277-.703.269-1.082-.016-.902-.18-1.805-.168-2.707.004-.606.004-1.55.347-1.746 1.063-.613.887-1.438.801-2.352-.125-1.289.078-1.504 1.559-1.578 1.156 3.031 2.582 6.082 3.472 9.285 1.778 6.395 4.094 12.582 6.582 18.723.157.379.333.746.5 1.125.118-.191.133-.36.079-.504-.618-1.691-1.262-3.371-1.875-5.066-1.121-3.11-2.309-6.207-3.332-9.356-1.336-4.144-2.387-8.379-4.375-12.285-.364-.715-.82-1.398-1.043-2.156-.168-.551-.024-1.192-.016-1.79.508.165 1.008.34 1.523.485.477.14 1.079.492 1.426.328 1.004-.472 1.824-.152 2.688.266 1.082.52 2.175 1.008 3.25 1.539.152.074.261.281.34.445.414.914.687 1.922 1.238 2.746 2.047 3.047 3.004 6.524 3.789 10.008.68 3.02.906 6.137 1.305 9.215.14 1.047.203 2.11.3 3.16a7.9 7.9 0 0 0 .266-.015c0-.364.016-.727 0-1.09-.219-4.809-.797-9.559-2.18-14.2-.785-2.62-1.64-5.183-3.218-7.457a8.095 8.095 0 0 1-.961-1.851c-.125-.344-.141-.953.07-1.149 1.062-.984.644-1.894.105-2.918-.175-.328-.175-1.02.043-1.23.54-.512.375-.914.172-1.48-.195-.551-.449-1.41-.187-1.739a18.95 18.95 0 0 1 3.074-3.054c.473-.375.934-.563 1.043-1.254.125-.856.719-1.164 1.437-.7.797.512 1.223.149 1.66-.406.649-.824 1.235-1.699 1.938-2.472 1.875-2.082 3.352-1.997 4.688.085.496.73 1.101 1.438 1.656 2.172Zm-39.461 85.27c-.09-.031-.188-.059-.277-.09-.157.41-.305.82-.47 1.227-1.632 4.144-2.984 8.441-5.554 12.128-2.668 3.829-5.574 7.493-8.402 11.208-.137.175-.477.32-.703.293-1.036-.133-2.09-.231-3.082-.528-1.246-.375-1.653-1.367-1.141-2.574.258-.602.61-1.18.988-1.719.703-.988.707-2.039.27-3.086-.293-.699-.719-1.355-1.145-1.984-.422-.621-.64-1.164-.234-1.922.437-.816.152-1.496-.695-1.582-1.872-.188-2.918-1.797-4.508-2.457-.137-.059-.18-.461-.192-.707-.02-.895-.078-1.727-1.105-2.106-.36-.132-.652-.441-1.082-.746 1.027-.175 1.906-.218 2.707-.488.84-.281 1.61-.789 2.496-1.242.117.46.219.855.316 1.25.176.715.645.914 1.34.82 1.133-.148 2.274-.312 3.41-.37 3-.157 5.567-.657 6.973-3.981.914-2.157 2.73-3.934 4.156-5.868.114-.148.336-.25.524-.293 1.156-.253 2.308-.628 3.48-.699 3.477-.21 6.793-1.105 10.086-2.101 2.45-.739 4.742-.625 6.899.843 1.082.735 2.617 1.207 3.195 2.227 2.281 4.023 5.96 6.516 9.543 9.059 2.512 1.78 5.39 3.043 8.101 4.554.418.227.973.473 1.13.852.367.883 1.058 1.258 1.831 1.598.91.402 1.348 1.09 1.551 2.07.129.62.48 1.336.961 1.715.75.593 1.688.957 2.559 1.394 1.226.613 2.543 1.082 3.675 1.836 1.02.676.926 1.34.09 2.215-.511.539-.933 1.195-.332 1.922 1.14 1.367 1.102 3.074 1.414 4.683.032.16-.14.364-.129.329-.722.082-1.273.16-1.824.195a.885.885 0 0 1-.539-.152c-1.933-1.426-3.937-2.766-5.766-4.317a338.276 338.276 0 0 1-9.703-8.605c-2.058-1.891-3.984-3.922-5.976-5.88-.203-.198-.438-.363-.656-.546.109.398.312.676.554.914 2.465 2.418 5.004 4.762 7.383 7.254 4.215 4.426 9.211 7.883 14.11 11.457.624.46 1.05 2.3.761 2.96-.23.528-.36 1.098-.547 1.708-.375.148-.918.375-1.468.598.113-.063.218-.13.332-.2-3.743-3.449-7.493-6.894-11.23-10.34-.028.028-.056.047-.079.075 3.625 3.636 7.25 7.277 10.633 10.672-.09 1.093-.23 1.875-.203 2.644.03.82-.23 1.18-1.067 1.047-.242-.04-.508.031-.73-.043-.613-.211-.805.066-1.082.59-.188.355-.77.566-1.219.691-.29.078-.652-.113-.984-.183.058.09.117.183.175.277-.523.566-.945 1.355-1.593 1.633-.637.281-1.512.125-2.254 0-2.27-.367-3.813-1.871-5.012-3.64-2.484-3.657-4.922-7.356-7.187-11.153-1.973-3.305-3.399-6.875-4.38-10.613-.078-.305-.206-.598-.316-.895l-.304.094c.574 2.035.98 4.133 1.75 6.094 2.726 6.98 6.859 13.12 11.78 18.832-.46.668-.882 1.449-1.464 2.078a3.635 3.635 0 0 1-1.563.957c-.718.218-1.515.355-2.257.293-1.317-.118-2.118-.352-2.45-1.692-.097-.39-.277-.898-.578-1.078-1.133-.683-1.492-1.816-1.84-2.933-1.203-3.848-2.554-7.672-3.48-11.59-1.238-5.254-2.133-10.586-3.184-15.887-.105-.543-.27-1.086-.406-1.625 1.29 10.832 3.266 21.488 7.621 31.539-.453.34-.875.715-1.347 1.008-1.223.758-1.977.473-2.516-.84-.125-.293-.375-.645-.648-.742-.973-.348-1.973-.61-2.973-.875-1.063-.29-2.293-.32-3.168-.89-.996-.653-1.934-.942-3.078-1.063-.84-.09-1.942-.375-2.395-.973-2.105-2.793-3.426-5.809-2.508-9.512.817-3.289 1.325-6.66 1.903-10 .433-2.507.77-5.03 1.105-7.55.156-1.165.211-2.344.313-3.512-.098-.012-.196-.02-.29-.031-.14.636-.312 1.265-.406 1.91-.578 3.886-1.07 7.785-1.722 11.66-.672 4.008-2.125 7.906-1.684 12.078.028.242-.32.559-.539.8-.547.606-1.215 1.13-1.668 1.798-.984 1.453-3.308 1.945-4.797.988-1.156-.746-2.258-1.54-3.797-1.543-.996 0-2.199-.059-2.707-.941 2.832-3.91 5.73-7.586 8.243-11.504 1.523-2.375 2.507-5.11 3.636-7.723 1.422-3.3 2.758-6.637 4.098-9.969.203-.5.23-1.074.34-1.605-.215.27-.266.582-.383.86-1.746 4.023-3.543 8.026-5.242 12.073-2.332 5.543-5.836 10.352-9.196 15.282-1.226 1.804-2.714 2.164-4.605 2-1-.086-1.703-1.047-1.477-1.84.235-.82.336-1.68.528-2.512.094-.39.18-.82.414-1.121 1.527-1.984 3.008-4.02 4.66-5.898 3.863-4.395 6.543-9.43 8.371-14.95.438-1.242.766-2.511 1.133-3.773Zm-1.262-121.098c1.125.817 1.262 1.918 1.555 3.008.23.863.644 1.75 1.203 2.438.605.742 1.559 1.19 2.219 1.902.523.558 1.101 1.285 1.175 1.992.145 1.383.899 2.375 1.649 3.395 1.164 1.578 1.094 2.984-.29 4.402-.39.402-.8.781-1.155 1.215-1.09 1.324-.977 1.87.515 2.758.801.476.828.992.106 1.515-.157.113-.317.29-.352.461-.273 1.184-.695 2.375-.71 3.57-.024 1.325-.524 2.34-1.477 3.055-.903.68-1.946 1.277-3.02 1.602-3.164.96-5.906 2.648-8.047 5.078-2.308 2.625-4.469 5.43-6.363 8.37-2.023 3.13-3.734 6.458-5.426 9.778-.933 1.82-1.254 2.227-3.113 2.196 1.289-6.993 5.422-12.903 7.355-19.657-.832 1.504-1.511 3.086-2.222 4.645-2.235 4.867-4.871 9.59-5.551 15.027-.02.184-.16.422-.313.504-1.261.676-2.546 1.324-3.738 1.93-.117-3.266 1.25-6.254 2.13-9.352 1.179-4.18 2.42-8.351 3.69-12.504.942-3.07 1.915-6.136 4.04-8.668.312-.375.546-.812.82-1.218-.293 0-.399.125-.508.246-2.602 3.004-3.867 6.586-4.86 10.39-1.202 4.645-2.8 9.188-4.152 13.793-.578 1.965-1.12 3.957-1.398 5.98-.281 2.024-1.625 2.99-3.277 4.243.062-7.695 2.062-14.883 2.648-22.234a5.039 5.039 0 0 0-.469 1.378c-.722 4.399-1.492 8.786-2.117 13.2-.316 2.203-.7 4.484-.418 6.648.211 1.602-.531 2.13-1.484 2.988-.172-.421-.375-.726-.418-1.05-.426-3.055-.985-6.106-1.188-9.176-.203-3.059-.035-6.14-.058-9.211-.004-.93-.204-1.871-.118-2.793a81.33 81.33 0 0 1 .782-5.902c.53-3.149.86-6.348 2.105-9.332.606-1.446 1.29-2.864 1.914-4.305.188-.426.313-.887.535-1.55-1.656.151-3.101.284-4.742.437-.308-1.856-.68-3.72-.906-5.598a16.934 16.934 0 0 1-.066-3.64c.066-.633.496-1.27.878-1.825.43-.637 1.149-1.117 1.457-1.789.504-1.105 1.184-1.992 2.258-2.504a29.006 29.006 0 0 1 3.297-1.32c.738-.242.875-.68.934-1.39.082-.93.156-1.993.648-2.723 1.555-2.309 3.297-4.485 4.977-6.711.02-.028.113.004.222.011-.023.176-.035.34-.074.504-.879 4.047-1.754 8.102-2.656 12.14-1.008 4.552-2.008 9.099-3.078 13.63-.809 3.43-1.711 6.836-2.567 10.246-.117.48-.23.96-.34 1.441.266-.172.372-.383.442-.61 1.242-4.097 2.336-8.21 3.016-12.468.722-4.523 2.046-8.95 3.086-13.422.851-3.699 1.707-7.398 2.476-11.117.211-1.012.426-1.805 1.617-1.93.211-.023.442-.214.61-.386.882-.907 1.859-1.754 2.582-2.782.816-1.164 1.855-1.62 3.148-1.355 1.137.234 2.242.684 3.32 1.152.196.086.32.817.18 1.102-.586 1.172-1.36 2.262-1.941 3.441-1.63 3.305-3.157 6.664-4.809 9.957-1.242 2.47-2.61 4.871-3.926 7.297.102.063.203.121.305.18.172-.277.36-.547.52-.836.953-1.738 1.898-3.48 2.832-5.227 1.09-2.027 2.23-4.035 3.23-6.105 1.133-2.348 2.117-4.77 3.195-7.145.184-.398.524-.726.793-1.082.23.559.239 1.004.223 1.446-.035 1.07.348 1.785 1.465 2.082.594.156 1.176.476 1.672.843.27.2.531.696.465.989a386.583 386.583 0 0 1-2.141 10.101c-.473 2.067-1.059 4.098-1.598 6.149 2.157-5.317 2.875-11.012 4.375-16.79.551.7.985 1.184 1.356 1.72 1.117 1.632.633 3.468.437 5.187-.285 2.46-.867 4.89-1.328 7.332 1.184-2.945 1.625-6.082 1.957-9.387Zm57.094 44.563c-.34-.586-.602-1.125-.95-1.602-.956-1.32-1.554-2.7-1.55-4.402 0-1.363-.664-2.602-2.035-3.18-1.04-.43-2.125-.758-3.207-1.062-.66-.18-.79-.426-.594-1.11.39-1.386.812-2.8.914-4.226.281-4.07.414-8.149.574-12.227.02-.46-.203-.922-.308-1.387-.09.02-.176.043-.266.063 0 3.07.117 6.144-.035 9.21-.152 3.09-.09 6.25-1.504 9.145-.84-.234-1.176-.765-1.238-1.554-.11-1.559-.684-2.785-2.414-3.024.234-6.863-.477-13.488-2.918-19.844.558 2.422 1.207 4.829 1.71 7.27a42.347 42.347 0 0 1 .747 11.832c-.028.32-.149.668-.336.926-.453.64-.973 1.238-1.469 1.848-.313.378-.637.746-1.113 1.312.082-1.36.215-2.402.183-3.445-.086-2.582-.504-5.075-1.449-7.535-1.285-3.336-2.25-6.797-3.324-10.215-.457-1.434.066-2.707.933-3.813.633-.805 1.504-.074 2.25-.164.594-.07 1.176-.383 1.735-.656.453-.223.828-.688 1.293-.797 2.617-.582 7.523.816 8.742 3.46.71 1.548 1.852 2.74 3.414 3.544 1.95 1.012 2.82 3.398 2.274 5.531-.31 1.207-.438 2.457-.586 3.695-.028.243.242.524.367.786.226-.172.543-.293.648-.524.219-.465.461-.988.461-1.484-.012-2.399 1.582-3.66 3.3-4.852.153-.11.466-.176.59-.097.993.683 2.204 1.226 2.876 2.156 1.422 1.96 2.449 4.156 2.035 6.738a6.312 6.312 0 0 0-.016 1.879c.153.984.422 1.945.645 2.91.105.004.207.016.312.02.051-.09.11-.176.14-.27.075-.23.157-.465.208-.699.418-1.895 1.98-2.434 3.512-1.234.343.265.75.543 1.16.613 1.351.226 2.289.926 2.926 2.125.175.332.543.77.855.797 2.024.172 2.863 1.445 3.324 3.222.368 1.422.578 2.977 2.407 3.457.261.067.492.72.515 1.122.051.66.23 1.078.883 1.37 1.582.715 1.945 2.344 2.387 3.758.27.891-.344 2.055-.063 2.938.399 1.223.238 2.098-.543 3.035-.16.192.004.988.207 1.086 1.176.523 1.387 1.418 1.29 2.563-.032.386.245.8.277 1.207.11 1.472-.5 2.902-.297 4.386.004.028-.043.055-.059.086-.898 1.43-1.793 2.86-2.691 4.293a.78.78 0 0 1-.203.235c-1.77 1.296-3.453 2.75-5.352 3.832-1.324.757-2.945 1-4.433 1.472-.043-.11-.094-.219-.137-.328.12-.21.23-.418.36-.621.402-.652.917-1.254 1.187-1.96.465-1.224.773-2.497 1.132-3.759.055-.191.047-.406.028-.605-.102-.945-.305-1.89-.305-2.836 0-.973.352-1.703 1.61-1.55.535.065 1.109-.196 1.667-.31-.523-.16-.996-.09-1.472-.015-1.758.285-1.863.164-2.207-1.59-.113-.578-.52-1.09-.871-1.789.465-.863.047-1.79-.653-2.68-.246-.316-.601-.695-.597-1.043.004-1.27-.489-2.058-1.782-2.199.051-.43.086-.793.125-1.164.036.055.079.102.118.156l-2.348 2.633c-.383-.578-.898-.992-.848-1.332.34-2.426.786-4.844 1.235-7.258.21-1.148.5-2.281.758-3.418-.114-.02-.227-.047-.333-.07-.746 3.75-1.496 7.496-2.246 11.238l-.27-.031c-.374-1.934-.765-3.86-1.124-5.793-.356-1.926-.746-3.844-2.035-5.418-.192-.234-.414-.527-.68-.61-1.195-.374-3.121.727-3.566 1.91-.196.532-.528 1.384-.86 1.419-1.304.12-1.453 1.004-1.652 1.945-.219.973-.36 1.961-1.375 2.559ZM40.55 425.109c-.082-.082-.16-.16-.246-.242-.852 1.367-1.684.754-2.305.074a7.979 7.979 0 0 1-1.484-2.359c-.274-.676-.328-1.375-1.176-1.664-.211-.07-.387-.594-.375-.902.027-.727.187-1.442.262-2.168.035-.336.09-.711-.024-1.008-.41-1.094-.89-2.168-1.363-3.285 1.113-.07 2.191-.153 3.273-.196 2.774-.109 5.547-.246 8.328-.27 1.145-.007 2.29.274 3.43.391 3.082.32 6.234.332 9.234 1.016 4.024.918 7.95 2.32 11.883 3.602.832.273 1.543.925 2.313 1.398-.035.082-.074.156-.11.238-.953.125-1.898.25-2.851.38.738.046 1.476.038 2.187-.098 1.008-.2 1.711.129 2.368.914 1.91 2.25 3.77 4.55 6.199 6.312 1.965 1.422 3.93 2.79 6.297 3.445 1.941.536 3.87 1.11 5.832 1.54.957.21 1.984.21 2.972.168.778-.032 1.54-.278 2.39-.442-.046.262-.038.379-.089.453-.176.262-.371.512-.562.758-1.594 2.02-3.332 3.934-4.305 6.39-.164.423-.7.786-1.149.989a7.576 7.576 0 0 1-2.093.629c-1.621.23-3.29.219-4.875.578-.985.223-1.387.18-1.578-.867-.2-1.086-.563-1.195-1.496-.598-1.504.961-3.075 1.45-4.872.934-.347-.098-.789.129-1.191.195-1.508.238-3.191.774-4.352-.52-.957-1.066-1.77-.945-2.847-.507-.414.168-.899.215-1.352.215-.62 0-1.27-.243-1.855-.125-.98.195-1.871.398-2.828-.16-.336-.196-.93-.047-1.375.066-.536.133-1.028.433-1.559.574-.812.223-1.695.621-2.2-.555-.073-.168-.448-.183-.624-.34-.344-.308-.63-.671-.961-1-.371-.363-.711-.921-1.145-1.011-.754-.168-1.148-.621-1.215-1.223-.128-1.238-.433-2.351-1.41-3.012 2.739-1.043 5.41-2.054 8.082-3.074-.047-.125-.097-.246-.144-.363-.656.289-1.317.574-1.965.863-2.504 1.102-5.031 2.07-7.805 2.223-.765.043-1.203-.094-1.328-.91-.11-.72-.539-1.024-1.312-1.04-.97-.015-1.93-.257-2.899-.304-1.117-.059-1.316-.535-1.043-1.559.293-1.109.055-1.324-1.031-1.304-1.047.015-1.41-.352-1.469-1.426-.027-.613-.125-1.211-.187-1.813Zm25.277-37.359c-.957-2.059-1.105-4.25-1.238-6.465-.328-5.281-.746-10.562-1.117-15.84-.301-4.242-.637-8.472-.883-12.715-.215-3.644.34-7.23.941-10.82.227-1.375.39-2.765.598-4.265.465.277.773.464 1.074.64 1.172-1.574 2.195-1.789 4-1.094.559.215 1.277.141 1.902.059 1.176-.148 2.34-.398 3.73-.652-.269.574-.386.855-.522 1.129-1.38 2.613-2.766 5.218-3.258 8.199-.72 4.355-1.77 8.644-1.727 13.12.055 5.72-.176 11.438.766 17.106.191 1.16.492 2.313.894 3.41.211.602.219.973-.152 1.508-2.023 2.918-3.367 6.14-3.426 9.711-.062 3.973.125 7.95.262 11.926.023.621.328 1.254.605 1.836.578 1.203 1.223 2.367 1.864 3.578-.762.36-1.403.281-1.79-.566-1.003-2.203-2.156-4.364-2.96-6.64-1.258-3.548-2.223-7.192-3.418-10.763-1.77-5.312-3.817-10.547-5.391-15.91-1.285-4.351-2.395-8.75-4.289-12.883a8.744 8.744 0 0 1-.773-4.304c.132-1.86.355-3.75.847-5.547.809-2.93.98-2.945 4.031-2.703.168.007.332.058.493.09.316 1.648.738 3.25.914 4.875.465 4.359.843 8.738 1.222 13.109.27 3.094.563 6.187.703 9.289.16 3.664 1.004 7.16 2.278 10.566a57.482 57.482 0 0 0 2.066 4.91c.344.711.98 1.29 1.48 1.922.075-.062.153-.132.227-.195-.449-.613-1.047-1.172-1.32-1.86-1.23-3.1-2.871-6.148-3.434-9.378-.972-5.613-1.25-11.344-1.828-17.028-.465-4.609-.918-9.218-1.433-13.824-.11-.988-.641-1.945-.684-2.926-.078-2.02-.016-4.046.113-6.066.055-.812.309-1.66.672-2.39.606-1.223 1.524-2.07 3.074-1.887.34.043.793-.117 1.055-.336.645-.543 1.23-.528 1.883-.051-1.024 5.93-2.14 11.82-1.457 17.863.14 1.242.055 2.512.152 3.762.45 5.598.957 11.18 1.38 16.773.187 2.504.202 5.024.339 7.528.074 1.539.621 2.937 1.535 4.199Zm49.168 40.293c-1.773.422-3.367.8-4.96 1.187-2.122.512-4.177 1.297-6.43 1.165-.778-.043-1.567.304-2.36.449-.957.176-1.914.363-2.879.48-1.039.125-2.129.024-3.105.324-.98.293-1.828.215-2.75-.062-1.89-.563-3.79-1.102-5.692-1.61-3.597-.953-6.43-3.163-8.941-5.726-2.363-2.414-4.395-5.148-6.645-7.68a800.719 800.719 0 0 0-10.523-11.61c-.688-.745-1.629-1.265-2.461-1.874-.5-.363-1.016-.695-1.668-1.133 1.73-.984 3.063-.515 4.297.277 2.414 1.563 4.601 3.415 6.414 5.641.898 1.106 1.812 1.195 3.035.793 3.469-1.144 7.031-1.324 10.633-.805 1.523.22 2.902.774 3.95 1.961 1.171 1.317 2.327 2.653 3.593 4.106.223-.297.465-.707.797-1.02.383-.36.84-.863 1.293-.898 2.086-.164 4.18-.207 6.277-.235.414-.007.887.18 1.238.414 2.977 1.981 5.88 4.083 8.918 5.965 1.735 1.082 3.055 2.356 3.942 4.235.98 2.066 1.691 4.375 4.027 5.656Zm40.41-14.547c.059.027.117.059.184.086.555-1.207 1.18-2.387 1.652-3.625 1.238-3.293 2.649-6.55 3.531-9.941.684-2.625.786-5.422.938-8.153.297-5.36.223-10.687-2.723-15.496-.133-.215-.234-.586-.136-.773.757-1.516 1.398-3.156 3.222-3.77 1.863-.629 2.938-1.972 3.57-3.785.333-.945.848-1.82 1.29-2.73l.492.035 2.742 8.886c-.273-3.289-1.371-6.335-2.633-9.062.313-.719.723-1.246.754-1.8.14-2.184.152-4.38.23-6.567.024-.551.133-1.094.204-1.645.582 1.27.937 2.535 1.242 3.817.512 2.152.93 4.332 1.504 6.464 1.097 4.055 1.297 8.22 1.183 12.333-.125 4.578-.695 9.156-1.39 13.683-.434 2.836-1.149 5.652-2.555 8.258-1.988 3.703-3.027 7.875-5.582 11.305-1.281 1.722-2.371 3.629-4.383 4.671-.898.461-1.781.961-2.672 1.446a24.036 24.036 0 0 1-9.039 2.812c.781-.613 1.453-1.164 2.149-1.675 2.101-1.543 3.703-3.45 4.086-6.098.293-2.05.484-4.125.539-6.195.11-4.461.058-8.918.172-13.375.074-3 .27-5.997.523-8.985.086-1.02.293-2.12.79-2.984.878-1.524 2.015-2.89 3.093-4.395 1.601 2.446 2.535 5.094 2.77 7.864.257 3.011.183 6.07.038 9.097-.199 4.074-.793 8.09-2.406 11.899-1.18 2.777-2.254 5.597-3.379 8.398ZM58.89 314.043c1.144-.266 1.82.203 2.355 1.059.39.617.82 1.214 1.3 1.765.25.281.653.434.985.64.227-.366.594-.714.66-1.109.168-.957.168-1.945.29-2.91.21-1.683.898-2.199 2.535-1.828.324.078.707.504.808.844.184.625.16 1.316.266 1.965.332 1.972.683 3.941 1.027 5.91.238-.106.266-.176.254-.234-.398-2.582-.828-5.16-1.183-7.75-.11-.77.105-1.551.917-1.864.81-.312 1.274.18 1.641.887.594 1.121.75 1.129 1.766.457 1.66.418 2.062 1.648 2.265 3.133.106.785.563 1.527.86 2.293.097-.04.199-.074.293-.11.168-.328.34-.664.62-1.23.192.7.294 1.137.434 1.55.536 1.571.461 1.727-1.043 2.259-2.222.785-4.097 1.945-4.859 4.375-.105.335-.39.703-.695.87-1.16.618-1.575 1.544-1.532 2.829.09 2.738-.285 5.523 1.032 8.113.136.273.074.648.129 1.172-1.973-1.188-3.707-1.332-5.223.402-1.125-.57-2.219-1.215-3.352-.078-.097.098-.34.09-.504.074-2.019-.175-3.207 1.004-3.78 2.676-.466 1.356-.555 2.856-.684 4.3-.106 1.165-.02 2.345-.02 3.384-1.336.148-2.379.265-3.52.394.067.09.008.035-.007-.023-1.348-4.426-3.422-8.508-5.805-12.461-.418-.692-.992-1.508.02-2.293.14-.11.043-.59-.032-.871-.242-.985-.203-1.961.582-2.621 1.157-.973.91-2.14.754-3.352-.03-.254-.09-.61.04-.762.683-.765 1.425-1.488 2.37-2.449 2.754 3.696 5.387 7.23 8.02 10.758-2.523-4.133-5.219-8.137-8.79-11.648l1.274-2.872c1.309.504 1.43-.917 2.239-1.44 2.683 3.32 4.527 7.132 6.324 10.976-1.25-4.055-3.203-7.727-5.813-11.055-.195-.25-.37-.719-.27-.965.442-1.066.962-2.11 1.532-3.117.137-.242.578-.39.895-.418.343-.031.699.172 1.054.184.692.02 1.153.246 1.41.964a135.09 135.09 0 0 0 1.946 5.082c.383.961.847 1.891 1.277 2.832.074-.035.156-.066.23-.097-1.09-2.852-2.183-5.692-3.292-8.59Zm100.66 102.129c1.96-1.574 3.48-3.527 4.633-5.723 1.574-2.98 2.972-6.043 4.492-9.05 1.308-2.594 2.43-5.247 2.922-8.13.316-1.843.636-3.68.925-5.527.278-1.777.262-1.777 1.977-1.98.45-.051.898-.13 1.348-.211l5.047-.938c.78-.144 1.316.008 1.523.93.121.555.418 1.168.824 1.55.988.91 1.516 2 1.758 3.286.293 1.61.73 3.144-.77 4.55-1.332 1.239-1.316 2.36-.328 3.962.97 1.562 1.22 3.265 1.254 5.164-1.07-.098-1.332.562-1.492 1.34-.07.34-.172.675-.273 1.007-.336 1.106-.786 2.082-2.078 2.399-.32.074-.645.437-.82.746-.485.871-.833 1.824-1.356 2.668-1.047 1.687-2.188 3.328-3.461 5.242-1.567-2.977-3.719-2.453-5.953-1.676-.512.184-1.09.192-1.637.278-.035-.086-.07-.164-.106-.25 3.262-2.305 5.57-5.325 6.91-9.059a6.828 6.828 0 0 0-1.093 1.375c-1.649 2.773-3.504 5.367-6.152 7.29-.204.147-.489.292-.72.272-2.472-.195-4.925-.23-7.374.485Zm-156.184 2.43.23-.278c11.157 1.106 21.419 5.055 31.673 9.742-2.29 1.559-4.665 1.852-6.922 1.426-2.547-.48-5.028-1.43-7.442-2.402-3.199-1.281-6.308-2.781-9.46-4.18-.227-.101-.489-.125-.735-.183.098.277.246.421.422.503 2.047.965 4.074 1.97 6.152 2.868 2.465 1.062 4.942 2.125 7.48 3.004 3.313 1.144 6.688 1.398 9.938-.274.695-.355 1.168-.285 1.805.086 2.156 1.277 4.375 2.445 6.515 3.742 1.016.614 1.91 1.438 2.856 2.164-.047.13-.098.262-.137.39-2.14-.14-4.344 0-6.394-.487-3.352-.793-6.602-1.996-9.891-3.047-2.445-.785-4.883-1.602-7.328-2.399-.063-.02-.156.04-.34.098.238.133.383.234.54.293 2.48.906 4.944 1.852 7.444 2.695 5.262 1.77 10.536 3.508 16.223 3.114.316-.024.7.113.965.296 3.512 2.457 7 4.934 10.508 7.403.054.035.16.004.238.004l.188-.282c-1.551-1.218-2.954-2.757-4.692-3.574-2.418-1.129-3.16-3.219-4.117-5.312 1.555-.504 3 .37 3.273 1.992.203 1.191.743 1.902 1.918 2.445 1.028.48 1.785 1.543 2.653 2.36.058.054-.008.218.043.3.109.192.246.38.394.543.621.672 1.278 1.313 1.856 2.024.148.187.062.566.086.86-.317-.032-.68.023-.938-.118a218.694 218.694 0 0 1-4.844-2.719c-.484-.277-.906-.719-1.422-.875a223.564 223.564 0 0 0-7.636-2.156c-2.082-.543-4.203-.93-6.27-1.504a591.29 591.29 0 0 1-12.804-3.738c-5.223-1.578-10.082-3.887-14.29-7.426-1.12-.945-2.296-1.832-3.343-2.852-1.532-1.468-2.942-3.027-4.395-4.546Zm53.867 56.988c.133.039.266.07.399.11.183-.634.328-1.278.55-1.891.649-1.77 1.376-3.508 1.981-5.293 1.242-3.684.66-7.387-.21-11.024-.231-.949-.22-1.594.25-2.375 1.515-2.492 2.995-5.012 4.491-7.515.25-.418.547-.801.973-1.426.09 1.242.172 2.144.215 3.047.062 1.441.32 2.914.105 4.32-.476 3.062-1.254 6.078-1.781 9.14-.195 1.153-.031 2.368-.031 3.56.094.007.183.01.277.015.067-.996.04-2.008.211-2.985.523-2.984 1.168-5.953 1.676-8.937a21.05 21.05 0 0 0 .3-3.934c-.019-1.093-.331-2.175-.453-3.277-.07-.598-.011-1.207-.011-2.16 1.363.633 2.465 1.14 3.566 1.652a.841.841 0 0 1 .086-.074c-.625-.5-1.258-1.008-2.027-1.629.972-.254 1.828-.543 2.703-.676.355-.054.922.106 1.125.367 1.476 1.926 2.625 4.145 2.254 6.555-.332 2.2-1.18 4.375-2.121 6.414-1.785 3.852-4.692 6.977-7.27 10.301-1.726 2.234-3.55 4.39-5.312 6.59a706.207 706.207 0 0 0-4.774 6.058c-1.054 1.344-2.172 2.649-3.097 4.075-1.09 1.687-1.977 3.496-3.004 5.226-.246.414-.688.715-1.035 1.067 1.027-2.258 2-4.446 2.203-6.903.058-.683.058-1.41.308-2.023.938-2.285 2.047-4.504 2.942-6.805.789-2.035 1.336-4.164 2.062-6.226 1.195-3.375 2.45-6.727 3.688-10.09.199-.528.449-1.043.675-1.559.102.012.196.027.297.035.235 1.383.52 2.762.696 4.149.53 4.07-.727 7.789-2.25 11.472-.336.84-.438 1.77-.657 2.649Zm-11.765 7.375c.12.027.25.05.375.078-.137-5.012.613-9.813 2.73-14.36 2.145-4.609 5.91-7.726 9.574-10.976a8.877 8.877 0 0 1-.543 2.246c-1.292 3.313-2.656 6.598-3.91 9.926-.965 2.562-1.75 5.195-2.699 7.762-.855 2.304-1.867 4.507-2.156 7.03-.375 3.208-2.442 5.81-3.82 8.653-.016.028-.125.012-.204.02-.023-.098-.066-.196-.058-.29.203-5.175-.36-10.35.367-15.53.496-3.551.656-7.145.926-10.72.09-1.202.004-2.417.078-3.624.285-4.383 2.707-7.844 5.09-11.262 1.043-1.492 2.547-2.668 3.867-3.961.367-.363.828-.64 1.27-.91 1.101-.676 2.277-1.235 3.308-1.992 1.625-1.196 3.29-1.793 5.324-.774-1.035.469-2.031.918-3.023 1.364.043.109.09.21.133.316 1.23-.469 2.453-.938 3.683-1.41-.664 1.515-1.246 2.883-2.156 3.976-1.102 1.325-2.438 2.473-3.762 3.594-1.3 1.102-2.722 2.05-4.062 3.11-2.957 2.328-4.89 5.402-6.364 8.8-.019.055.055.153-.003-.004 1.714-2.316 3.296-4.886 5.312-7.047 2.016-2.156 4.469-3.906 6.73-5.835l.22.218c-1 1.82-1.993 3.637-2.997 5.453-.05.082-.144.149-.222.211-2.055 1.813-4.211 3.524-6.141 5.47-1.703 1.718-3.207 3.624-4.195 5.917-1.305 3.035-2.45 6.098-2.657 9.418-.109 1.7-.015 3.418-.015 5.133Zm-25.52-11.547.176.09c2.8-2.703 5.648-5.356 8.39-8.117 1.583-1.594 3.317-3.133 3.883-5.477.055-.223.36-.414.582-.559 2.422-1.523 4.848-3.039 7.282-4.543.265-.167.566-.289.855-.43l.23.184c-.238.82-.398 1.68-.718 2.465-1.54 3.75-4.258 6.473-7.625 8.606-1.477.933-2.98 1.828-4.438 2.789-.625.414-1.175.949-1.757 1.43.09.105.175.218.265.324.7-.516 1.38-1.078 2.11-1.551 3.046-1.973 6.238-3.77 8.703-6.492 1.968-2.176 3.453-4.637 3.738-7.657.02-.207.133-.503.293-.597 1.48-.871 2.984-1.711 4.727-2.695-.16.964-.22 1.68-.407 2.359-1.445 5.379-4.261 9.746-9.367 12.336-2.95 1.496-5.969 2.867-8.941 4.324-1.914.941-3.825 1.887-5.688 2.914-.738.406-1.351 1.043-2.02 1.578.079.098.16.207.247.309.812-.551 1.574-1.195 2.445-1.633 4.363-2.195 8.703-4.45 13.145-6.465 4.968-2.254 8.02-6.14 9.976-11.015.508-1.262.621-2.692.84-4.051.09-.578.281-.93.863-1.117 2.328-.743 4.64-1.532 6.965-2.274.524-.168 1.094-.191 1.492-.262-1.89 1.84-3.804 3.7-5.703 5.579-.258.257-.39.64-.582.96-1.246 2.047-2.496 4.09-3.746 6.133-.039.059-.098.102-.144.153-3.387 3.363-7.204 6.086-11.73 7.675-2.669.942-5.345 1.825-7.767 3.317-3.18 1.953-6.277 4.004-8.863 6.754-.973 1.027-2.289 1.75-2.558 3.472-.97-2.39.609-3.921 1.445-5.605.84-1.68 1.937-3.238 3.008-4.996-.508.055-.97.027-1.375.156-.86.277-1.711.602-2.547.961-2.285.98-4.516 2.129-6.863 2.941-1.465.508-3.098.524-4.66.758.359-.437.796-.637 1.218-.86 2.418-1.312 4.863-2.57 7.223-3.976 1.426-.855 2.64-2.066 4.074-2.902 4.91-2.86 9.883-5.629 14.832-8.434.125-.07.29-.07.715-.172-.465.754-.711 1.352-1.125 1.786-2.61 2.707-5.254 5.379-7.895 8.054-.808.817-1.675 1.586-2.48 2.41-.29.313-.485.707-.723 1.063Zm60.356-84.484c.453 1.664.726 3.343 1.37 4.863.856 1.996 1.74 4.094 3.114 5.726 1.207 1.43 3.125 2.254 4.691 3.403a5.455 5.455 0 0 1 1.375 1.449c.856 1.348 1.582 2.777 2.45 4.117.398.625 1 1.121 1.847 2.055-.625.43-1.132.871-1.715 1.16-.957.473-1.933 1.074-2.957 1.211-1.785.242-3.64.344-5.003-1.316-1.207-1.477-2.836-2.235-4.723-2.403-2.957-.27-5.902-.23-8.809.461-.652.156-1.304.313-1.52-.543-.25-1.015-.648-2.035.263-3.015a3.948 3.948 0 0 0 .91-1.747c.21-.96.789-1.457 1.582-1.918 1.855-1.082 2.879-3.687 1.914-5.578-.586-1.136-.406-2.18-.528-3.367.493.074.926.192 1.36.192.531 0 3.09-2.52 3-3.016-.219-1.203.687-1.34 1.379-1.734Zm-13.102 19.699c-.215-.04-.293-.028-.332-.067-2.293-2.394-4.644-4.718-7.89-5.836-.188-.062-.407-.195-.504-.355-.79-1.348-1.66-2.652-2.293-4.074-.672-1.512-1.11-3.13-1.641-4.703-.066-.215-.176-.543-.074-.66.707-.836.246-1.625.015-2.461-.476-1.743-1.21-3.493-1.254-5.254-.058-2.578-1.082-4.715-2.203-6.883-.652-1.262-1.453-2.465-1.957-3.785-.68-1.79-1.156-3.653-1.683-5.493-.09-.312-.02-.683.039-1.019.43-2.484 2.418-3.664 4.238-5.074.121.293.23.511.305.742 2.281 6.902 4.558 13.812 6.84 20.719.808 2.445 1.636 4.89 2.43 7.343 1.199 3.747 2.316 7.528 3.59 11.254.64 1.883 1.55 3.684 2.374 5.606Zm16.442-34.313c.003 1.543.257 2.797-1.043 3.672-.293.2-.454.934-.348 1.34.234.89.523 1.852 1.086 2.55.531.661.351 1.032-.028 1.536-.5.668-1.292 1.27-1.453 2.012-.359 1.64-1.433 2.523-2.683 3.394-.446.305-1 .95-.942 1.356.11.707-.195.937-.636 1.246-.278.195-.625.41-.743.699-.32.8-.742 1.207-1.671.902-.329-.109-.77-.011-1.106.13-.183.073-.414.488-.355.64.507 1.18.414 2.476.75 3.707.68 2.504-.016 3.465-2.262 4.758-.348.199-.738.465-.902.8-.676 1.352-1.27 2.747-1.895 4.122-.11.011-.223.023-.336.03-.207-.847-.547-1.683-.598-2.538a192.306 192.306 0 0 1-.39-8.88c-.031-1.765-.203-3.64.281-5.284.711-2.407 1.711-4.82 3.047-6.942 1.805-2.855 4.348-5.14 7.234-6.918 1.508-.937 3.227-1.53 4.993-2.332Zm-47.473 51.586c-4.488-2.855-9.274-4.14-14.434-4.066.285.234.617.305.942.363 2.199.39 4.441.61 6.582 1.195 3.62.993 6.949 2.536 8.898 6.059.262.469.742.824 1.113 1.234.524.575 1.047 1.164 1.57 1.747-11.823-6.903-24.417-11.262-38-12.75 2.063-.5 4.09-1.149 6.141-1.258 6.266-.348 12.477.164 18.555 1.812 2.23.606 4.414 1.363 6.113 3.059.27.27.602.55.95.64 1.007.258 1.336.997 1.57 1.965Zm136.832-38.699c.129-2.445.328-4.734.348-7.031.023-2.254-.043-4.52-.258-6.758-.211-2.223-.672-4.414-1.02-6.621.953.7 1.461.25 2.113-.207.485-.344 1.227-.527 1.805-.445.274.039.422.882.64 1.359.216.457.376.96.68 1.348.555.718.997 1.394.54 2.351-.102.207 0 .676.171.828 1.266 1.043.918 2.508 1.043 3.844.047.54-.023 1.094-.101 1.625-.055.36-.156.766-.367 1.04-.414.526-.325.8.293.964.18.047.363.086.582.133-.391 1.004-.942 1.886-1.043 2.82-.149 1.371-1.145 2.191-1.688 3.29-.722 1.456-2.027 1.241-3.246 1.355-.14.015-.266.058-.492.105Zm-74.73-76.43c.55-.062.898-.058 1.214-.148.422-.121.996-.211 1.188-.516.36-.562.781-.656 1.191-.32 1.508 1.215 3.281 1.723 5.074 2.344 1.25.43 2.403.554 3.649.437.254-.023.5-.082.531-.086-.68 4.09-1.348 8.145-2.039 12.317-.844-.692-1.672-1.41-2.547-2.067-.719-.535-1.031-1.218-1.234-2.082-.246-1.058-.73-2.066-1.137-3.082-.176-.437-.473-.832-.617-1.273-.574-1.77-1.387-3.344-3.129-4.258-.64-.336-1.254-.734-2.145-1.266ZM58.655 441.72c.848-.34 1.703-1.012 2.453-.903 1.672.239 3.301.528 4.961.004.907.79 1.79.223 2.72.016.476-.106 1.187-.055 1.507.234.953.86 2.012 1.348 3.246 1.09 1.7-.36 3.133-.187 4.43 1.137.465.476.742.765.625 1.441-.075.434-.032 1.121.234 1.328.95.723 1.992 1.332 3.043 1.887.723.379 1.527.602 2.246.879-.16.824-.32 1.617-.43 2.164-2.828-1.328-5.777-2.77-8.78-4.094-1.036-.46-1.86-.996-2.376-2.035-.508-1.035-1.422-1.394-2.547-1.144-.508.113-1 .375-1.515.414-.77.047-1.614.136-2.317-.11-1.886-.644-3.719-1.547-5.648-.148-.149.113-.38.117-.528.16-.453-.797-.882-1.539-1.324-2.32Zm129.656-26.77c-1.757-.058-3.64-.597-4.906 1.238-.117.165-.433.266-.664.274-1.687.047-2.91 1.07-4.168 1.992-.824.598-1.41.453-2.094-.226-.75-.754.008-1.082.32-1.547.934-1.41 1.848-2.836 2.845-4.203.468-.645 1.015-1.528 1.675-1.692 1.82-.45 3.723-.64 5.543.102 1.899.773 3.778 1.597 5.64 2.433.313.14.548.45.852.711-1.406.996-2.64 1.965-3.972 2.781-.45.278-1.172.34-1.7.22-1.101-.259-2.163-.704-3.238-1.079l-.035-.242c1.305-.25 2.606-.504 3.903-.762ZM47.168 369.305c.113-.016.219-.032.332-.055.16.563.305 1.133.484 1.688.32.96.582 1.949 1.016 2.851.695 1.441 1.598 2.785 2.258 4.242.543 1.196 1.117 2.473 1.226 3.754.227 2.52.996 4.89 1.563 7.313.101.445.016.93.016 1.394-.004.45-.137.945.007 1.348.344.941 1.067 1.808 1.192 2.758.27 2.097 1.058 3.918 2.226 5.652-.726-.64-1.437-1.297-1.937-2.086-1.668-2.621-3-5.406-3.899-8.398-.691-2.301-1.336-4.63-2.191-6.871-1.121-2.946-1.77-5.934-1.621-9.09.015-.305-.063-.614-.11-.926a565.48 565.48 0 0 0-.562-3.574Zm59.746 98.41c.09.05.188.101.277.152-.527 4.57-1.062 9.133-1.613 13.895-2.902-3.703-4.914-7.617-6.574-12 .469.238.746.355.996.515 2.113 1.38 4.691.743 5.977-1.457.242-.41.62-.734.937-1.105Zm29.57-44.102c1.496-.492 3.02-.89 4.465-1.496 1.996-.832 3.98-.664 6-.242 1.094.227 2.192.402 3.285.617.528.106 1.051.25 1.692.406-3.024 2.11-3.028 2.063-6.375 2.168-.938.032-1.914.332-2.781.711-.946.41-1.793 1.04-2.672 1.606-.743.48-1.262.375-1.696-.426-.578-1.09-1.226-2.152-1.918-3.344Zm-54.699-37.812c.274-.79.434-1.582.8-2.258.38-.695.974-1.273 1.446-1.918.528-.73.602-1.395-.113-2.137-.438-.453-.742-1.113-.895-1.738-.105-.445-.027-1.21.27-1.422 1.043-.742 1.16-1.71 1.137-2.844-.004-.308.46-.925.664-.902 2.66.246 4.195 1.055 3.261 3.98a56.508 56.508 0 0 1-1.78 4.797c-.403.954-.876 1.922-1.52 2.715-.813.996-1.746 2.004-3.27 1.727Zm72.906 38.828c-.332-.227-.52-.317-.656-.453-1.492-1.496-3.285-2.25-5.402-2.41-1.02-.075-2.012-.454-3.211-.743 2.234-.449 4.262-.699 6.183-1.28 1.922-.583 3.73-1.505 5.555-2.263-.96 2.27-2.773 4.223-2.469 7.149Zm-112.046 4.355c-.016.262-.012.47-.043.672-.22 1.453-.07 1.684 1.336 2.024.578.14 1.183.445 1.734.363 1.73-.246 2.367.77 2.851 2.137.301.836.72 1.636 1.082 2.453-.09.062-.175.125-.27.183-2.562-2.55-5.882-4.152-8.347-6.812-1.156-1.242-2.12-2.664-3.25-4.102.914.114 1.586.196 2.262.274.477 2.484.52 2.531 2.645 2.808ZM24.37 360.54c.953-2.402 1.863-4.687 2.805-7.059.926 1.387 1.058 2 .93 3.872-.149 2.203-1.278 3.222-3.735 3.187Zm72.734 50.79h-4.789c.918-.72 1.95-1.52 2.977-2.329.539.695 1.129 1.45 1.812 2.328Zm-63.273 4.51h-3.453c.516-.628.96-1.198 1.445-1.734.137-.148.418-.273.606-.246.898.141 1.425.883 1.402 1.98Zm55.961-4.089-1.371 1.719c-.313-.63-.586-1.156-.863-1.719h2.234Zm0 0"/></g><path d="M144.57 389.633c-.293-6.274-.699-12.54-.847-18.813-.145-6.277-.032-12.562-.032-18.847-.093 0-.183-.004-.273-.004 0 1.43.035 2.867-.004 4.297-.101 3.175-.414 6.355-.332 9.52.164 6.269.523 12.534.832 18.796.086 1.688.29 3.363.438 5.047.078 0 .144 0 .218.004Zm-6.703-24.68c.403 5.356.735 10.707 1.219 16.059.387 4.258.144 8.492-.254 12.726-.027.309-.039.621.152.961.184-1.355.465-2.699.532-4.062.132-2.68.34-5.383.172-8.051-.356-5.594-.922-11.172-1.43-16.754-.028-.293-.27-.57-.414-.852Zm-48.531 25.578c1.277 3.188 8.8 9.239 14.95 11.723-1.825-1.063-3.7-2.043-5.454-3.215-1.766-1.18-3.496-2.445-5.074-3.863-1.578-1.414-2.945-3.078-4.422-4.645Zm1.16 8.024c2.633 5.054 6.805 8.5 10.89 12.015-1.882-1.898-3.831-3.734-5.624-5.715-1.793-1.984-3.442-4.105-5.266-6.3Zm20.672-7.907c-2.684-4.914-5.875-9.449-9.883-13.378 3.7 4.156 6.809 8.753 9.883 13.378Zm38.984-22.578c.86-5.797 1.813-11.578 1.551-17.468-.52 5.824-1.039 11.648-1.55 17.468Zm-12.304-3.097c-.434-2.668-.828-5.348-1.32-8.008-.227-1.211-.65-2.38-1.22-3.508.333 1.293.712 2.574.977 3.883.45 2.18.813 4.379 1.23 6.562.07.356.235.7.352 1.043 0 .008-.02.028-.02.028Zm-11.254 77.722c7.543 6.106 15.101 12.192 24.133 16.075-8.688-4.395-16.278-10.434-24.133-16.075Zm3.754 10.105c4.132 7.048 8.515 13.907 14.562 19.552-5.55-6.008-10.156-12.707-14.562-19.551Zm4.672 2.938c.894.938 1.785 1.88 2.68 2.813.066-.067.136-.13.202-.192-.898-.945-1.797-1.89-2.695-2.832-.062.07-.129.141-.187.211ZM16.586 391.871c.27.168.535.348.809.5 1.757 1.012 3.484 2.07 5.28 3 4.024 2.09 8.032 4.203 12.137 6.121 3.594 1.676 7.293 3.137 10.977 4.61 4.168 1.671 8.375 3.261 12.578 4.859.54.207 1.145.258 1.774.394-7.414-3.02-14.871-5.812-22.114-9.074-7.234-3.258-14.25-6.988-21.367-10.511-.027.03-.047.07-.074.101Zm14.105-32.187c1.711 2.785 3.329 5.636 5.149 8.343 3.62 5.375 7.344 10.684 11.058 15.989.559.796 1.305 1.464 2.114 2.054-.903-1.203-1.848-2.379-2.7-3.62a5163.617 5163.617 0 0 1-12.394-18.243c-.723-1.062-1.36-2.184-2.094-3.246-.32-.465-.773-.84-1.164-1.258.008.008.031-.02.031-.02Zm14.879 11.55c-.39-.992-.738-2.004-1.175-2.976-2.047-4.543-4.122-9.082-6.192-13.613-.164-.364-.375-.707-.793-.954.387.922.746 1.848 1.153 2.758 1.894 4.23 3.789 8.465 5.718 12.684.336.738.867 1.387 1.309 2.082l-.02.02Zm12.39 40.731c-2.362-.613-4.722-1.227-7.081-1.844-.02.059-.035.121-.05.18 2.358.633 4.71 1.27 7.066 1.898.023-.078.042-.156.066-.234Zm-33.92-27.051c1.944.973 3.89 1.95 5.835 2.922l.09-.184-5.809-2.968a2.123 2.123 0 0 0-.117.23Zm38.452 28.406c-1.265-.406-2.531-.812-3.804-1.215-.024.06-.04.118-.06.18 1.267.41 2.532.817 3.802 1.227.027-.063.043-.125.062-.192Zm24.406-77.742c.29-.414.653-.805.852-1.258 1.645-3.902 3.262-7.812 4.871-11.73.192-.469.262-.988.438-1.438-2.036 4.715-4.079 9.426-6.11 14.137-.039.094-.015.203-.023.305Zm.024.016c-.531.879-1.113 1.726-1.57 2.633-.809 1.586-1.543 3.21-2.305 4.816.078.035.152.078.234.117.61-1.25 1.219-2.504 1.84-3.746.45-.902.942-1.785 1.379-2.687.176-.364.273-.762.398-1.149l.024.016Zm25.125 30.687c.234-1.867.488-3.73.691-5.601.262-2.39.442-4.785.719-7.172.652-5.582 2.676-10.785 4.387-16.082.32-.98.62-1.977.77-3.055-.094.172-.223.332-.29.516-1.207 3.453-2.515 6.875-3.578 10.37a53.285 53.285 0 0 0-2.168 11.575c-.223 2.941-.566 5.879-.855 8.82-.02.196 0 .399 0 .598.109.012.215.02.324.031Zm5.695-49.359c-.23.523-.515 1.023-.672 1.566-1 3.442-2.156 6.852-2.89 10.348-.5 2.348-.39 4.82-.559 7.238l.3.035c.157-1.441.274-2.89.481-4.324.368-2.539.664-5.09 1.223-7.582.531-2.332 1.371-4.598 2.066-6.894.036-.125.02-.27.024-.41 0-.004.027.023.027.023Zm47.895 23.34c-.582 4.093-1.832 7.906-3.434 11.636-.808 1.88-1.363 3.868-1.996 5.817-.137.437-.121.922-.234 1.328 1.304-3.492 2.703-6.957 3.87-10.496.77-2.332 1.22-4.777 1.786-7.176.078-.348.008-.734.008-1.11Zm13.629 14.453c-.121.11-.286.195-.356.336a922.73 922.73 0 0 0-3.015 6.265c.097.043.195.09.285.133 1.02-2.25 2.043-4.504 3.062-6.758Zm0 0"/><path d="M179.242 354.691c.738-2.195 1.477-4.394 2.207-6.586a8.43 8.43 0 0 0-.336-.101c-.613 2.234-1.234 4.473-1.847 6.71l-.024-.023ZM70.48 439.738c3.907-3.465 7.813-6.93 11.946-10.593-1.875.582-10.696 8.226-12.16 10.363.074.074.144.152.214.23Zm-32.625-18.203c9.68 1.899 19.286.27 28.91-.746-9.624.625-19.222 2.34-28.91.746Zm37.688 3.953c-6.195 3.317-12.395 6.637-18.59 9.95.043.074.082.156.125.23 6.192-3.309 12.375-6.621 18.567-9.926-.036-.09-.067-.176-.102-.254Zm-.129 3.602c-.98.215-11.762 8.66-12.766 10.246 4.227-3.39 8.45-6.781 12.766-10.246Zm-14.941.973 6.52-2.915-.095-.218c-2.191.949-4.382 1.906-6.574 2.855.047.098.102.188.149.277Zm7.586-78.75c-.371 1.746-.735 3.492-1.102 5.238.106.02.207.043.316.062.313-1.758.63-3.511.946-5.27-.055-.011-.11-.019-.16-.03Zm91.773 60.23c6.438-9.668 8.93-28.45 4.95-38.258 3.363 13.395 1.077 26.055-4.95 38.258Zm6.984-9.605c2.11-3.11 4.98-22.977 3.34-27.247 0 3.047.18 6.114-.05 9.145-.227 3.043-.793 6.07-1.352 9.074-.559 3.043-1.293 6.05-1.938 9.027Zm-24.238 34.164c7.656 1.03 14.969-.68 22.223-2.82-7.293 1.863-14.621 3.394-22.223 2.82Zm11.652-6.465c1.22-.403 2.47-.723 3.645-1.219 3.836-1.602 7.586-3.375 10.895-5.945.382-.301.75-.61 1-1.13-.31.204-.63.387-.922.61-4.04 3.082-8.602 5.137-13.313 6.93-.46.176-.855.512-1.281.773 0 .008-.024-.02-.024-.02Zm1.754 8.054-11.957.48c4.004.462 7.996.368 11.957-.48ZM26.348 453.57c-.825.125-1.657.203-2.47.387-4.796 1.098-9.394 2.691-13.585 5.324-.293.188-.582.38-.871.582-.047.04-.067.117-.238.434.578-.277.964-.43 1.312-.64 4.488-2.762 9.367-4.485 14.5-5.555.457-.094.887-.364 1.328-.555l.024.023Zm108.004-119.64c.757-4.543 1.644-9.43 2.363-14.336.45-3.059.64-6.149.941-9.23.031-.329-.023-.665-.039-.997a4.461 4.461 0 0 0-.258-.015c-.09.742-.191 1.488-.27 2.23-.355 3.492-.609 6.992-1.081 10.469-.352 2.62-1.047 5.199-1.45 7.816-.218 1.457-.152 2.953-.206 4.063Zm-2.774-24.301c.297 3.492.582 6.98.902 10.473.083.855.258 1.699.633 2.515-.082-.914-.164-1.824-.238-2.738-.223-2.906-.414-5.817-.7-8.715-.046-.512.266-1.3-.628-1.516.004.008.031-.02.031-.02Zm-76.883 35.113c-.91-3.879-3.16-7.59-5.625-11.195 1.934 3.86 3.875 7.719 5.625 11.195Zm68.262 84.883c4.082-1.445 7.61-3.594 9.176-6.707-.074-.074-.149-.152-.23-.227-.122.227-.231.47-.376.688-1.554 2.305-3.738 3.8-6.234 4.933-.809.368-1.547.891-2.316 1.344.003 0-.02-.031-.02-.031Zm.133-7.062c1.05-1.575 2.656-2.852 2.832-4.75-.902 1.515-1.867 3.132-2.832 4.75Zm58.367-32.387c-2.016 5.683-5.652 10.012-9.582 14.148-1.023 1.086-2.008 2.207-3.055 3.363 3.512-1.687 12.73-14.347 12.637-17.511Zm2.933 23.09c-2.03-.192-5.515 2.28-6.261 4.367 1.781-2.004 3.59-3.574 6.262-4.367Zm0 0"/><g clip-path="url(#d)"><path fill="#52599a" fill-opacity=".996" d="M362.14-17.906h-382.5v340.332c3.817-6.88 6.829-18.278 9.032-34.188 3.012-47.91 6.512-83.824 10.496-107.734 3.39-13.754 7.789-26.324 13.195-37.719 3.489-9.207 11.82-21.61 25-37.2C50.605 94.93 60.324 89.704 66.516 89.907c.796 0 2.699.973 5.703 2.922L88.66 104.7c7.262 1.383 13.707.989 19.344-1.183 5.578-2.93 16.492-16.442 32.746-40.532 4.73-4.734 9.996-8.625 15.8-11.672L290.34 14.34c36.824-13.367 60.754-24.113 71.8-32.246Zm0 0"/></g><g clip-path="url(#e)"><path fill="#f3c6ee" d="M355.984-17.906h-4.582c-9.617 8.402-19.656 15.875-30.117 22.414l-12.746 6.219c-15.691 6.652-43.387 15.332-83.094 26.03-4.808 2.048-18.32 12.036-40.527 29.97-3.176.484-5.582-.895-7.219-4.133l-9.32-29.309c-3.938-3.402-8.703-3.48-14.297-.234-7.453 3.84-15.012 11.383-22.676 22.633-3.172 5.007-8.636 20.457-16.39 46.343-3.77 6.79-7.442 10.797-11.016 12.024-8.32 2.183-15.406.797-21.254-4.16-2.508-2.012-7.508-10.563-14.996-25.653-2.172-2.863-4.578-4.84-7.215-5.922-8.387-2.632-16.703.086-24.95 8.149-19.25 18.59-32.612 41.7-40.093 69.332-2.672 10.488-4.578 19.86-5.715 28.11-2.48 38.503-5.859 71.652-10.136 99.448v14.606c5.644-25.887 10.035-63.79 13.172-113.707 1.117-8.078 2.988-17.277 5.613-27.606 11.73-35.27 25.566-58.554 41.5-69.851 7.754-6.418 14.492-8.188 20.215-5.3 2.289 1.355 3.976 2.835 5.062 4.437 7.52 15.183 12.945 24.07 16.277 26.66 8.16 5.726 16.008 7.172 23.543 4.34 4.34-1.477 8.61-6.04 12.797-13.692 7.899-26.305 13.16-41.504 15.793-45.597 7.684-11.055 14.977-18.352 21.887-21.887 3.996-2.406 7.465-2.602 10.402-.586l9.059 28.785c3.394 5.297 6.984 7.207 10.766 5.727l31.382-24.215c1.98-1.57 4.852-3.446 8.618-5.63 40.175-10.812 68.246-19.628 84.214-26.44 15.68-7.215 31.028-17.649 46.043-31.305Zm0 0"/></g></svg>