<svg xmlns="http://www.w3.org/2000/svg" width="1366" height="768" version="1.0" viewBox="0 0 1024.5 576"><defs><clipPath id="a"><path d="M0 .14h1024v575.72H0Zm0 0"/></clipPath><clipPath id="b"><path d="M498 422.566h23v79.75h-23Zm0 0"/></clipPath><clipPath id="c"><path d="M486.07 411H498v15h-11.93Zm0 0"/></clipPath><clipPath id="d"><path d="M487 348.012h53V478h-53Zm0 0"/></clipPath><clipPath id="e"><path d="M523.484 388h39.086v51h-39.086Zm0 0"/></clipPath></defs><g fill="#fff" clip-path="url(#a)"><path d="M0 .14h1024.5v583.5H0Zm0 0"/><path d="M0 .14h1024.5v576H0Zm0 0"/><path d="M0 .14h1024.5v576H0Zm0 0"/></g><g clip-path="url(#b)"><path fill="#040505" d="M501.344 426.547c-.852-.16-1.477-1.14-1.164-2.078l.03-.086.103-.059a1.972 1.972 0 0 1 2.257.305l.024.023.027.051c.649 1.024.309 2.453-.789 3.106-1.129.609-2.59.207-3.246-.985l-.063-.125.008-.203c.028-1.25.567-2.46 1.453-3.371l.348-.363.488.21c1.758.766 3.2 2.223 4.059 3.856.906 1.637 1.371 3.399 1.691 5.129.59 3.508.676 6.918 1.508 10.266 1.524 6.754 4.856 12.882 7.574 19.273 2.668 6.371 4.93 13.27 4.696 20.414-.239 7.102-2.18 13.871-4.45 20.406l-.18-.043c1.227-6.82 2.805-13.597 2.735-20.378-.015-6.766-1.848-13.391-4.21-19.86-2.282-6.508-4.845-12.969-6.856-19.629-1.078-3.316-1.578-6.84-2.348-10.12-.75-3.25-1.957-6.567-4.844-7.946l.836-.152c-.664.609-1.082 1.488-1.199 2.394l-.059-.32c.168.52 1.012.87 1.563.601.566-.23.894-1.136.59-1.754l.058.079c-.293-.383-.933-.57-1.433-.368l.133-.148c-.278.547.02 1.43.71 1.691l-.05.184"/></g><g clip-path="url(#c)"><path fill="#040505" d="M494.7 417.129c-.657-1.063-1.266-2.063-2-2.832a4.93 4.93 0 0 0-2.548-1.438c-.894-.261-2.05-.007-2.687.965-.649.946-.606 2.2-.16 3.215.965 2.02 2.527 3.727 4.304 5.047 1.743 1.387 3.758 2.434 6.09 3.191l-.008.188c-2.476.43-5.152-.297-7.27-1.777-1.062-.75-1.94-1.739-2.667-2.805-.742-1.055-1.277-2.281-1.438-3.586-.175-1.309.028-2.637.63-3.777.3-.567.699-1.133 1.28-1.555a3.626 3.626 0 0 1 2.075-.649c1.472.024 2.797.961 3.531 2.094.758 1.133 1.027 2.418 1.047 3.668l-.18.05"/></g><path fill="#040505" d="M502.914 424.934c-.656-1.735-.98-3.586-1.027-5.454-.012-1.921.11-3.457-.653-4.863-.793-1.46-1.914-3-3.242-4.172-1.347-1.187-2.945-2.062-4.574-2.765l.91-.383c-.473 2.91.82 5.933 1.395 9.113.336 1.55.566 3.215.843 4.711.297 1.477.758 3.008 2.211 3.719l-.05.18c-.844-.055-1.68-.57-2.239-1.247-.562-.683-.96-1.46-1.281-2.25-.582-1.613-.969-3.101-1.383-4.68a49.53 49.53 0 0 1-.988-4.769c-.238-1.629-.348-3.433.277-5.105l.305-.805.61.41c1.542 1.063 2.937 2.27 4.335 3.453 1.375 1.235 2.844 2.286 4.086 3.82.64.77 1.024 1.887 1.067 2.88.039 1.003-.063 1.925-.153 2.796-.152 1.758-.222 3.54-.27 5.383l-.179.028"/><path fill="#040505" d="M499.598 423.082c-.543-.629-.711-1.066-.594-1.566.101-.246.367-.532.39-.801.024-.277-.144-.516-.363-.719-.488-.39-.75-.785-.969-1.203-.136-.473-.187-.969-.05-1.762l.148-.113c.813.059 1.344.488 1.684.996.261.543.386 1.176.176 1.828-.086.32-.145.61-.028.88.094.26.422.515.559.812.176.582-.043 1.226-.762 1.68l-.191-.032m-8.594-4.996c.836.387 1.273.793 1.504 1.387.082.32.039.757.21 1.047.16.296.481.457.825.558.719.168 1.258.438 1.781.742.485.375.922.82 1.38 1.59l-.06.18c-.835.363-1.64.242-2.324-.063-.648-.386-1.207-.937-1.476-1.699-.145-.371-.297-.7-.582-.918-.27-.223-.727-.316-1.032-.558-.539-.524-.75-1.329-.402-2.2l.176-.066"/><g clip-path="url(#d)"><path fill="#040505" d="M527.656 357.82a24.967 24.967 0 0 1 5.192-3.332c.93-.441 1.89-.828 2.879-1.156.937-.266 2.058-.797 3.25-.172.546.32.886.992.87 1.598.008.601-.163 1.144-.382 1.648-.457 1.024-1.09 1.809-1.621 2.68l-3.352 5.148-6.71 10.282c-1.122 1.691-2.243 3.472-3.696 5.039-1.41 1.57-3.352 2.972-5.672 3.238l-1.09.125.278-1.074c2.007-7.778 4.37-15.477 7.226-22.992.676-1.86 1.504-3.797 2.113-5.57.27-.88.403-1.794.176-2.477-.219-.68-.844-1.11-1.648-1.16-1.672-.11-3.418 1.023-4.914 2.19-1.524 1.224-2.895 2.669-4.407 4.032-1.5 1.352-3.207 2.688-5.3 3.203-1.028.285-2.145.278-3.164.118-1.032-.168-2-.465-2.961-.684-.95-.227-1.918-.363-2.836-.211-.914.152-1.75.633-2.39 1.316-1.31 1.387-1.759 3.418-1.435 5.313.32 1.918 1.239 3.71 2.344 5.348a24.805 24.805 0 0 0 3.918 4.449c2.946 2.68 6.332 4.82 9.73 6.941l-.402.574c-2.93-2.14-5.918-4.21-8.957-6.191a211.657 211.657 0 0 0-4.61-2.906c-1.554-.93-3.081-1.946-4.683-2.586-1.597-.66-3.343-.805-4.785-.059-1.472.7-2.156 2.281-1.582 3.762.516 1.504 1.86 2.574 3.438 3.23 1.578.668 3.375 1.141 5.097 1.707 3.47 1.07 6.93 2.13 10.446 2.907 1.746.398 3.484.734 4.996.379.379-.09.73-.211 1.054-.395.352-.187.75-.457 1.274-.684.48-.222 1.367-.441 2.137.024.773.488 1.023 1.242 1.062 1.902.059 1.477-.976 2.551-2.11 2.985a2.956 2.956 0 0 1-1.956.074c-.676-.195-1.258-.719-1.563-1.317-.594-1.195-.472-2.546.36-3.628.937-1.141 2.566-1.22 3.625-.735 1.093.438 1.964 1.395 2.394 2.375.45.988.617 1.988.754 2.902l.777 5.407 3.09 21.593c.496 3.602 1.012 7.192 1.426 10.836.422 3.637.48 7.422-.129 11.075-.57 3.652-1.543 7.168-2.328 10.703a169.935 169.935 0 0 0-2.078 10.676c-1.145 7.16-2.016 14.378-2.371 21.64l-.18-.008c.098-7.277.543-14.566 1.598-21.777a185.85 185.85 0 0 1 1.859-10.785c.723-3.582 1.617-7.102 2.09-10.652 1.082-7.09-.781-14.243-1.73-21.438l-3.172-21.59-.793-5.387c-.239-1.757-.735-3.273-1.961-3.77-.582-.253-1.137-.144-1.391.169-.305.34-.39 1.09-.152 1.512.203.41.625.55 1.175.367.547-.188.961-.735.918-1.125.008-.23-.129-.426-.152-.422-.035-.027-.144-.055-.488.074-.32.129-.676.363-1.125.602a6.22 6.22 0 0 1-1.504.554c-2.082.442-4.024-.03-5.797-.43-3.586-.843-7.098-1.917-10.55-3.081-1.723-.61-3.454-1.078-5.22-1.864-1.73-.761-3.503-2.144-4.136-4.168-.328-.98-.352-2.144.11-3.152.448-1 1.3-1.742 2.222-2.187 1.863-.93 4.074-.645 5.789.117 1.773.758 3.265 1.816 4.805 2.773 1.543.988 3.062 2 4.566 3.024a196.479 196.479 0 0 1 8.863 6.41l-.402.582c-3.371-2.156-6.781-4.348-9.754-7.094a26.817 26.817 0 0 1-3.984-4.578c-1.141-1.66-2.125-3.508-2.489-5.563-.382-2.023.082-4.312 1.543-5.886.711-.785 1.707-1.375 2.77-1.555 1.07-.184 2.137-.043 3.133.152 1.984.442 3.89.98 5.714.422 1.82-.504 3.368-1.75 4.786-3.101 1.433-1.36 2.785-2.86 4.355-4.2.8-.652 1.629-1.296 2.582-1.785.93-.53 2.035-.89 3.227-.847 1.191 0 2.566.812 2.972 2.074.446 1.242.184 2.414-.101 3.43-.676 2.023-1.422 3.77-2.102 5.683-2.719 7.504-5.176 15.106-7.254 22.82l-.816-.945c1.805-.191 3.45-1.293 4.77-2.723 1.347-1.425 2.445-3.117 3.601-4.816l6.957-10.121 3.484-5.055c.551-.855 1.22-1.68 1.633-2.511.43-.836.59-1.86-.11-2.305-.675-.442-1.741-.137-2.694.133-.973.273-1.934.61-2.864 1.008a24.472 24.472 0 0 0-5.258 3.074l-.117-.149"/></g><path fill="#040505" d="M502.781 379.137c1.13-.27 2.09-.14 2.961.297.422.253.785.687 1.238.882.434.215.938.235 1.438.215 1.031-.09 1.977.055 2.91.281.906.32 1.79.743 2.61 1.532l-.043.183c-1.07.375-2.082.36-3.047.207-.953-.246-1.88-.601-2.707-1.226-.43-.29-.856-.543-1.344-.617-.48-.086-1.035.05-1.535.015-.973-.168-1.848-.668-2.543-1.597l.062-.172m13.899 3.535c.465-1.184 1.125-2.02 1.988-2.68.46-.305 1.055-.496 1.46-.863.419-.363.684-.867.9-1.387.39-1.082.913-2.012 1.472-2.93.64-.863 1.34-1.683 2.348-2.421l.168.07c.066 1.266-.297 2.39-.828 3.406-.61.965-1.368 1.852-2.364 2.504-.476.344-.922.692-1.242 1.156-.328.457-.496 1.067-.812 1.555a4.532 4.532 0 0 1-2.977 1.734l-.113-.144m-6.184-8.52c.774.504 1.121 1.016 1.207 1.664 0 .332-.152.747-.07 1.067.07.328.32.574.617.785.625.394 1.031.855 1.402 1.363a4.24 4.24 0 0 1 .516 2.059l-.137.12c-.894-.077-1.52-.507-2-1.03-.398-.578-.691-1.258-.683-2.04-.02-.378-.059-.726-.262-1.007-.195-.285-.602-.488-.836-.778-.379-.605-.414-1.367.066-2.16l.18-.043"/><path fill="#040505" d="M516.371 381.77c-.297-.957-.289-1.665-.02-2.36.18-.34.528-.676.618-1.05.101-.38-.008-.778-.168-1.15-.387-.741-.574-1.429-.735-2.136-.07-.726-.078-1.457.153-2.41l.176-.074c.87.488 1.351 1.25 1.613 2.066.176.824.168 1.711-.188 2.54-.16.413-.293.804-.25 1.206.024.407.27.848.305 1.286-.008.847-.434 1.66-1.328 2.156l-.176-.074"/><g clip-path="url(#e)"><path fill="#040505" d="M556.922 402.352c-.7-2.622-1.688-5.305-3.7-7.04-1-.832-2.19-1.445-3.456-1.699-1.243-.273-2.543-.093-3.328.742-.81.829-1.165 2.149-1.614 3.442a42.386 42.386 0 0 0-1.18 3.879c-.624 2.582-.792 5.293.192 7.633l-1.203-.372c3.832-2.593 7.953-4.734 12.219-6.507 1.082-.407 2.105-.88 3.34-1.168.613-.13 1.273-.211 1.972-.067.691.125 1.379.559 1.774 1.157 1.359 2.386.632 5.097-.711 7.02-1.368 1.983-3.461 3.327-5.653 4.089-2.199.789-4.46 1.168-6.73 1.605-1.149.16-2.336.247-3.52.028-1.164-.188-2.406-.848-2.98-2.012-.59-1.16-.496-2.43-.43-3.559a90.77 90.77 0 0 1 .27-3.433c.234-2.281.539-4.567.937-6.824.402-2.239.844-4.496.094-6.38-.363-.937-.988-1.753-1.793-2.163-.793-.418-1.754-.383-2.64-.043-1.84.699-2.919 2.586-3.243 4.675-.605 4.274.188 8.84 1.793 12.899.809 2.012 1.95 4.066 3.18 5.672.289.297.406.332.703.32.285-.031.648-.219.867-.48.465-.524.594-1.532.5-2.57l.867.855c-1.484-.145-2.86-.137-3.488.683-.336.422-.434.829-.234 1.192.109.234.355.531.59.972.253.45.347 1.133.222 1.641-.254 1.04-.836 1.656-1.234 2.266l-1.325 1.86-2.66 3.702c-1.789 2.457-3.597 4.91-5.468 7.313a182.998 182.998 0 0 1-5.852 7.015l-.148-.117c3.675-4.848 7.07-9.875 10.414-14.945l2.507-3.797 1.266-1.902c.43-.645.852-1.235.922-1.707.039-.239.016-.348-.102-.567-.117-.223-.37-.515-.617-.957a2.557 2.557 0 0 1-.285-1.633 3.215 3.215 0 0 1 .64-1.418c.614-.812 1.622-1.277 2.497-1.41.89-.152 1.73-.11 2.492-.047l.809.055.05.8c.078 1.192.102 2.673-.937 3.95-.52.598-1.223 1.02-2.074 1.125-.848.168-1.891-.34-2.332-.922-1.57-2.004-2.649-4-3.579-6.207-1.804-4.394-2.48-9.187-1.761-13.965.226-1.199.64-2.426 1.37-3.5a6.319 6.319 0 0 1 3.052-2.433c1.23-.473 2.77-.489 4 .226 1.226.68 2.015 1.852 2.433 3.043.883 2.496.215 4.957-.265 7.137a82.518 82.518 0 0 0-1.223 6.703 97.401 97.401 0 0 0-.399 3.383c-.113 1.125-.218 2.25.23 3.18.45.937 1.427 1.496 2.49 1.695 1.066.215 2.198.152 3.312.012 2.226-.356 4.496-.82 6.59-1.618 2.086-.8 4.043-2.046 5.183-3.937.582-.922.973-1.953 1.074-3.008.094-1.016-.086-2.168-.609-2.894-.516-.707-1.492-.766-2.504-.489-.98.278-2.031.805-3.066 1.25-4.145 1.836-8.102 4.059-11.903 6.508l-.836.535-.363-.906c-1.121-2.832-.812-5.89-.11-8.594.356-1.37.81-2.691 1.29-3.992.508-1.25.906-2.7 2.086-3.848 1.215-1.168 3.023-1.257 4.406-.87 1.418.363 2.734 1.074 3.773 2.097 2.067 2.086 2.895 4.91 3.329 7.601l-.18.04"/></g><path fill="#040505" d="M539.23 402.219c.356.972.387 1.715.153 2.46-.16.372-.488.75-.543 1.15-.082.405.05.816.246 1.19.441.747.684 1.461.902 2.18.063.38.133.754.137 1.168.016.188.035.45-.004.61-.016.066-.09.03-.238.109-.156.078-.098.191-.07.176-.008-.008.152.062.16-.008l-.094-.16c.012-.051.164-.074.234-.008.063.05.09.11.106.16.039.086.054.32-.219.43-.36.105-.594-.133-.703-.227a6.597 6.597 0 0 1-.524-.523c-.304-.348-.515-.746-.683-1.16-.246-.852-.313-1.774-.016-2.657.125-.445.219-.867.16-1.289-.054-.41-.328-.863-.39-1.312-.047-.887.34-1.766 1.21-2.348l.176.059m4.583 10.226c.863-.566 1.664-.675 2.44-.511.38.125.778.43 1.18.464.399.059.794-.093 1.149-.308.703-.48 1.344-.774 1.977-1.078a18.13 18.13 0 0 1 2.296-.594l.137.125c-.09 1.031-.797 1.809-1.59 2.266-.836.39-1.773.535-2.675.289-.446-.102-.856-.18-1.274-.094-.406.078-.828.379-1.25.476-.851.118-1.664-.144-2.414-.855l.024-.18m2.953-9.375c-.09.84-.286 1.27-.73 1.555-.247.105-.645.129-.848.32-.211.188-.258.485-.243.79.082.632.008 1.105-.11 1.574-.21.453-.491.875-1.105 1.41l-.18-.008c-.59-.582-.714-1.277-.632-1.914.172-.61.516-1.192 1.125-1.547.293-.184.539-.367.648-.648.118-.27.067-.692.18-1 .3-.563.95-.887 1.781-.684l.114.152"/></svg>