<svg xmlns="http://www.w3.org/2000/svg" width="1366" height="768" version="1.0" viewBox="0 0 1024.5 576"><defs><clipPath id="a"><path d="M0 .14h1024v575.72H0Zm0 0"/></clipPath><clipPath id="b"><path d="M0 406.262h57.703v169.597H0Zm0 0"/></clipPath><clipPath id="c"><path d="M13.41 510.195h56.25v11.25H13.41Zm0 0"/></clipPath></defs><g fill="#fff" clip-path="url(#a)"><path d="M0 .14h1024.5v576H0Zm0 0"/><path d="M0 .14h1024.5v576H0Zm0 0"/></g><g clip-path="url(#b)"><path fill="#587d9f" d="M56.816 410.832c-.25.031-.488.102-.714.215a4.888 4.888 0 0 0-.7.422c-.195.172-.355.383-.543.562-3.289 3.11-6.277 6.41-6.953 11.145a3.002 3.002 0 0 1-.27.644 4.91 4.91 0 0 1-.366-.656c-1.442-3.441-2.704-6.969-4.407-10.309-.425-.847-1.011-1.613-1.422-2.48a4.782 4.782 0 0 1-.418-1.328c-.086-.485.063-.977 0-1.469a2.569 2.569 0 0 0-.562-1.129.431.431 0 0 0-.172-.152.493.493 0 0 0-.223-.055.493.493 0 0 0-.222.055.431.431 0 0 0-.172.152c-.106.145-.2.297-.281.422-.258.438-.418.91-.48 1.414-.11.524-.196 1.05-.321 1.57a16.39 16.39 0 0 1-.95 2.84 10 10 0 0 1-3.898 4.532 7.666 7.666 0 0 0-.851.609v-2.117c.058-1.403.125-2.793.175-4.196 0-.699.051-1.394.07-2.093a5.949 5.949 0 0 0-.05-1.785 1.49 1.49 0 0 0-.613-.868h-.07a.17.17 0 0 0-.067.063 7.042 7.042 0 0 0-.734 3.16 22.993 22.993 0 0 1-.665 3.637 47.396 47.396 0 0 1-8.832 15.785 19.977 19.977 0 0 0-3.761 7.066 20.036 20.036 0 0 0-.703 7.969c.207 1.738.66 3.414 1.355 5.023.7 1.606 1.61 3.082 2.734 4.43.961 1.215 1.395 2.266.313 3.84a12.23 12.23 0 0 0-1.785 4.414 12.19 12.19 0 0 0 .023 4.758 72.146 72.146 0 0 0 1.977 10.258c.59 1.867.781 3.77.57 5.715a13.806 13.806 0 0 1-1.781 5.46c-.172.387-.313.79-.418 1.2-1.234 3.851-2.555 7.648-3.66 11.558-1.551 5.528-3.094 11.051-4.313 16.668a18.456 18.456 0 0 1-2 5.2 18.507 18.507 0 0 1-3.441 4.378c-.3.352-.563.727-.793 1.125a8.83 8.83 0 0 1 1.465-.18c.527 0 1.457.126 1.5.34 1.406 6.876 1.32 13.801.62 20.747-.476 4.855-1.046 9.707-1.523 14.558-.48 4.856-.8 9.93-1.398 14.852-.547 4.62-1.363 9.21-2.012 13.82-.383 2.719-.52 5.473-1.004 8.168-.562 3.117-1.379 6.188-2.086 9.281a232.7 232.7 0 0 0-.511 1.809 14.02 14.02 0 0 0-.852 1.937c-.453 1.7-.75 3.454-1.226 5.102-1.09 3.867-2.258 7.7-3.41 11.55-.34.602-.688 1.208-1.04 1.81-.16.484-.355.96-.5 1.452-.418 1.48-.258 2.43 1.703 2.61 1.594.144 2.051-.406 2.418-1.844.801-3.129 1.805-6.203 2.805-9.273 1.652-5.098 3.832-10.106 4.922-15.297 1.414-6.801 1.984-13.79 2.906-20.688a2943.592 2943.592 0 0 0 3.297-25.008c.484-3.78 1.524-4.25 4.59-2.003.191.18.402.328.64.441.254.074.657.117.801 0a.818.818 0 0 0 .094-.8c-.246-.442-.648-.798-.937-1.223-1.704-2.551-3.7-4.88-3.325-8.364.606-5.636.938-11.304 1.305-17 .324-5.015.281-10.07.852-15.058.484-4.047 1.644-8.024 2.554-12.02.477-2.066 1.621-2.55 3.477-1.523.238.136.613 0 .922 0a3.771 3.771 0 0 0-.137-.934c-.34-.851-1.082-1.613-1.066-2.406.078-2.88 0-5.856.742-8.602.851-3.21 2.426-6.246 3.789-9.347a33.134 33.134 0 0 1 2.922-5.704c2.265-3.214 5.242-6 7.133-9.402 2.144-3.867 3.543-8.191 1.328-12.695a.294.294 0 0 1 .101-.297c2.207-.852 4.48-1.574 6.602-2.55 3.75-1.805 6.816-4.575 8.137-8.5a16.5 16.5 0 0 0 .832-6.102 16.536 16.536 0 0 0-1.438-5.985 15.04 15.04 0 0 1-1.328-5.98 15.042 15.042 0 0 1 1.148-6.012c.727-1.7 1.067-3.86 1.953-5.476.672-1.153 1.454-1.606 2.11-2.778.402-.75 1.21-1.598 1.254-2.465 0-.254-.102-.289-.172-.39a.544.544 0 0 0-.563-.223Zm-15.597 2.773a.9.9 0 0 1 .23-.433.291.291 0 0 1 .211-.117.303.303 0 0 1 .235.066.842.842 0 0 1 .261.313c1.637 4.546 4.16 9.007 4.61 13.668.41 4.25-1.438 8.644-2.309 12.976 0 .106-.281.164-.434.246v.094-.102c-.308-3.832-.433-7.648-.953-11.488-.41-3.02-1.476-5.933-1.91-8.969-.16-2.086-.14-4.171.059-6.254Zm-1.977-2.398c.461 4.82.856 9.664 1.426 14.45.426 3.304 1.496 6.542 1.77 9.859.41 5.097-.715 10.02-3.997 14.074-1.14 1.41-3.168 2.11-4.793 3.129l-.359.297-.05-.086a24.663 24.663 0 0 0 2.554-4.004c.734-1.61 1.3-3.274 1.703-4.996.207-.852.367-1.7.504-2.61.078-.449.172-.902.215-1.36a2.351 2.351 0 0 0-.113-1.089c-.004-.027-.02-.047-.043-.066-.125-.078-.375.543-.418.636-.11.239-.211.485-.305.73-.18.485-.332.981-.504 1.466l-1.047 2.957c-.48 1.176-.82 2.39-1.012 3.644-.148-.086-.113-.304-.054-.476.43-1.707.742-3.442.937-5.192.387-1.37.551-2.77.496-4.191-.273.144-.316.39-.418.664-.547 1.562-.996 3.144-1.5 4.719-.636 1.96-1.27 3.925-1.933 5.87-.336.735-.75 1.427-1.242 2.067-.086-.215-.301-.476-.239-.629a32.415 32.415 0 0 0 2.86-14.168c-.075-2.34.043-4.691-.102-7.023-.289-4.742 2.41-8.496 3.895-12.746a28.573 28.573 0 0 0 1.77-5.926Zm-6.09 7.648c.399-.453.832-.87 1.297-1.257.457-.383 1.125-.653 1.524-1.07-1.235 3.296-2.88 6.503-3.578 9.902-.586 2.87-.067 5.949-.043 8.984 0 1.098.078 2.191.093 3.29a1.067 1.067 0 0 1-.16.519c-.394-.207-.676-1.524-.851-1.957-.29-.723-.57-1.438-.852-2.157a13.932 13.932 0 0 1-1.187-4.457c.07-1.464.285-2.91.64-4.332a18.417 18.417 0 0 1 1.313-4.59 11.393 11.393 0 0 1 1.804-2.882Zm-10.816 31.602a17.272 17.272 0 0 1-.691-2.047 19.032 19.032 0 0 1-.641-5.37 21.4 21.4 0 0 1 .258-2.747c.066-.469.152-.926.254-1.395.093-.39.156-.789.187-1.191 0-.39-.664-.082-.723.137-.433 1.699-1.234 3.398-1.109 5.101a89.56 89.56 0 0 0 1.586 9.035 16.732 16.732 0 0 1-2.242-4.925 16.765 16.765 0 0 1-.563-5.38c.274-6.577 4.34-11.25 7.95-16.257 1.96-2.727 3.043-6.086 4.507-9.164.282-.574.485-1.188.723-1.781-.305 1.492-.543 3.015-.937 4.496-.918 3.5-2 6.96-2.82 10.476a4.766 4.766 0 0 0 .445 3.094c3.406 6.691 3.406 13.234-.57 19.68-.7 1.129-1.528 2.183-2.286 3.277.25-1.281.469-2.547.758-3.848.52-2.34 1.117-4.66 1.601-7.003a1.761 1.761 0 0 0-.117-.852c0-.117-.187-.672-.36-.383a6.92 6.92 0 0 0-.687 1.703c-.418 1.332-.742 2.692-1.261 3.992-.11.313-.18.633-.215.961 0 .172-.176.297-.281.442a1.825 1.825 0 0 1-.125-.477c0-1.351-.145-2.71-.223-4.07a30.076 30.076 0 0 1 .11-5.531c.124-.93.335-1.836.632-2.723.152-.453.332-.898.535-1.332a4.33 4.33 0 0 0 .453-1.105c.059-.34-.57 0-.656.128-.648 1.23-1.652 2.446-1.773 3.739-.356 3.941-.356 7.914-.52 11.898a10.009 10.009 0 0 1-.348 1.7l-.085-.06a5.6 5.6 0 0 0-.332-1.148c-.153-.382-.301-.722-.434-1.07Zm9.98 24.469c-1.703 1.887-3.593 3.64-4.972 5.73a25.773 25.773 0 0 0-2.367 5.77c-2.633 7.652-5.418 15.172-7.727 22.875a36.874 36.874 0 0 0-1.133 5.363c-.238 1.7-.633 3.328-.734 5.047-.094 1.555-.067 3.121-.117 4.684-.094 3.398-.547 6.8-.856 10.156l-.508 5.812c-.265 3.051-.257 6.121-.683 9.172-.332 2.43-.852 4.828-1.184 7.258-.598 4.25-1.14 8.586-1.703 12.887l-.05.433a896.936 896.936 0 0 0-.65 5.559c-.655 5.77-1.105 11.586-1.976 17.328-.117.758-.238 1.523-.347 2.29a14.89 14.89 0 0 0-.344 2.198c-.781 5.168-1.422 10.364-2.707 15.438a77.631 77.631 0 0 1-2.43 7.836 53.214 53.214 0 0 1-.96 2.472c-.18.45-.368.852-.555 1.344-.274.629-.543 1.25-.852 1.867a9.841 9.841 0 0 0-.852 1.785c2.137-10.097 6.032-19.793 7.489-30.011.418-2.938.64-5.907.851-8.864.215-2.957.442-5.753.852-8.601.41-2.848 1.015-5.567 1.328-8.39.512-4.59.726-9.204 1.144-13.802.485-5.34 1.098-10.667 1.559-16.011.195-2.305.066-4.633.211-6.946.117-3.34.402-6.668.852-9.98 1.101-6.637 2.09-13.336 3.816-19.828 1.832-6.918 4.574-13.598 6.672-20.45.543-1.769.273-3.831.117-5.745-.469-5.95-3.047-11.688-1.992-17.797a7.31 7.31 0 0 1 1.601-3.825c.606-.62 2.164-.418 3.297-.402 2.844.055 5.7.352 8.52.274 2-.051 3.066.52 3.015 2.617a21.696 21.696 0 0 1-1.488 7.742 21.717 21.717 0 0 1-4.137 6.715Zm19.594-57.063a18.62 18.62 0 0 0-.426 1.13c-.27.835-.484 1.687-.644 2.55a30.997 30.997 0 0 0-.504 7.36c.039 1.14.144 2.273.316 3.398a30.914 30.914 0 0 0 1.004 3.98c.094.297.18.602.254.899.172.777.29 1.558.36 2.347.34 3.246.289 6.434-2.13 8.914a3.87 3.87 0 0 0-.503.461.94.94 0 0 0 .11-.382 6.752 6.752 0 0 0 .374-1.563c-.18.07-.344.172-.484.305-.196.144-.383.297-.586.441a3.408 3.408 0 0 0-.856.852c-3.023 4.086-6.855 6.875-11.976 7.648a5.684 5.684 0 0 1-1.032 0 6.77 6.77 0 0 0 .852-.512l.18-.125a1787.79 1787.79 0 0 1 8.101-6.12 10.428 10.428 0 0 0 2.344-2.157c.305-.445.555-.93.852-1.344a.986.986 0 0 0 .332-.707 442.7 442.7 0 0 1-9.977 6.989 14.734 14.734 0 0 0 3.223-3.598 14.7 14.7 0 0 0 1.89-4.434c.055-.285.157-.547.305-.793.234-.257.496-.48.785-.672a5.03 5.03 0 0 0 1.442-2.125c.707-1.699 1.445-3.398 2.058-5.175a32.844 32.844 0 0 0 1.594-7.301c.203-1.961-.059-4.027.469-5.95a13.863 13.863 0 0 1 1.203-2.89c.465-.848 1.097-1.633 1.558-2.488.043.289-.343.797-.453 1.062Zm0 0"/></g><g clip-path="url(#c)"><path d="M69.543 515.613c-.012-.011-.027-.02-.043-.031a45.094 45.094 0 0 1-6.86-5.102c-.296-.27-1.292.141-.976.43a46.215 46.215 0 0 0 6.063 4.63 646.511 646.511 0 0 0-23.512-.509c-5.606-.316-11.211-.574-16.824-.64-3.875-.047-7.746 0-11.618.164-.308.011-1.144.496-.445.468 6.375-.27 12.746-.191 19.113.051a608.87 608.87 0 0 0-8.02.145c-3.96.093-7.913.226-11.87.398-.309.012-1.145.496-.446.469 9.747-.418 19.5-.613 29.254-.586 4.149.23 8.297.496 12.446.746 3.097.184 6.195.356 9.293.5-.832.348-1.641.758-2.434 1.23-1.668.997-3.238 2.145-5.105 2.747-.313.097-.434.297-.395.445.04.148.234.246.55.144a54.743 54.743 0 0 0 11.704-5.277.45.45 0 0 0 .16-.16c.07-.086.074-.176-.035-.262Zm-15.633.004 1.844.035c3.805.086 7.61.207 11.414.356-.305.09-.61.187-.91.293a768.85 768.85 0 0 1-12.348-.684Zm8.746 3.14c1.278-.8 2.594-1.46 3.989-1.944l.097.003a52.605 52.605 0 0 1-4.355 2.11c.09-.055.18-.114.27-.168Zm0 0"/></g><path fill="#8b93db" d="M82.888 513.772c.144 0 .25.039.312.11.063.062.094.171.094.327 0 .168-.031.282-.094.344-.062.063-.168.094-.312.094h-.328l.171 5.906h.344c.145 0 .25.04.313.11.062.062.093.171.093.328 0 .156-.03.273-.093.343-.063.063-.168.094-.313.094H81.06c-.149 0-.25-.031-.313-.094-.062-.07-.094-.187-.094-.343 0-.157.032-.266.094-.329.063-.07.164-.109.313-.109h.718l-.156-5.281-1.312 3.672c-.055.156-.125.265-.22.328a.666.666 0 0 1-.374.094.666.666 0 0 1-.375-.094c-.086-.063-.156-.172-.219-.328l-1.312-3.672-.141 5.281h.719c.144 0 .25.04.312.11.063.062.094.171.094.328 0 .156-.031.273-.094.343-.062.063-.168.094-.312.094h-2.032c-.148 0-.25-.031-.312-.094-.063-.07-.094-.187-.094-.343 0-.157.031-.266.094-.329.062-.07.164-.109.312-.109h.36l.156-5.906h-.312c-.149 0-.25-.031-.313-.094-.062-.062-.094-.176-.094-.344 0-.156.032-.265.094-.328.063-.07.164-.11.313-.11h1.359c.101 0 .18.024.234.063a.3.3 0 0 1 .14.157l1.423 3.921 1.437-3.921c.04-.145.164-.22.375-.22Zm7.974 1.703c.144 0 .25.04.312.11.063.062.094.171.094.327 0 .157-.031.274-.094.344-.062.063-.168.094-.312.094h-.407l-2.625 5.406c-.281.57-.558 1.02-.828 1.344a2.57 2.57 0 0 1-.89.719c-.336.156-.743.238-1.22.25-.148.008-.261-.028-.343-.11-.086-.086-.125-.226-.125-.422 0-.28.113-.43.344-.437.406-.023.726-.09.969-.203.25-.117.472-.32.671-.61.207-.28.461-.718.766-1.312l-2.36-4.625h-.406c-.148 0-.25-.031-.312-.094-.063-.07-.094-.187-.094-.344 0-.156.031-.265.094-.328.062-.07.164-.109.312-.109h2.282c.144 0 .25.04.312.11.063.062.094.171.094.327 0 .157-.031.274-.094.344-.062.063-.168.094-.312.094h-.828l1.812 3.625 1.734-3.625h-.578c-.148 0-.25-.031-.312-.094-.063-.07-.094-.187-.094-.344 0-.156.031-.265.094-.328.062-.07.164-.109.312-.109Zm14.057 0c.144 0 .25.04.312.11.063.062.094.171.094.327v5.891c0 .75-.172 1.313-.516 1.688-.336.382-.867.578-1.593.578-.368 0-.758-.07-1.172-.203a5.264 5.264 0 0 1-1.11-.516c-.148-.086-.218-.2-.218-.344a.62.62 0 0 1 .093-.281c.102-.2.227-.297.375-.297.07 0 .133.02.188.063.3.195.61.351.922.468.32.114.629.172.922.172.414 0 .707-.117.875-.344.175-.23.265-.59.265-1.078v-5.359h-2.734c-.149 0-.25-.031-.313-.094-.062-.07-.093-.187-.093-.344 0-.156.03-.265.093-.328.063-.07.164-.109.313-.109Zm-.22-2.828c.24 0 .4.031.485.094.094.062.14.168.14.312v.844c0 .156-.046.265-.14.328-.086.062-.246.094-.484.094-.23 0-.39-.032-.484-.094-.086-.063-.125-.172-.125-.328v-.844c0-.144.039-.25.125-.312.093-.063.253-.094.484-.094Zm6.662 2.687a3.14 3.14 0 0 1 1.594.407 2.75 2.75 0 0 1 1.11 1.109c.269.469.406 1 .406 1.594 0 .605-.137 1.148-.407 1.625-.261.468-.632.84-1.109 1.11-.469.257-1 .39-1.594.39a3.297 3.297 0 0 1-1.593-.39c-.47-.27-.84-.642-1.11-1.11-.273-.477-.406-1.02-.406-1.625 0-.594.133-1.125.406-1.594.27-.477.64-.848 1.11-1.11a3.182 3.182 0 0 1 1.593-.406Zm0 .953c-.418 0-.78.094-1.093.282-.313.18-.559.433-.735.765a2.38 2.38 0 0 0-.25 1.11c0 .43.082.808.25 1.14.176.325.422.578.735.766.312.18.675.266 1.093.266.414 0 .782-.086 1.094-.266.32-.188.566-.441.734-.766.176-.332.266-.71.266-1.14 0-.414-.09-.785-.266-1.11a1.782 1.782 0 0 0-.734-.765 2.091 2.091 0 0 0-1.094-.282Zm9.989-.812c.145 0 .25.04.313.11.063.062.094.171.094.327v4.641h.531c.145 0 .25.04.313.11.062.062.094.171.094.328 0 .156-.032.273-.094.343-.063.063-.168.094-.313.094h-1.03c-.15 0-.25-.031-.313-.094-.063-.062-.094-.175-.094-.343v-.782c-.281.45-.617.79-1 1.016a2.318 2.318 0 0 1-1.219.344c-.387 0-.726-.086-1.016-.25a1.746 1.746 0 0 1-.671-.735c-.149-.32-.22-.691-.22-1.109v-3.125h-.53c-.149 0-.25-.031-.313-.094-.062-.07-.094-.187-.094-.344 0-.156.032-.265.094-.328.063-.07.164-.109.313-.109h1.078c.144 0 .25.04.312.11.063.062.094.171.094.327v3.454c0 .386.086.695.266.921.175.22.437.329.78.329.364 0 .704-.102 1.016-.313a2.18 2.18 0 0 0 .766-.86c.188-.374.281-.788.281-1.25v-1.843h-.906c-.148 0-.25-.031-.312-.094-.063-.07-.094-.187-.094-.344 0-.156.031-.265.094-.328.062-.07.164-.109.312-.109Zm7.818-.141c.332 0 .645.086.938.25.164.106.25.243.25.407a.93.93 0 0 1-.047.265c-.094.25-.219.375-.375.375a.326.326 0 0 1-.187-.062 1.398 1.398 0 0 0-.672-.172c-.387 0-.778.137-1.172.406a3.36 3.36 0 0 0-.969 1.078 2.88 2.88 0 0 0-.375 1.422v1.25h2.172c.144 0 .25.04.312.11.063.062.094.171.094.328 0 .156-.031.273-.094.343-.062.063-.168.094-.312.094h-4.14c-.15 0-.25-.031-.313-.094-.063-.07-.094-.187-.094-.343 0-.157.031-.266.094-.329.062-.07.164-.109.312-.109h1v-4.203h-.812c-.149 0-.25-.031-.313-.094-.062-.07-.093-.187-.093-.344 0-.156.03-.265.093-.328.063-.07.164-.109.313-.109h1.312c.145 0 .25.04.313.11.062.062.094.171.094.327v1.297c.207-.375.457-.703.75-.984.289-.29.601-.508.937-.656.332-.157.66-.235.984-.235Zm6.662 0c.394 0 .734.086 1.015.25.29.168.516.414.672.735.157.312.235.683.235 1.11v3.124h.515c.145 0 .25.04.313.11.062.062.094.171.094.328 0 .156-.032.273-.094.343-.063.063-.168.094-.313.094h-2.078c-.148 0-.25-.031-.312-.094-.063-.07-.094-.187-.094-.343 0-.157.031-.266.094-.329.062-.07.164-.109.312-.109h.594v-3.031c0-.375-.09-.672-.266-.89-.18-.227-.437-.345-.78-.345-.368 0-.712.106-1.032.313-.313.21-.563.5-.75.875a2.67 2.67 0 0 0-.281 1.234v1.844h.593c.145 0 .25.04.313.11.062.062.094.171.094.328 0 .156-.032.273-.094.343-.063.063-.168.094-.313.094h-2.093c-.149 0-.25-.031-.313-.094-.062-.07-.094-.187-.094-.343 0-.157.032-.266.094-.329.063-.07.164-.109.313-.109h.53v-4.203h-.655c-.149 0-.25-.031-.313-.094-.062-.07-.094-.187-.094-.344 0-.156.032-.265.094-.328.063-.07.164-.109.313-.109h1.156c.144 0 .25.04.312.11.063.062.094.171.094.327v.766c.281-.437.61-.77.984-1a2.393 2.393 0 0 1 1.235-.344Zm7.24 0c.624 0 1.156.125 1.593.375.438.25.774.602 1.016 1.047.238.438.375.95.406 1.531 0 .149-.031.25-.094.313-.062.062-.168.094-.312.094h-4.672c.031.636.223 1.12.578 1.453.352.324.848.484 1.484.484.395 0 .786-.047 1.172-.14a4.208 4.208 0 0 0 1.016-.407.43.43 0 0 1 .203-.062c.156 0 .281.117.375.344.031.093.047.18.047.25 0 .168-.094.296-.281.39a5.208 5.208 0 0 1-1.172.406 6.15 6.15 0 0 1-1.36.157c-.648 0-1.203-.125-1.672-.375a2.47 2.47 0 0 1-1.046-1.078c-.243-.47-.36-1.024-.36-1.672 0-.614.13-1.157.39-1.625a2.89 2.89 0 0 1 1.095-1.094c.468-.258 1-.39 1.593-.39Zm0 .938c-.532 0-.97.137-1.313.406-.344.262-.57.633-.672 1.11h3.937c-.093-.5-.304-.876-.625-1.126-.324-.257-.765-.39-1.328-.39Zm11.083-.797c.144 0 .25.04.312.11.063.062.094.171.094.327 0 .157-.031.274-.094.344-.062.063-.168.094-.312.094h-.407l-2.625 5.406c-.28.57-.558 1.02-.828 1.344a2.57 2.57 0 0 1-.89.719c-.336.156-.743.238-1.22.25-.148.008-.26-.028-.343-.11-.086-.086-.125-.226-.125-.422 0-.28.113-.43.344-.437.406-.023.726-.09.969-.203.25-.117.472-.32.671-.61.208-.28.461-.718.766-1.312l-2.36-4.625h-.406c-.148 0-.25-.031-.312-.094-.063-.07-.094-.187-.094-.344 0-.156.031-.265.094-.328.062-.07.164-.109.312-.109h2.282c.144 0 .25.04.312.11.063.062.094.171.094.327 0 .157-.031.274-.094.344-.062.063-.168.094-.312.094h-.828l1.812 3.625 1.734-3.625h-.578c-.148 0-.25-.031-.312-.094-.063-.07-.094-.187-.094-.344 0-.156.031-.265.094-.328.062-.07.164-.109.312-.109Zm0 0"/></svg>