<svg xmlns="http://www.w3.org/2000/svg" width="1024" height="768" version="1.0" viewBox="0 0 768 576"><defs><clipPath id="a"><path d="M29 248h33v197.496H29Zm0 0"/></clipPath><clipPath id="b"><path d="M2.395 235h110.25v166H2.395Zm0 0"/></clipPath><clipPath id="c"><path d="M0 0h269.719v206.25H0Zm0 0"/></clipPath><clipPath id="d"><path d="M519 390h249v185.992H519Zm0 0"/></clipPath><clipPath id="e"><path d="M473.527 350.254H768v225.738H473.527Zm0 0"/></clipPath></defs><path fill="#fff" d="M-76.8-57.6h921.6v691.2H-76.8z"/><path fill="#fff" d="M-76.8-57.6h921.6v691.2H-76.8z"/><path fill="#fff" d="M-76.8-57.6h921.6v691.2H-76.8z"/><path fill="#fff" d="M433.93 308.402c-2.93-7.851 1.52-11.59 2.343-17.367.829-5.781 9.418-28.504 33.176-34.3 23.758-5.798 36.461-4.965 41.38 7.445 4.921 12.406 4.5 31-6.15 36.37-10.648 5.372-42.902 17.665-48.34 19.41-11.472 3.724-20.241-5.745-22.41-11.558Zm0 0"/><path fill="#010101" d="M67.879 249.64c-4.207.41-8.156-1.64-10.977-4.671-3.125-3.489-4.46-7.953-4.304-12.52.152-4.469 1.793-8.726 4-12.523 2.101-3.594 4.613-6.828 7.945-9.29 3.387-2.566 7.281-4.312 11.078-6.16 1.332-.617 5.332-2.667 5.383.153.05 1.027-.254 2.156-.36 3.184-.101 1.386-.101 2.769-.152 4.207 0 1.437 0 2.875-.101 4.312-.106 1.387-.36 2.824-.516 4.207-.305 1.953-.563 3.852-.871 5.852-.254 1.644-.461 3.285-.77 4.925-.562 2.926-1.484 5.903-2.613 8.676-.922 2.36-1.898 4.774-3.539 6.824-1.434 1.848-3.332 2.926-5.691 3.032-.77 0-1.489-.055-2.258-.106-.77-.05-.77 1.078 0 1.18 1.898.258 3.797.156 5.59-.563 2.308-.976 3.847-3.234 5.027-5.39 2.102-3.95 3.59-8.313 4.512-12.676.308-1.387.46-2.77.718-4.106.665-4.515 1.641-9.085 1.743-13.703.05-2.925.05-5.8.46-8.726.102-.922.157-1.95-.46-2.77-.563-.77-1.54-.925-2.41-.82-2.41.254-4.72 1.691-6.872 2.719-2 .976-4.101 2-6 3.234-3.793 2.36-7.023 5.438-9.488 9.238-2.41 3.696-4.46 7.801-5.125 12.215-.82 4.774-.156 9.906 2.461 14.063 2.309 3.644 6.05 6.62 10.461 7.34 1.023.152 2.152.253 3.18.101.718-.308.718-1.539-.051-1.437Zm0 0"/><path fill="#010101" d="m80.34 224.902 8.765-10.93c.618-.824 1.336-1.695 1.95-2.464.101-.102.257-.36.41-.309.41.156.41 1.696.46 1.95.157 1.335.157 2.671.106 4.003-.258 5.594-2.258 10.934-4.617 15.961-1.23 2.567-2.562 4.98-3.793 7.442-1.027 1.953-1.95 4.054-3.64 5.543-3.387 3.132-8.31 3.8-12.77 3.39-.77-.054-.77 1.075 0 1.18 4.203.41 8.668-.258 12.203-2.668 2-1.387 3.281-3.234 4.41-5.39 1.387-2.669 2.82-5.235 4.156-7.958 2.614-5.336 4.766-10.93 5.176-16.882.106-1.489.055-3.028-.05-4.516-.102-.977-.102-2.465-1.024-3.133-1.23-.77-2.102.82-2.668 1.54-3.281 4.16-6.562 8.214-9.894 12.32-.516.664.355 1.539.82.921Zm0 0"/><path fill="#010101" d="M82.492 204.938c.82-.72 2.258-1.848 3.332-1.54.668.153.977 1.079 1.18 1.747.566 2.359.258 4.976-.102 7.34-.101.87-.308 1.792-.46 2.667-.157.77.972 1.028 1.18.309.46-2.313.82-4.672.87-7.031.051-1.899.102-5.543-2.258-6.16-1.64-.461-3.332.87-4.511 1.847-.614.461.207 1.281.77.82Zm-.461 73.855c5.024-2.207 10.203-3.953 15.535-5.184 1.336-.359 2.668-.617 4-.875.618-.101 1.286-.254 1.848-.359.613-.102 1.488-.41 2 .055.871.715.871 2.36.77 3.336-.157 1.18-.72 2.257-1.332 3.23-1.286 2.004-3.13 3.695-4.977 5.184a41.54 41.54 0 0 1-6.152 4.105c-2.207 1.184-4.461 2.156-6.82 2.875-2.36.77-5.028 1.387-7.231-.152-1.742-1.235-2.77-3.235-3.742-5.031-1.23-2.258-2.36-4.672-1.489-7.29.77-2.308 2.614-4.105 4.309-5.644a36.149 36.149 0 0 1 5.844-4.106c4.152-2.308 8.77-3.746 13.488-4.105 1.074-.05 2.41-.309 3.484.258.926.46 1.438 1.383 1.696 2.308.562 2.36-.926 4.618-2.258 6.414a54.975 54.975 0 0 1-10.82 10.727c-1.95 1.438-4.051 2.875-6.461 3.336-2.153.41-4.461 0-6.36-1.078-.972-.512-1.793-1.23-2.562-2-.512-.567-1.332.308-.82.82a10.119 10.119 0 0 0 6.101 3.387c2.563.465 4.973-.05 7.23-1.23 2.461-1.286 4.72-3.13 6.82-4.977 2.153-1.848 4.153-3.953 6-6.059 1.692-2 3.641-4.207 4.255-6.824.465-2.004-.051-4.465-1.895-5.7-1.027-.718-2.308-.718-3.539-.612-1.332.05-2.617.253-3.848.41a37.013 37.013 0 0 0-7.64 2.207c-2.41 1.027-4.664 2.308-6.82 3.797-2.102 1.488-4.153 3.234-5.692 5.39-1.64 2.153-2.41 4.668-1.691 7.336.36 1.336 1.027 2.617 1.691 3.852.567 1.027 1.18 2.156 1.848 3.129 1.433 1.949 3.332 3.386 5.894 3.543 2.72.05 5.59-1.079 8.051-2.157 4.926-2.105 9.797-5.132 13.438-9.136 1.691-1.848 3.23-4.157 3.28-6.774.052-1.078-.151-2.465-.921-3.336-.871-.976-2.106-.82-3.23-.566-6 1.027-11.899 2.723-17.59 4.93a48.136 48.136 0 0 0-4.153 1.742c-.82.105-.207 1.183.461.824Zm0 0"/><g clip-path="url(#a)"><path fill="#010101" d="M38.441 444.41c-3.074-11.289-5.23-22.785-6.511-34.336-1.64-14.523-1.844-29.203-.563-43.676 1.18-13.035 3.59-25.968 6.36-38.695 2.359-11.187 5.023-22.324 8.152-33.308a426.512 426.512 0 0 1 13.59-39.98c.718-1.798 1.433-3.595 2.152-5.392.309-.718-.871-.972-1.18-.308-5.484 13.398-10.254 27.101-14.46 41.008-3.333 11.086-6.102 22.222-8.614 33.464-2.77 12.727-5.387 25.56-6.82 38.493-1.64 14.523-1.692 29.148-.36 43.62 1.079 12.216 3.18 24.329 6.153 36.184.308 1.079.566 2.258.87 3.336.31.618 1.388.36 1.231-.41Zm0 0"/></g><path fill="#010101" d="M30.598 391.652c3.949-15.55 8.203-31 12.87-46.293 2.204-7.187 4.41-14.37 6.872-21.453 2.308-6.418 5.078-12.68 8.719-18.375 4.511-7.133 10.152-13.445 16.664-18.785.566-.46-.203-1.332-.82-.82a77.644 77.644 0 0 0-15.231 16.472c-4 5.801-7.074 12.063-9.59 18.684-2.562 6.723-4.613 13.652-6.766 20.527-2.464 7.957-4.875 15.961-7.078 23.97-2.41 8.57-4.668 17.14-6.87 25.765-.102.719 1.023 1.078 1.23.308Zm0 0"/><g clip-path="url(#b)"><path fill="#010101" d="M29.777 400.016c-2.41-10.829-6.359-21.145-10.101-31.512-3.742-10.266-7.387-20.684-9.23-31.563-2-11.906-1.028-23.968-.153-35.925.46-6.16.973-12.371 1.535-18.528.567-6.058 1.336-12.062 1.95-18.168.566-5.648.921-11.445-.051-17.093-.82-4.465-2.512-10.778-7.692-11.801-1.027-.258-2.152-.106-3.18.304-.257.106-.46.31-.41.567.258 2.41 1.18 4.617 2.203 6.773 1.18 2.364 2.258 4.672 3.387 6.98 2.309 4.723 4.563 9.446 6.871 14.165 4.614 9.547 9.23 18.992 13.844 28.535 4.617 9.496 9.23 18.941 13.797 28.434 3.793 7.906 6.305 16.476 6.973 25.199.359 4.105.257 8.21-.102 12.265-.207 2.567-.461 5.133-1.027 7.649-.563 2.617-1.434 5.133-2.41 7.648A58.766 58.766 0 0 1 43.21 380a66.047 66.047 0 0 1-1.793 3.234c-.461.77-1.18 2.36-2 2.72-1.23.46-1.742-1.692-1.742-2.466-.055-1.23.304-2.41.715-3.539.82-2.207 1.847-4.312 2.82-6.469 1.898-4.257 3.95-8.57 6.258-12.675 3.949-7.082 8.87-13.602 14.664-19.297 12.512-12.317 28.512-20.633 45.691-24.274 1.383-.308 2.82-.566 4.254-.824.567-.101.516-.973 0-1.18-4.922-1.23-8.715 4.157-11.484 7.391-3.383 3.953-6.719 7.902-9.95 11.957-6.511 8.11-12.972 16.32-20.152 23.867-4.05 4.207-8.308 8.262-12.87 11.907-.563.46.206 1.28.82.82 7.898-6.313 14.82-13.703 21.382-21.402 6.516-7.75 12.719-15.856 19.281-23.555a161.16 161.16 0 0 1 5.54-6.313c1.847-1.953 4.308-4.21 7.23-3.543v-1.18c-7.281 1.231-14.36 3.184-21.18 6.005-9.074 3.746-17.484 8.98-24.922 15.398-6.152 5.336-11.742 11.547-16.152 18.477-2.664 4.105-4.922 8.52-6.973 12.878-1.078 2.262-2.101 4.57-3.128 6.829-.922 2.105-2.102 4.207-2.563 6.464-.41 1.797-.41 4.211 1.23 5.442 1.844 1.387 3.282-.977 4.102-2.309 2.36-3.851 4.309-8.058 5.848-12.316.715-1.902 1.383-3.953 1.742-5.957.613-3.281.973-6.723 1.18-10.059.562-9.289-.77-18.73-3.848-27.558-1.383-3.852-3.18-7.598-4.973-11.293-2.36-4.926-4.77-9.801-7.18-14.727-4.769-9.906-9.59-19.71-14.359-29.613-4.765-9.906-9.586-19.711-14.355-29.613-1.078-2.313-2.309-4.622-2.461-7.188-.106.156-.309.41-.41.566 2.41-1.027 5.023.36 6.46 2.36 1.536 2.156 2.255 4.875 2.77 7.441 1.176 5.543.871 11.344.305 16.938-.563 5.953-1.332 11.855-1.895 17.758a1033.775 1033.775 0 0 0-1.539 18.015c-.87 11.75-1.898 23.656-.308 35.309 1.488 10.625 4.87 20.836 8.511 31 3.641 10.16 7.59 20.219 10.258 30.691.36 1.332.613 2.617.922 3.95-.152 1.027.973.667.82-.051Zm0 0"/></g><path fill="#777cbb" d="M30.441 92.977c2.04 5.472 2.118 9.324 1.211 12.632-.285 1.028-1.394 4.676-5.715 8.817-6.027 5.777-17.542 11.793-26.218 10.543v44.273c10.8-.652 23.898-4.59 34.648-11.914 4.946-3.363 17.028-11.586 21.371-26.473 2.637-9.039 1.52-17.425.52-24.91-.883-6.586-1.785-7.687-5.715-22.484-4.227-15.941-6.336-24.031-6.059-29.586.172-3.57.793-16.082 9.703-26.3 8.383-9.622 19.458-11.86 29.282-13.84 18.433-3.727 33.91-.047 44.527 2.593 11.129 2.766 8.996 3.727 29.8 10.211 23.481 7.316 31.563 7.766 38.634 7.09 6.949-.66 15.843-1.645 22.691-8.48 6.016-6.008 7.399-13.481 8.313-18.86 0 0 .41-2.41.558-6.285H-.273v57.59c2.378 2.34 5.746 5.687 10.625 10.46 11.523 11.286 16.812 16.137 20.09 24.923Zm0 0"/><g clip-path="url(#c)"><path fill="#caaacd" d="M57.29 197.168c18.89-6.711 31.815-16.512 36.382-27.594.484-1.18 4.738-11.941 4.46-26.418-.1-5.398-1.046-13.363-10.933-39.605-2.14-5.676-3.941-10.203-5.531-14.203-4.582-11.516-6.89-17.293-7.895-27.465-.726-7.317-.441-13.43.856-18.164 1.055-3.867 2.527-5.942 3.543-7.16 2.754-3.309 6.547-5.77 11.289-7.309 3.785-1.227 7.168-1.523 8.61-1.66a29.972 29.972 0 0 1 2.745-.125c6.59 0 12.106 2.144 18.875 4.77 6.606 2.562 10.715 4.968 16.926 8.609 1.344.785 2.73 1.601 4.29 2.5 14.773 8.535 22.187 12.816 26.226 14.136 16.672 5.442 32.097 2.29 43.37-.015 4.84-.988 12.161-2.48 21.017-6.531 5.527-2.532 22.347-10.223 30.98-24.371.023-.047 2.797-4.645 4.566-12.547.817-3.645 1.504-8.395 1.48-14.012h1.15c.023 4.871-.489 9.668-1.52 14.258-1.809 8.078-4.582 12.691-4.7 12.883-4.406 7.222-10.878 12.785-16.945 16.859-6.07 4.078-11.738 6.664-14.539 7.953-8.972 4.102-16.363 5.613-21.262 6.617-5.468 1.117-12.285 2.508-19.753 2.918-8.778.469-16.688-.48-24.192-2.933-4.156-1.352-11.601-5.66-26.437-14.235a478.917 478.917 0 0 1-4.297-2.508c-6.164-3.605-10.242-5.996-16.758-8.527-7.848-3.05-13.516-5.25-21.113-4.574-8.61.762-15.051 3.64-19.133 8.566-3.906 4.696-5.3 12.938-4.149 24.5 1 10.016 3.282 15.742 7.825 27.157 1.59 4 3.398 8.535 5.539 14.218 9.957 26.41 10.902 34.48 11.011 39.977.11 5.539-.425 11.168-1.582 16.726-1.117 5.368-2.445 8.88-2.964 10.137-2.395 5.8-6.977 11.25-13.633 16.207-6.317 4.703-14.196 8.75-23.418 12.027-14.594 5.188-31.551 8-48.016 8-.883 0-1.762-.007-2.637-.023a148.753 148.753 0 0 1-7.304-.32V204.8c20.52 1.445 41.363-1.88 57.57-7.633Zm0 0"/></g><g clip-path="url(#d)"><path fill="#777cbb" d="M734.738 474.227c-2.226-5.989-2.312-10.204-1.324-13.825.313-1.129 1.524-5.12 6.238-9.656 6.582-6.32 19.157-12.902 28.625-11.535V390.75c-11.789.715-26.09 5.023-37.824 13.043-5.398 3.68-18.59 12.68-23.332 28.973-2.879 9.894-1.656 19.074-.566 27.265.96 7.207 1.949 8.414 6.238 24.614 4.613 17.445 6.918 26.3 6.617 32.382-.191 3.907-.867 17.602-10.594 28.785-9.152 10.532-21.242 12.981-31.968 15.149-20.121 4.078-37.016.055-48.61-2.836-12.148-3.031-9.82-4.078-32.531-11.176-25.633-8.011-34.457-8.5-42.172-7.761-7.59.722-17.297 1.796-24.773 9.285-6.567 6.57-8.078 14.754-9.074 20.636 0 0-.446 2.641-.61 6.883H768.27v-63.035c-2.598-2.562-6.274-6.23-11.602-11.45-12.578-12.355-18.356-17.663-21.93-27.28Zm0 0"/></g><g clip-path="url(#e)"><path fill="#caaacd" d="M705.43 360.184c-20.625 7.347-34.735 18.074-39.715 30.203-.535 1.293-5.176 13.07-4.875 28.918.113 5.91 1.144 14.625 11.937 43.351 2.336 6.211 4.305 11.164 6.04 15.543 5 12.606 7.519 18.93 8.62 30.063.79 8.008.481 14.699-.937 19.879-1.152 4.234-2.758 6.504-3.867 7.84-3.008 3.62-7.149 6.312-12.324 8-4.133 1.34-7.829 1.667-9.399 1.816a32.71 32.71 0 0 1-3 .137c-7.191 0-13.215-2.348-20.605-5.223-7.207-2.805-11.696-5.438-18.473-9.422-1.469-.86-2.984-1.754-4.684-2.734-16.128-9.344-24.222-14.032-28.632-15.477-18.2-5.953-35.04-2.504-47.344.016-5.285 1.086-13.277 2.718-22.945 7.148-6.032 2.774-24.395 11.196-33.82 26.68-.028.05-3.052 5.086-4.985 13.73-.895 3.993-1.64 9.188-1.613 15.34h-1.258c-.024-5.332.535-10.582 1.66-15.605 1.976-8.844 5-13.895 5.129-14.102 4.812-7.906 11.875-13.996 18.5-18.453 6.625-4.465 12.812-7.297 15.87-8.707 9.798-4.492 17.868-6.14 23.212-7.242 5.973-1.223 13.414-2.746 21.566-3.192 9.582-.52 18.219.524 26.407 3.207 4.539 1.48 12.664 6.196 28.863 15.582 1.703.989 3.222 1.875 4.691 2.743 6.73 3.949 11.18 6.566 18.293 9.336 8.57 3.336 14.754 5.746 23.047 5.007 9.402-.836 16.43-3.984 20.89-9.379 4.262-5.136 5.782-14.16 4.528-26.816-1.09-10.96-3.582-17.23-8.543-29.723-1.734-4.378-3.71-9.343-6.047-15.562-10.87-28.906-11.902-37.742-12.023-43.758a82.217 82.217 0 0 1 1.73-18.305c1.219-5.878 2.672-9.722 3.239-11.101 2.613-6.348 7.613-12.309 14.882-17.738 6.89-5.145 15.492-9.575 25.563-13.164 15.93-5.676 34.441-8.758 52.418-8.758a159.818 159.818 0 0 1 10.851.379v1.187c-22.402-1.582-45.156 2.059-62.847 8.356Zm0 0"/></g></svg>