<svg xmlns="http://www.w3.org/2000/svg" width="400" height="667" version="1.0" viewBox="0 0 300 500.25"><defs><clipPath id="a"><path d="M.223 0h299.55v499.5H.223Zm0 0"/></clipPath><clipPath id="b"><path d="M27 181.238h16V205H27Zm0 0"/></clipPath><clipPath id="c"><path d="M41 181.238h5V189h-5Zm0 0"/></clipPath><clipPath id="d"><path d="M3.703 197h53.168v80H3.703Zm0 0"/></clipPath><clipPath id="e"><path d="M.223 0H127v95H.223Zm0 0"/></clipPath><clipPath id="f"><path d="M.223 0H150v114.578H.223Zm0 0"/></clipPath><clipPath id="g"><path d="M158 231h141.773v118.047H158Zm0 0"/></clipPath><clipPath id="h"><path d="M130.004 206.09h169.77v142.957h-169.77Zm0 0"/></clipPath></defs><g fill="#fff" clip-path="url(#a)"><path d="M.223 0h299.554v506.988H.223Zm0 0"/><path d="M.223 0h299.554v499.5H.223Zm0 0"/><path d="M.223 0h299.554v499.5H.223Zm0 0"/></g><path fill="#fff" d="M193.293 267.477c-2.54-6.79 1.316-10.024 2.031-15.02.715-5 8.156-24.648 28.727-29.66 20.574-5.012 31.574-4.293 35.836 6.437 4.258 10.727 3.894 26.809-5.328 31.453-9.22 4.645-37.149 15.274-41.86 16.786-9.933 3.218-17.531-4.973-19.406-9.996Zm0 0"/><g clip-path="url(#b)"><path fill="#010101" d="M35.281 204.195c-2.027.196-3.93-.785-5.289-2.238-1.512-1.672-2.152-3.812-2.078-6 .074-2.14.863-4.184 1.93-6.004 1.011-1.723 2.222-3.27 3.832-4.453 1.633-1.227 3.511-2.066 5.34-2.95.644-.296 2.574-1.28 2.597.075.024.492-.125 1.031-.172 1.523-.05.665-.05 1.329-.074 2.016 0 .691 0 1.379-.05 2.066-.051.665-.172 1.356-.247 2.02-.148.934-.273 1.844-.422 2.805-.12.785-.222 1.574-.37 2.36a21.97 21.97 0 0 1-1.262 4.155c-.446 1.133-.914 2.29-1.703 3.274-.696.883-1.61 1.402-2.747 1.449-.37 0-.718-.023-1.09-.047-.37-.027-.37.516 0 .563.915.125 1.833.074 2.696-.27 1.113-.465 1.855-1.55 2.426-2.582 1.011-1.894 1.73-3.984 2.175-6.074.149-.664.223-1.328.344-1.969.324-2.164.793-4.355.844-6.566.023-1.403.023-2.782.223-4.184.046-.441.074-.934-.223-1.328-.273-.367-.742-.441-1.164-.395-1.16.125-2.274.813-3.313 1.305-.964.469-1.98.961-2.894 1.55-1.828 1.13-3.387 2.606-4.574 4.427-1.164 1.773-2.153 3.738-2.473 5.855-.398 2.29-.074 4.746 1.187 6.738 1.114 1.746 2.918 3.176 5.043 3.52.497.074 1.04.121 1.536.047.343-.145.343-.738-.028-.688Zm0 0"/></g><path fill="#010101" d="M41.293 192.34c1.41-1.746 2.82-3.492 4.227-5.238.296-.395.644-.813.94-1.184.052-.047.126-.172.2-.145.195.075.195.809.223.934.074.64.074 1.277.047 1.918-.121 2.68-1.086 5.238-2.227 7.648-.59 1.23-1.234 2.387-1.828 3.567-.496.937-.941 1.945-1.758 2.66-1.629 1.5-4.004 1.82-6.156 1.621-.371-.023-.371.516 0 .566 2.027.196 4.18-.12 5.887-1.277.965-.664 1.582-1.55 2.125-2.586.668-1.277 1.363-2.508 2.004-3.812 1.261-2.559 2.3-5.239 2.5-8.09a16 16 0 0 0-.028-2.164c-.047-.469-.047-1.184-.492-1.504-.594-.367-1.016.394-1.289.738a582.88 582.88 0 0 1-4.77 5.906c-.25.317.172.735.395.442Zm0 0"/><g clip-path="url(#c)"><path fill="#010101" d="M42.332 182.77c.395-.344 1.086-.883 1.605-.735.325.07.473.516.57.836.27 1.129.122 2.383-.05 3.516-.047.418-.148.86-.223 1.281-.074.367.47.488.57.144.223-1.105.395-2.238.419-3.367.027-.91.05-2.656-1.086-2.953-.793-.222-1.61.418-2.176.887-.297.219.098.613.371.39Zm0 0"/></g><path fill="#010101" d="M42.11 218.168a42.335 42.335 0 0 1 7.492-2.484 26.192 26.192 0 0 1 1.93-.418c.296-.051.616-.125.89-.172.297-.051.715-.2.965.023.418.344.418 1.133.37 1.598-.073.566-.347 1.082-.644 1.55-.617.958-1.508 1.77-2.398 2.485a19.961 19.961 0 0 1-2.969 1.969 18.425 18.425 0 0 1-3.289 1.375c-1.137.37-2.422.664-3.484-.074-.844-.59-1.336-1.547-1.809-2.41-.594-1.083-1.137-2.239-.715-3.493.371-1.105 1.262-1.969 2.078-2.707a17.693 17.693 0 0 1 2.817-1.965 15.964 15.964 0 0 1 6.504-1.968c.52-.024 1.164-.149 1.683.12.446.223.692.665.817 1.11.27 1.129-.446 2.215-1.09 3.074a26.45 26.45 0 0 1-5.219 5.14c-.937.688-1.953 1.38-3.113 1.599-1.04.199-2.153 0-3.067-.516-.472-.246-.867-.59-1.238-.961-.246-.27-.644.148-.394.394a4.878 4.878 0 0 0 2.941 1.625c1.238.22 2.398-.023 3.488-.59 1.188-.617 2.274-1.5 3.29-2.386 1.038-.887 2.003-1.895 2.894-2.902.812-.961 1.754-2.02 2.05-3.274.223-.957-.023-2.137-.913-2.73-.497-.344-1.114-.344-1.707-.293-.645.023-1.262.12-1.856.195a17.982 17.982 0 0 0-3.684 1.059 18.496 18.496 0 0 0-3.289 1.82c-1.015.715-2.004 1.55-2.746 2.582-.793 1.035-1.16 2.238-.816 3.52.172.636.496 1.253.816 1.843.274.492.57 1.031.89 1.5.692.934 1.606 1.625 2.845 1.696 1.312.027 2.695-.516 3.883-1.032 2.374-1.007 4.722-2.46 6.48-4.379.816-.886 1.559-1.992 1.582-3.246.023-.515-.074-1.18-.445-1.597-.422-.47-1.016-.395-1.559-.274-2.894.492-5.738 1.305-8.48 2.363-.668.247-1.336.516-2.004.836-.399.051-.102.567.222.395Zm-21.024 79.375a108.01 108.01 0 0 1-3.14-16.457 103.804 103.804 0 0 1-.27-20.93c.566-6.25 1.73-12.449 3.066-18.547 1.137-5.363 2.422-10.699 3.93-15.964a203.955 203.955 0 0 1 6.555-19.16l1.039-2.587c.148-.343-.422-.464-.57-.144-2.645 6.418-4.946 12.984-6.973 19.652-1.606 5.313-2.942 10.653-4.157 16.04-1.332 6.097-2.593 12.245-3.289 18.445-.789 6.96-.812 13.972-.172 20.91.52 5.851 1.536 11.656 2.97 17.34.148.515.269 1.082.417 1.597.149.297.668.172.594-.195Zm0 0"/><path fill="#010101" d="M17.305 272.258a480.253 480.253 0 0 1 6.207-22.188c1.062-3.445 2.125-6.886 3.312-10.28 1.113-3.075 2.45-6.08 4.203-8.81a37.896 37.896 0 0 1 8.04-9c.273-.222-.098-.64-.395-.394a37.21 37.21 0 0 0-7.348 7.894c-1.926 2.782-3.41 5.782-4.62 8.954-1.24 3.222-2.227 6.543-3.267 9.84-1.187 3.812-2.351 7.648-3.414 11.488a537.252 537.252 0 0 0-3.312 12.347c-.05.344.492.516.594.149Zm0 0"/><g clip-path="url(#d)"><path fill="#010101" d="M16.906 276.266c-1.16-5.192-3.066-10.133-4.87-15.102-1.806-4.922-3.56-9.914-4.45-15.129-.965-5.707-.496-11.488-.074-17.219.222-2.949.468-5.925.742-8.879.27-2.902.64-5.78.937-8.707.274-2.707.446-5.484-.023-8.19-.395-2.142-1.211-5.165-3.711-5.657-.492-.125-1.039-.051-1.531.148-.125.047-.223.145-.2.27.126 1.156.57 2.215 1.063 3.246.57 1.133 1.09 2.238 1.633 3.344 1.113 2.265 2.203 4.527 3.312 6.789 2.227 4.578 4.454 9.101 6.68 13.675 2.227 4.551 4.45 9.079 6.652 13.63 1.829 3.788 3.043 7.894 3.364 12.077.172 1.97.125 3.934-.051 5.88-.098 1.23-.223 2.456-.492 3.663-.274 1.254-.696 2.461-1.164 3.665a27.622 27.622 0 0 1-1.336 2.902 29.76 29.76 0 0 1-.864 1.55c-.222.368-.57 1.133-.964 1.305-.594.22-.844-.812-.844-1.183-.024-.59.148-1.156.348-1.696.394-1.058.89-2.066 1.359-3.097.918-2.043 1.906-4.11 3.02-6.078a40.861 40.861 0 0 1 7.07-9.246c6.035-5.907 13.75-9.891 22.035-11.637.668-.149 1.36-.27 2.055-.395.27-.047.246-.465 0-.562-2.375-.594-4.207 1.992-5.54 3.539a214.15 214.15 0 0 0-4.8 5.73c-3.14 3.887-6.254 7.825-9.719 11.442-1.953 2.015-4.004 3.957-6.207 5.703-.27.223.102.617.394.394 3.81-3.023 7.149-6.566 10.317-10.257 3.14-3.711 6.133-7.598 9.297-11.29a75.721 75.721 0 0 1 2.672-3.023c.89-.937 2.074-2.02 3.484-1.7v-.566c-3.512.59-6.922 1.528-10.21 2.88a44.384 44.384 0 0 0-12.02 7.378c-2.97 2.559-5.665 5.535-7.79 8.856-1.289 1.969-2.375 4.082-3.363 6.172-.52 1.086-1.015 2.191-1.512 3.273-.445 1.008-1.011 2.016-1.234 3.098-.2.863-.2 2.02.594 2.61.89.663 1.582-.47 1.976-1.11 1.137-1.844 2.079-3.86 2.82-5.903.348-.91.669-1.894.84-2.851.297-1.574.473-3.223.57-4.82.27-4.454-.37-8.981-1.855-13.211-.668-1.844-1.535-3.641-2.398-5.41-1.137-2.364-2.3-4.7-3.461-7.06-2.3-4.75-4.625-9.445-6.926-14.195-2.3-4.746-4.625-9.445-6.926-14.19-.52-1.106-1.113-2.216-1.187-3.446-.047.074-.148.199-.195.273 1.16-.492 2.422.172 3.113 1.13.742 1.034 1.09 2.335 1.336 3.566.57 2.656.422 5.437.148 8.117-.27 2.855-.64 5.683-.914 8.511a497.93 497.93 0 0 0-.742 8.633c-.422 5.633-.914 11.34-.148 16.926.718 5.09 2.351 9.984 4.105 14.856 1.758 4.87 3.66 9.69 4.945 14.707.176.64.297 1.257.446 1.894-.075.492.468.32.394-.023Zm0 0"/></g><g clip-path="url(#e)"><path fill="#777cbb" d="M17.266 51.652c1.132 3.04 1.175 5.18.672 7.016-.157.574-.77 2.598-3.168 4.898-3.344 3.211-9.735 6.551-14.547 5.856V94.02c5.992-.364 13.257-2.551 19.222-6.622 2.742-1.867 9.446-6.433 11.856-14.703 1.46-5.023.844-9.683.289-13.84-.492-3.656-.992-4.27-3.172-12.492-2.344-8.855-3.516-13.347-3.363-16.433.097-1.985.441-8.934 5.386-14.61 4.649-5.343 10.793-6.59 16.243-7.69 10.226-2.067 18.808-.025 24.699 1.44 6.176 1.54 4.992 2.07 16.531 5.672 13.023 4.067 17.508 4.317 21.43 3.938 3.855-.364 8.789-.91 12.59-4.711 3.336-3.336 4.105-7.489 4.609-10.473 0 0 .227-1.34.312-3.492H.23v31.992c1.317 1.3 3.188 3.16 5.895 5.809 6.39 6.273 9.324 8.965 11.14 13.847Zm0 0"/></g><g clip-path="url(#f)"><path fill="#caaacd" d="M32.16 109.531c10.48-3.726 17.649-9.172 20.18-15.328.273-.656 2.629-6.633 2.476-14.676-.054-3-.578-7.422-6.062-22.004a432.737 432.737 0 0 0-3.07-7.886c-2.543-6.399-3.82-9.61-4.38-15.258-.402-4.066-.245-7.461.477-10.09.582-2.148 1.399-3.3 1.965-3.98 1.527-1.836 3.633-3.204 6.258-4.059 2.101-.68 3.98-.848 4.777-.922.52-.047 1.028-.07 1.524-.07 3.656 0 6.718 1.191 10.472 2.652 3.664 1.422 5.942 2.758 9.387 4.781.746.434 1.516.891 2.379 1.387 8.195 4.742 12.309 7.121 14.55 7.856 9.247 3.023 17.805 1.27 24.06-.008 2.683-.551 6.745-1.38 11.656-3.63 3.066-1.405 12.398-5.679 17.187-13.538.012-.028 1.55-2.582 2.531-6.969.457-2.027.836-4.664.82-7.785h.641a35.612 35.612 0 0 1-.843 7.918c-1.004 4.488-2.543 7.05-2.606 7.156-2.445 4.016-6.035 7.106-9.402 9.367-3.367 2.266-6.512 3.703-8.067 4.418-4.976 2.282-9.074 3.117-11.793 3.676-3.035.621-6.816 1.395-10.957 1.621-4.87.262-9.257-.265-13.418-1.629-2.308-.75-6.437-3.144-14.668-7.906-.863-.504-1.636-.953-2.382-1.395-3.422-2.003-5.684-3.332-9.297-4.738-4.356-1.691-7.496-2.914-11.711-2.539-4.778.422-8.348 2.02-10.614 4.758-2.167 2.61-2.94 7.187-2.3 13.61.55 5.562 1.82 8.745 4.34 15.085.878 2.223 1.882 4.742 3.074 7.899 5.523 14.672 6.047 19.156 6.105 22.21a41.625 41.625 0 0 1-.875 9.29c-.62 2.984-1.36 4.933-1.648 5.632-1.328 3.223-3.867 6.25-7.563 9.004-3.5 2.614-7.87 4.86-12.988 6.68-8.098 2.883-17.5 4.445-26.637 4.445-.488 0-.976-.004-1.46-.011a80.88 80.88 0 0 1-4.055-.18v-.602c11.386.801 22.945-1.043 31.937-4.242Zm0 0"/></g><g clip-path="url(#g)"><path fill="#777cbb" d="M295.922 284.648c-1.414-3.796-1.469-6.464-.844-8.761.2-.715.969-3.242 3.965-6.117 4.18-4.004 12.164-8.176 18.18-7.31v-30.706c-7.489.453-16.57 3.184-24.028 8.266-3.425 2.332-11.804 8.035-14.816 18.359-1.828 6.27-1.055 12.086-.36 17.273.61 4.567 1.239 5.332 3.961 15.598 2.93 11.055 4.395 16.66 4.204 20.516-.122 2.476-.551 11.152-6.73 18.238-5.813 6.672-13.493 8.226-20.306 9.601-12.78 2.582-23.511.032-30.875-1.8-7.714-1.918-6.238-2.582-20.664-7.082-16.28-5.075-21.882-5.383-26.785-4.914-4.82.457-10.988 1.136-15.734 5.878-4.172 4.168-5.133 9.352-5.766 13.079 0 0-.285 1.675-.387 4.363H317.22v-39.942c-1.649-1.625-3.985-3.945-7.371-7.253-7.989-7.829-11.657-11.192-13.926-17.286Zm0 0"/></g><g clip-path="url(#h)"><path fill="#caaacd" d="M277.305 212.387c-13.102 4.656-22.063 11.453-25.227 19.14-.34.817-3.285 8.278-3.098 18.32.075 3.747.727 9.266 7.583 27.47 1.484 3.933 2.734 7.074 3.835 9.847 3.18 7.988 4.778 11.992 5.477 19.047.5 5.074.305 9.316-.594 12.598-.734 2.683-1.754 4.12-2.457 4.964-1.91 2.297-4.543 4.004-7.828 5.07-2.625.852-4.973 1.06-5.969 1.15-.652.062-1.285.089-1.906.089-4.57 0-8.394-1.488-13.09-3.309-4.578-1.777-7.426-3.445-11.734-5.968-.934-.547-1.89-1.114-2.973-1.735-10.246-5.922-15.387-8.89-18.187-9.804-11.559-3.774-22.258-1.59-30.07.007-3.36.688-8.434 1.723-14.575 4.532-3.832 1.754-15.496 7.09-21.484 16.902-.016.035-1.938 3.223-3.164 8.7-.567 2.53-1.043 5.823-1.028 9.722h-.796a44.257 44.257 0 0 1 1.054-9.89c1.254-5.602 3.176-8.801 3.258-8.934 3.059-5.008 7.543-8.868 11.75-11.692 4.211-2.828 8.14-4.625 10.082-5.515 6.223-2.848 11.348-3.895 14.742-4.59 3.793-.778 8.52-1.742 13.7-2.024 6.085-.328 11.57.332 16.773 2.032 2.883.937 8.043 3.925 18.332 9.875 1.082.625 2.047 1.187 2.98 1.738 4.274 2.5 7.102 4.156 11.621 5.914 5.442 2.113 9.372 3.64 14.637 3.172 5.973-.527 10.438-2.524 13.27-5.942 2.707-3.253 3.672-8.972 2.875-16.992-.692-6.945-2.278-10.918-5.426-18.832-1.102-2.773-2.356-5.922-3.84-9.863-6.906-18.313-7.562-23.91-7.637-27.723a51.677 51.677 0 0 1 1.098-11.597c.774-3.727 1.695-6.16 2.055-7.036 1.66-4.02 4.836-7.8 9.453-11.238 4.379-3.262 9.844-6.066 16.238-8.34 10.121-3.597 21.875-5.55 33.293-5.55.613 0 1.223.007 1.828.015 1.711.035 3.403.11 5.067.227v.75c-14.23-1.004-28.68 1.304-39.918 5.293Zm0 0"/></g></svg>