<svg xmlns="http://www.w3.org/2000/svg" width="1366" height="768" version="1.0" viewBox="0 0 1024.5 576"><defs><clipPath id="g"><path d="M78 300.477h8V315h-8Zm0 0"/></clipPath><clipPath id="a"><path d="M0 .14h1024v575.72H0Zm0 0"/></clipPath><clipPath id="c"><path d="M664.77 224.555 805.5 132.8l92.574 141.984-140.73 91.758Zm0 0"/></clipPath><clipPath id="d"><path d="M664.77 224.555 805.5 132.8l92.574 141.984-140.73 91.758Zm0 0"/></clipPath><clipPath id="e"><path d="M664.781 36.145H769V117H664.781Zm0 0"/></clipPath><clipPath id="f"><path d="M48 300.477h32V350H48Zm0 0"/></clipPath><clipPath id="b"><path d="M697 167h160v156H697Zm0 0"/></clipPath><clipPath id="h"><path d="M26 346h33v196.727H26Zm0 0"/></clipPath><clipPath id="i"><path d="M0 333h109.5v166H0Zm0 0"/></clipPath><clipPath id="j"><path d="M0 .14h255V190H0Zm0 0"/></clipPath><clipPath id="k"><path d="M0 .14h301.172v230.25H0Zm0 0"/></clipPath><clipPath id="l"><path d="M769 307h255v189.77H769Zm0 0"/></clipPath><clipPath id="m"><path d="M723.324 266.66H1024v230.11H723.324Zm0 0"/></clipPath></defs><g fill="#fff" clip-path="url(#a)"><path d="M0 .14h1024.5v583.5H0Zm0 0"/><path d="M0 .14h1024.5v576H0Zm0 0"/><path d="M0 .14h1024.5v576H0Zm0 0"/></g><path fill="#fff" d="M625.133 233.219c-8.711-23.153 4.523-34.176 6.976-51.215 2.457-17.04 28.008-84.047 98.645-101.137 70.64-17.086 108.414-14.633 123.043 21.953 14.625 36.582 13.375 91.41-18.285 107.246-31.664 15.836-127.567 52.086-143.735 57.235-34.117 10.976-60.195-16.946-66.644-34.082Zm0 0"/><g clip-path="url(#b)"><g clip-path="url(#c)"><g clip-path="url(#d)"><path fill="#d6e8f7" d="M845.145 290.047c-23.81 34.773-101.22 48.055-130.032 7.848-26.812-37.497-20.984-76.196 6.297-107.829a42.485 42.485 0 0 1 15.387-11.12c17.926-7.747 58.441-21.329 83.8.152 33.364 28.27 48.38 76.16 24.548 110.949ZM817.957 187.16c-23.031-19.469-59.922-7.015-76.242.024a38.617 38.617 0 0 0-14.012 10.113c-24.883 28.793-30.277 63.945-5.95 97.918 26.087 36.433 96.544 24.191 118.29-7.399 21.746-31.59 8.207-75.074-22.086-100.656Zm0 0"/></g></g></g><g clip-path="url(#e)"><path fill="#cb962e" fill-rule="evenodd" d="M735.316 44.676a5.848 5.848 0 0 0-2.187 4.558c0 3.235 2.637 5.86 5.887 5.86 1.195 0 2.672-.344 4.058-1.489.778-.64 2.266-2.785 2.266-2.785s-.063.094-.09.13c.934-1.278 1.957-2.813 3.121-3.856a5.848 5.848 0 0 0 .445-8.278c-2.168-2.406-5.89-2.605-8.308-.445-1.742 1.563-3.38 3.774-4.774 5.684-.07.093-.254.375-.418.62Zm-19.675 8.066a5.828 5.828 0 0 0 2.02-5.176c-.384-3.109-2.223-4.546-4.7-5.035-.746-.148-2.59-.48-4.672 1.051-.285.207-1.723 1.73-2.101 2.09-1.383 1.305-2.618 2.668-3.848 4.117-.04.05-.438.45-.7.711a5.842 5.842 0 0 0-2.507 4.797c0 2.898 1.535 4.394 3.246 5.254 1.012.504 2.848 1.176 5.223.043.546-.258 3.484-2.95 3.742-3.254.941-1.11 1.879-2.16 2.937-3.156.207-.196 1.032-1.086 1.36-1.442Zm-39.496 10.86c.703-.625 2.722-2.422 3.175-2.926l1.7-2.059c.222-.265.492-.648.687-.933a5.833 5.833 0 0 0 1.106-5.602c-.606-1.852-1.766-2.809-2.864-3.383-1.351-.707-2.996-1.027-4.93-.254-.542.215-1.359.61-2.18 1.496-.124.137-.46.692-.862 1.168l-1.399 1.703c-.504.438-3.484 3.036-4.426 4.434-1.004 1.488-1.363 2.98-1.363 4.2 0 3.234 2.637 5.863 5.883 5.863 2.484 0 4.61-1.54 5.473-3.707Zm77.261 11.285a5.847 5.847 0 0 0-2.972 5.093c0 3.235 2.636 5.86 5.882 5.86 1.024 0 3.07-.387 5.051-2.266 1.715-1.629 4.664-5.761 5.348-6.441a5.85 5.85 0 0 0 .023-8.29 5.907 5.907 0 0 0-8.324-.023c-.59.586-4.191 5.055-5.008 6.067Zm-22.343 5.672a5.842 5.842 0 0 0 1.199-5.735c-1.02-3.074-4.348-4.746-7.434-3.734a6.08 6.08 0 0 0-2.082 1.183c-.371.32-1.43 1.836-1.867 2.473-1.324 1.559-2.586 3.293-4.024 4.727a5.847 5.847 0 0 0 0 8.289 5.906 5.906 0 0 0 8.32 0c1.72-1.711 3.247-3.774 4.829-5.614.16-.183.758-1.117 1.058-1.59Zm-46.567-6.649a155.002 155.002 0 0 1-7.027 7.469 5.847 5.847 0 0 0 0 8.289 5.906 5.906 0 0 0 8.32 0 165.384 165.384 0 0 0 7.563-8.035 5.844 5.844 0 0 0-.551-8.27 5.903 5.903 0 0 0-8.305.547Zm55.086 35.504a5.81 5.81 0 0 0 1.95-3.625c.425-3.207-1.845-6.156-5.063-6.582a5.875 5.875 0 0 0-3.95.852c-.66.406-2.699 2.8-2.699 2.8s.203-.261.239-.304c-1.176 1.406-2.61 2.652-3.899 3.937a5.847 5.847 0 0 0 0 8.29c2.293 2.288 6.024 2.288 8.32 0 1.54-1.532 3.22-3.048 4.622-4.723l.48-.645"/></g><g clip-path="url(#f)"><path fill="#010101" d="M65.04 348.07c-4.177.41-8.099-1.629-10.9-4.64-3.109-3.47-4.433-7.907-4.28-12.446.152-4.437 1.785-8.671 3.972-12.445 2.09-3.57 4.586-6.785 7.895-9.234 3.363-2.551 7.234-4.285 11-6.121 1.324-.61 5.296-2.653 5.347.156.055 1.02-.254 2.14-.355 3.16-.102 1.379-.102 2.754-.153 4.184 0 1.43 0 2.855-.101 4.285-.102 1.375-.356 2.804-.508 4.183-.309 1.938-.562 3.825-.867 5.813-.254 1.633-.457 3.265-.766 4.898-.558 2.907-1.476 5.864-2.597 8.621-.915 2.344-1.883 4.743-3.512 6.782-1.426 1.836-3.313 2.91-5.653 3.011-.765 0-1.48-.05-2.242-.101-.765-.051-.765 1.07 0 1.172 1.883.254 3.77.152 5.551-.563 2.293-.969 3.82-3.21 4.992-5.355 2.086-3.926 3.563-8.262 4.48-12.598.305-1.379.462-2.754.716-4.082.66-4.488 1.629-9.027 1.73-13.617.05-2.91.05-5.766.457-8.672.102-.918.152-1.938-.457-2.754-.559-.766-1.527-.918-2.394-.816-2.395.254-4.684 1.683-6.825 2.703-1.984.969-4.074 1.988-5.957 3.21-3.77 2.348-6.98 5.41-9.422 9.184-2.394 3.672-4.433 7.754-5.093 12.14-.817 4.743-.153 9.845 2.445 13.977 2.289 3.622 6.008 6.579 10.387 7.293 1.02.153 2.14.254 3.16.102.71-.305.71-1.531-.05-1.43Zm0 0"/></g><path fill="#010101" d="m77.414 323.484 8.707-10.863c.613-.816 1.324-1.683 1.938-2.45.101-.1.254-.355.406-.304.41.153.41 1.684.46 1.938.153 1.328.153 2.652.102 3.98-.257 5.559-2.242 10.863-4.586 15.863-1.222 2.551-2.546 4.946-3.77 7.395-1.015 1.937-1.933 4.031-3.612 5.508-3.364 3.113-8.25 3.777-12.684 3.367-.762-.05-.762 1.074 0 1.176 4.176.406 8.61-.258 12.121-2.653 1.988-1.378 3.262-3.214 4.383-5.355 1.375-2.656 2.8-5.203 4.125-7.906 2.598-5.309 4.734-10.868 5.144-16.785.102-1.477.051-3.008-.054-4.489-.102-.969-.102-2.449-1.016-3.11-1.223-.765-2.09.817-2.648 1.528a1113.01 1113.01 0 0 1-9.832 12.242c-.508.664.359 1.532.816.918Zm0 0"/><g clip-path="url(#g)"><path fill="#010101" d="M79.555 303.645c.812-.715 2.238-1.836 3.308-1.532.664.153.969 1.07 1.172 1.735.559 2.347.254 4.949-.101 7.293-.102.867-.305 1.785-.457 2.652-.157.766.964 1.023 1.168.309.46-2.297.816-4.645.867-6.989.05-1.886.101-5.508-2.242-6.12-1.63-.462-3.31.866-4.48 1.835-.61.457.202 1.274.765.817Zm0 0"/></g><path fill="#010101" d="M79.094 377.043c4.992-2.191 10.136-3.926 15.433-5.148 1.325-.36 2.649-.614 3.973-.868.61-.101 1.273-.257 1.832-.359.613-.102 1.477-.406 1.988.05.864.716.864 2.348.762 3.317-.152 1.172-.71 2.246-1.324 3.215-1.274 1.988-3.106 3.672-4.942 5.152a41.07 41.07 0 0 1-6.109 4.078c-2.191 1.176-4.43 2.145-6.773 2.856-2.344.766-4.993 1.379-7.184-.152-1.73-1.223-2.75-3.211-3.715-4.997-1.222-2.246-2.344-4.644-1.476-7.246.761-2.293 2.597-4.078 4.277-5.609a36.105 36.105 0 0 1 5.805-4.082c4.125-2.293 8.71-3.723 13.394-4.078 1.07-.05 2.395-.309 3.465.254.914.46 1.426 1.379 1.68 2.297.558 2.343-.918 4.59-2.243 6.375a54.58 54.58 0 0 1-10.746 10.66c-1.933 1.43-4.023 2.855-6.418 3.316-2.136.406-4.43 0-6.312-1.07-.969-.512-1.785-1.227-2.547-1.992-.512-.559-1.324.308-.816.816a10.046 10.046 0 0 0 6.062 3.367c2.547.461 4.938-.05 7.18-1.222 2.445-1.278 4.687-3.114 6.773-4.95 2.14-1.836 4.125-3.925 5.961-6.02 1.68-1.987 3.614-4.183 4.227-6.784.457-1.989-.051-4.438-1.887-5.66-1.016-.715-2.289-.715-3.512-.614-1.324.051-2.597.258-3.82.41a36.691 36.691 0 0 0-7.59 2.192c-2.394 1.02-4.633 2.297-6.773 3.777-2.086 1.477-4.125 3.211-5.653 5.356-1.629 2.14-2.394 4.64-1.68 7.293.356 1.324 1.016 2.601 1.68 3.824.559 1.02 1.172 2.144 1.832 3.113 1.426 1.938 3.313 3.367 5.86 3.52 2.699.05 5.55-1.07 7.996-2.145 4.887-2.09 9.726-5.098 13.344-9.078 1.68-1.836 3.207-4.133 3.257-6.734.051-1.07-.152-2.446-.918-3.313-.863-.969-2.085-.816-3.207-.562-5.957 1.02-11.816 2.703-17.468 4.898a46.361 46.361 0 0 0-4.125 1.734c-.817.102-.203 1.172.457.813Zm0 0"/><g clip-path="url(#h)"><path fill="#010101" d="M35.805 541.648c-3.055-11.222-5.196-22.648-6.47-34.125-1.628-14.433-1.831-29.023-.558-43.406 1.168-12.957 3.563-25.812 6.313-38.46 2.344-11.122 4.992-22.188 8.097-33.106a425.36 425.36 0 0 1 13.497-39.735c.714-1.785 1.43-3.57 2.14-5.355.305-.715-.867-.969-1.172-.309-5.449 13.317-10.183 26.934-14.363 40.758-3.309 11.016-6.059 22.086-8.555 33.258-2.75 12.648-5.347 25.402-6.773 38.254-1.629 14.437-1.68 28.973-.356 43.36 1.067 12.14 3.157 24.175 6.11 35.96.305 1.07.562 2.242.867 3.313.305.613 1.375.36 1.223-.407Zm0 0"/></g><path fill="#010101" d="M28.012 489.21c3.922-15.452 8.148-30.808 12.785-46.007 2.187-7.14 4.379-14.281 6.824-21.32 2.29-6.38 5.04-12.602 8.656-18.262 4.48-7.09 10.086-13.363 16.555-18.672.559-.457-.207-1.324-.816-.812a76.935 76.935 0 0 0-15.125 16.37c-3.973 5.766-7.032 11.99-9.528 18.567-2.543 6.684-4.582 13.57-6.722 20.406-2.442 7.907-4.836 15.864-7.028 23.82-2.394 8.516-4.633 17.036-6.824 25.606-.102.715 1.02 1.07 1.223.305Zm0 0"/><g clip-path="url(#i)"><path fill="#010101" d="M27.195 497.527c-2.39-10.765-6.312-21.015-10.03-31.32-3.72-10.203-7.337-20.555-9.169-31.371-1.984-11.832-1.02-23.82-.152-35.703.457-6.121.968-12.293 1.527-18.414.559-6.02 1.324-11.989 1.934-18.059.562-5.61.918-11.375-.051-16.984-.813-4.438-2.492-10.711-7.637-11.735-1.02-.253-2.14-.101-3.16.309-.254.102-.457.305-.406.559.254 2.398 1.172 4.593 2.191 6.734 1.172 2.348 2.238 4.64 3.36 6.937 2.293 4.692 4.535 9.387 6.824 14.079 4.586 9.488 9.168 18.87 13.754 28.359 4.582 9.437 9.164 18.824 13.699 28.258 3.77 7.855 6.266 16.375 6.926 25.047.355 4.082.254 8.16-.102 12.191-.203 2.55-.457 5.102-1.02 7.602-.558 2.601-1.425 5.097-2.394 7.597a57.695 57.695 0 0 1-2.75 6.02 65.238 65.238 0 0 1-1.781 3.215c-.457.765-1.172 2.343-1.985 2.703-1.222.457-1.734-1.684-1.734-2.45-.05-1.222.305-2.398.715-3.519.812-2.191 1.832-4.285 2.8-6.426 1.883-4.234 3.923-8.52 6.216-12.601 3.917-7.04 8.808-13.516 14.562-19.18 12.43-12.238 28.32-20.504 45.379-24.125 1.375-.305 2.805-.563 4.23-.816.559-.102.508-.97 0-1.172-4.89-1.227-8.66 4.129-11.41 7.343-3.36 3.93-6.672 7.856-9.879 11.887-6.468 8.059-12.886 16.219-20.015 23.719-4.024 4.18-8.254 8.21-12.785 11.832-.559.46.203 1.277.816.816 7.844-6.273 14.719-13.617 21.238-21.27 6.465-7.702 12.63-15.76 19.149-23.413a161.913 161.913 0 0 1 5.5-6.274c1.832-1.937 4.277-4.183 7.18-3.52v-1.171c-7.231 1.223-14.258 3.16-21.032 5.965-9.016 3.726-17.367 8.93-24.754 15.304-6.11 5.305-11.664 11.477-16.043 18.364-2.648 4.078-4.89 8.465-6.926 12.8-1.07 2.247-2.09 4.543-3.105 6.786-.918 2.093-2.09 4.183-2.547 6.425-.41 1.79-.41 4.184 1.223 5.41 1.832 1.376 3.258-.968 4.074-2.296 2.34-3.824 4.277-8.008 5.805-12.242.715-1.887 1.375-3.926 1.73-5.918.613-3.262.969-6.68 1.172-9.997.563-9.234-.762-18.617-3.82-27.39-1.375-3.828-3.157-7.55-4.938-11.223-2.344-4.898-4.738-9.742-7.133-14.64-4.734-9.844-9.523-19.586-14.257-29.43-4.739-9.844-9.528-19.59-14.262-29.434-1.07-2.293-2.293-4.59-2.445-7.14-.102.152-.305.41-.407.562 2.395-1.02 4.993.356 6.418 2.344 1.528 2.144 2.239 4.848 2.75 7.398 1.172 5.508.864 11.274.305 16.832-.563 5.918-1.324 11.782-1.887 17.649a1109.726 1109.726 0 0 0-1.527 17.902c-.863 11.684-1.883 23.516-.305 35.094 1.477 10.562 4.84 20.71 8.453 30.812 3.618 10.098 7.54 20.094 10.188 30.5.355 1.329.613 2.602.918 3.93-.153 1.02.965.664.812-.05Zm0 0"/></g><g clip-path="url(#j)"><path fill="#777cbb" d="M33.977 103.938c2.277 6.105 2.367 10.406 1.355 14.101-.316 1.148-1.555 5.219-6.383 9.844-6.73 6.449-19.59 13.164-29.277 11.765v49.43c12.058-.73 26.683-5.125 38.691-13.3 5.52-3.758 19.012-12.938 23.864-29.555 2.945-10.09 1.695-19.453.582-27.809-.985-7.352-1.996-8.582-6.383-25.102-4.719-17.796-7.074-26.824-6.77-33.027.196-3.984.89-17.953 10.84-29.363 9.36-10.738 21.727-13.238 32.695-15.45 20.586-4.16 37.868-.054 49.723 2.895 12.43 3.09 10.047 4.16 33.277 11.399 26.223 8.168 35.246 8.668 43.141 7.914 7.762-.739 17.695-1.832 25.34-9.47 6.715-6.702 8.262-15.046 9.281-21.05 0 0 .457-2.691.625-7.02H-.32v64.294c2.656 2.613 6.418 6.351 11.867 11.68 12.867 12.6 18.773 18.015 22.43 27.823Zm0 0"/></g><g clip-path="url(#k)"><path fill="#caaacd" d="M63.957 220.254c21.098-7.492 35.527-18.434 40.629-30.809.543-1.316 5.289-13.328 4.98-29.492-.113-6.027-1.168-14.914-12.207-44.215-2.39-6.336-4.402-11.386-6.18-15.855-5.113-12.856-7.69-19.305-8.816-30.656-.808-8.172-.492-14.997.957-20.282 1.18-4.316 2.825-6.633 3.957-7.992 3.078-3.695 7.313-6.441 12.606-8.16 4.226-1.371 8.008-1.703 9.613-1.852a32.956 32.956 0 0 1 3.07-.14c7.356 0 13.516 2.394 21.075 5.324 7.375 2.863 11.964 5.547 18.898 9.61 1.504.878 3.05 1.788 4.793 2.792 16.496 9.528 24.777 14.309 29.285 15.785 18.617 6.07 35.844 2.551 48.43-.019 5.406-1.106 13.582-2.773 23.469-7.293 6.171-2.824 24.953-11.414 34.597-27.207.024-.055 3.117-5.188 5.098-14.004.914-4.074 1.676-9.375 1.652-15.648h1.282c.027 5.441-.543 10.793-1.696 15.918-2.023 9.02-5.117 14.171-5.246 14.382-4.922 8.063-12.148 14.278-18.926 18.82-6.777 4.555-13.105 7.442-16.234 8.88-10.02 4.582-18.273 6.265-23.742 7.39-6.106 1.246-13.719 2.797-22.059 3.254-9.8.528-18.637-.535-27.012-3.273-4.64-1.508-12.957-6.317-29.523-15.89a670.982 670.982 0 0 1-4.8-2.798c-6.884-4.027-11.434-6.695-18.712-9.523-8.765-3.403-15.093-5.86-23.574-5.106-9.617.852-16.805 4.063-21.367 9.567-4.36 5.238-5.918 14.441-4.633 27.347 1.117 11.18 3.664 17.579 8.738 30.317 1.774 4.469 3.797 9.531 6.188 15.875 11.117 29.484 12.172 38.496 12.297 44.629.12 6.183-.477 12.468-1.77 18.672-1.246 5.992-2.73 9.914-3.312 11.32-2.672 6.473-7.79 12.555-15.223 18.09-7.05 5.25-15.848 9.77-26.148 13.425-16.297 5.793-35.23 8.934-53.618 8.934-.984 0-1.968-.008-2.945-.027-2.75-.051-5.476-.176-8.156-.36v-1.21c22.914 1.617 46.187-2.098 64.285-8.52Zm0 0"/></g><g clip-path="url(#l)"><path fill="#777cbb" d="M990.52 393.113c-2.278-6.11-2.368-10.406-1.356-14.101.316-1.149 1.555-5.223 6.383-9.844 6.73-6.45 19.59-13.164 29.277-11.77v-49.425c-12.058.726-26.687 5.125-38.691 13.3-5.52 3.758-19.012 12.934-23.863 29.555-2.946 10.09-1.7 19.453-.582 27.805.984 7.355 1.996 8.582 6.382 25.105 4.72 17.797 7.075 26.825 6.766 33.028-.191 3.984-.887 17.953-10.836 29.359-9.36 10.742-21.727 13.242-32.7 15.453-20.581 4.16-37.862.055-49.722-2.894-12.426-3.09-10.043-4.16-33.277-11.399-26.219-8.168-35.246-8.668-43.137-7.914-7.762.734-17.695 1.832-25.34 9.465-6.715 6.707-8.261 15.05-9.281 21.05 0 0-.457 2.696-.625 7.02h254.898v-64.289c-2.656-2.617-6.418-6.355-11.867-11.68-12.867-12.601-18.773-18.015-22.43-27.824Zm0 0"/></g><g clip-path="url(#m)"><path fill="#caaacd" d="M960.535 276.797c-21.094 7.492-35.527 18.433-40.625 30.808-.543 1.313-5.289 13.329-4.984 29.489.117 6.031 1.172 14.918 12.21 44.219 2.391 6.332 4.403 11.386 6.18 15.855 5.114 12.852 7.692 19.305 8.817 30.656.808 8.172.492 14.996-.961 20.278-1.176 4.32-2.82 6.636-3.953 7.996-3.078 3.695-7.313 6.441-12.606 8.16-4.226 1.367-8.008 1.703-9.617 1.851-1.043.098-2.062.141-3.066.141-7.356 0-13.52-2.395-21.078-5.328-7.375-2.86-11.961-5.543-18.895-9.606-1.504-.878-3.05-1.793-4.793-2.793-16.496-9.527-24.777-14.308-29.285-15.785-18.617-6.07-35.844-2.554-48.43.02-5.406 1.105-13.582 2.77-23.469 7.289-6.171 2.828-24.953 11.418-34.597 27.21-.028.055-3.121 5.188-5.098 14.005-.914 4.074-1.68 9.37-1.652 15.644h-1.281c-.028-5.437.543-10.793 1.695-15.914 2.02-9.023 5.113-14.172 5.246-14.383 4.922-8.062 12.148-14.277 18.926-18.82 6.777-4.555 13.105-7.441 16.234-8.883 10.02-4.578 18.274-6.265 23.738-7.386 6.11-1.247 13.723-2.801 22.063-3.254 9.8-.528 18.633.535 27.012 3.27 4.64 1.51 12.953 6.32 29.523 15.89 1.742 1.012 3.297 1.914 4.8 2.8 6.88 4.028 11.434 6.696 18.712 9.52 8.761 3.406 15.094 5.863 23.574 5.11 9.617-.852 16.805-4.063 21.367-9.567 4.36-5.238 5.914-14.441 4.633-27.351-1.117-11.176-3.664-17.575-8.738-30.317-1.774-4.465-3.797-9.527-6.188-15.871-11.117-29.484-12.172-38.496-12.297-44.629-.12-6.187.477-12.469 1.766-18.672 1.25-5.992 2.734-9.914 3.316-11.32 2.672-6.477 7.786-12.555 15.223-18.094 7.05-5.246 15.848-9.765 26.148-13.426 16.297-5.789 35.23-8.93 53.618-8.93.984 0 1.968.009 2.945.024 2.75.055 5.477.176 8.156.363v1.211c-22.914-1.617-46.191 2.094-64.289 8.52Zm0 0"/></g></svg>