<svg xmlns="http://www.w3.org/2000/svg" width="1024" height="768" version="1.0" viewBox="0 0 768 576"><defs><clipPath id="b"><path d="m42.176 141.531 119.8 27.871-61.69 265.168-119.802-27.87Zm0 0"/></clipPath><clipPath id="p"><path d="m42.176 141.531 119.8 27.871-61.69 265.168-119.802-27.87Zm0 0"/></clipPath><clipPath id="c"><path d="m42.176 141.531 119.8 27.871-61.69 265.168-119.802-27.87Zm0 0"/></clipPath><clipPath id="d"><path d="m42.176 141.531 119.8 27.871-61.69 265.168-119.802-27.87Zm0 0"/></clipPath><clipPath id="e"><path d="M99 172h40v41H99Zm0 0"/></clipPath><clipPath id="f"><path d="m42.176 141.531 119.8 27.871-61.69 265.168-119.802-27.87Zm0 0"/></clipPath><clipPath id="g"><path d="m42.176 141.531 119.8 27.871-61.69 265.168-119.802-27.87Zm0 0"/></clipPath><clipPath id="h"><path d="m42.176 141.531 119.8 27.871-61.69 265.168-119.802-27.87Zm0 0"/></clipPath><clipPath id="i"><path d="M127 162h8v17h-8Zm0 0"/></clipPath><clipPath id="j"><path d="m42.176 141.531 119.8 27.871-61.69 265.168-119.802-27.87Zm0 0"/></clipPath><clipPath id="k"><path d="m42.176 141.531 119.8 27.871-61.69 265.168-119.802-27.87Zm0 0"/></clipPath><clipPath id="l"><path d="m42.176 141.531 119.8 27.871-61.69 265.168-119.802-27.87Zm0 0"/></clipPath><clipPath id="m"><path d="M98 232h41v30H98Zm0 0"/></clipPath><clipPath id="n"><path d="m42.176 141.531 119.8 27.871-61.69 265.168-119.802-27.87Zm0 0"/></clipPath><clipPath id="o"><path d="m42.176 141.531 119.8 27.871-61.69 265.168-119.802-27.87Zm0 0"/></clipPath><clipPath id="a"><path d="M86 161h43v51H86Zm0 0"/></clipPath><clipPath id="q"><path d="M18 207h77v209H18Zm0 0"/></clipPath><clipPath id="r"><path d="m42.176 141.531 119.8 27.871-61.69 265.168-119.802-27.87Zm0 0"/></clipPath><clipPath id="s"><path d="m42.176 141.531 119.8 27.871-61.69 265.168-119.802-27.87Zm0 0"/></clipPath><clipPath id="t"><path d="m42.176 141.531 119.8 27.871-61.69 265.168-119.802-27.87Zm0 0"/></clipPath><clipPath id="u"><path d="M23 251h78v105H23Zm0 0"/></clipPath><clipPath id="v"><path d="m42.176 141.531 119.8 27.871-61.69 265.168-119.802-27.87Zm0 0"/></clipPath><clipPath id="w"><path d="m42.176 141.531 119.8 27.871-61.69 265.168-119.802-27.87Zm0 0"/></clipPath><clipPath id="x"><path d="m42.176 141.531 119.8 27.871-61.69 265.168-119.802-27.87Zm0 0"/></clipPath><clipPath id="y"><path d="M15 178h118v187H15Zm0 0"/></clipPath><clipPath id="z"><path d="m42.176 141.531 119.8 27.871-61.69 265.168-119.802-27.87Zm0 0"/></clipPath><clipPath id="A"><path d="m42.176 141.531 119.8 27.871-61.69 265.168-119.802-27.87Zm0 0"/></clipPath><clipPath id="B"><path d="m42.176 141.531 119.8 27.871-61.69 265.168-119.802-27.87Zm0 0"/></clipPath><clipPath id="C"><path d="M0 0h269.719v206.25H0Zm0 0"/></clipPath><clipPath id="D"><path d="M519 390h249v185.992H519Zm0 0"/></clipPath><clipPath id="E"><path d="M473.527 350.254H768v225.738H473.527Zm0 0"/></clipPath></defs><path fill="#fff" d="M-76.8-57.6h921.6v691.2H-76.8z"/><path fill="#fff" d="M-76.8-57.6h921.6v691.2H-76.8z"/><path fill="#fff" d="M-76.8-57.6h921.6v691.2H-76.8z"/><path fill="#fff" d="M433.93 308.402c-2.93-7.851 1.52-11.59 2.343-17.367.829-5.781 9.418-28.504 33.176-34.3 23.758-5.798 36.461-4.965 41.38 7.445 4.921 12.406 4.5 31-6.15 36.37-10.648 5.372-42.902 17.665-48.34 19.41-11.472 3.724-20.241-5.745-22.41-11.558Zm0 0"/><g clip-path="url(#a)"><g clip-path="url(#b)"><g clip-path="url(#c)"><g clip-path="url(#d)"><path fill="#010101" d="M101.21 210.18c-4.67-.618-8.44-3.848-10.741-7.856-2.516-4.586-2.832-9.781-1.512-14.715 1.3-4.816 4.16-9.035 7.52-12.613 3.191-3.375 6.742-6.258 10.988-8.094 4.324-1.937 9-2.851 13.594-3.902 1.605-.332 6.468-1.555 5.812 1.527-.207 1.133-.824 2.282-1.195 3.371-.465 1.485-.817 2.993-1.235 4.543-.363 1.563-.726 3.125-1.203 4.664-.46 1.48-1.105 2.98-1.62 4.45-.829 2.043-1.59 4.043-2.43 6.144-.696 1.723-1.333 3.457-2.083 5.164-1.355 3.043-3.109 6.047-5.039 8.778-1.597 2.336-3.27 4.71-5.57 6.53-2.027 1.65-4.363 2.34-6.953 1.856-.836-.195-1.602-.433-2.426-.683-.82-.25-1.11.98-.297 1.285 1.996.758 4.082 1.129 6.215.8 2.754-.48 5-2.546 6.824-4.593 3.286-3.77 6.008-8.137 8.114-12.652.683-1.43 1.203-2.899 1.82-4.286 1.867-4.746 4.082-9.468 5.363-14.468.797-3.168 1.524-6.297 2.707-9.375.348-.977.664-2.082.203-3.133-.418-.977-1.437-1.39-2.414-1.5-2.683-.332-5.554.648-8.152 1.223-2.422.554-4.965 1.14-7.34 2-4.719 1.609-9.012 4.14-12.644 7.652-3.555 3.41-6.825 7.36-8.664 11.992-2.102 4.984-2.676 10.738-.887 15.922 1.586 4.547 4.898 8.734 9.512 10.629 1.074.426 2.273.824 3.425.918.86-.156 1.172-1.496.309-1.578Zm0 0"/></g></g></g></g><g clip-path="url(#e)"><g clip-path="url(#f)"><g clip-path="url(#g)"><g clip-path="url(#h)"><path fill="#010101" d="m121.012 186.418 12.297-9.68c.875-.738 1.879-1.504 2.742-2.187.137-.086.367-.324.523-.23.406.273.016 1.945.008 2.238-.172 1.492-.508 2.941-.902 4.382-1.696 6.02-5.22 11.32-9.055 16.2-1.988 2.48-4.047 4.765-6.008 7.136-1.61 1.864-3.144 3.918-5.36 5.11-4.468 2.55-9.987 2.031-14.73.457-.824-.25-1.109.976-.3 1.285 4.464 1.508 9.484 1.91 13.937.18 2.523-1 4.387-2.688 6.156-4.746 2.18-2.555 4.39-4.985 6.528-7.606 4.191-5.144 7.949-10.687 9.902-17.062.488-1.594.82-3.282 1.086-4.926.137-1.086.512-2.707-.32-3.664-1.145-1.149-2.493.36-3.29 1-4.617 3.691-9.21 7.273-13.87 10.898-.727.598 0 1.766.656 1.215Zm0 0"/></g></g></g></g><g clip-path="url(#i)"><g clip-path="url(#j)"><g clip-path="url(#k)"><g clip-path="url(#l)"><path fill="#010101" d="M128.406 165.238c1.074-.574 2.922-1.437 4.012-.832.687.336.785 1.422.84 2.2.015 2.71-.98 5.48-1.969 7.957-.332.921-.789 1.878-1.176 2.789-.363.796.797 1.363 1.203.632 1.086-2.398 2.075-4.875 2.727-7.43.535-2.054 1.516-6.003-.89-7.273-1.669-.914-3.844.11-5.372.871-.789.348-.105 1.45.625 1.086Zm0 0"/></g></g></g></g><g clip-path="url(#m)"><g clip-path="url(#n)"><g clip-path="url(#o)"><g clip-path="url(#p)"><path fill="#010101" d="M109.21 245.473c6.02-1.13 12.09-1.72 18.196-1.711 1.543-.055 3.055.004 4.57.062.692.043 1.458.043 2.094.074.696.047 1.723-.07 2.16.563.766 1.004.352 2.789-.007 3.824-.465 1.246-1.352 2.274-2.266 3.18-1.902 1.855-4.336 3.23-6.719 4.383-2.449 1.195-5.086 2.172-7.726 2.91-2.692.726-5.39 1.219-8.137 1.402-2.758.242-5.813.238-7.816-1.992-1.586-1.781-2.192-4.219-2.797-6.422-.766-2.766-1.38-5.676.23-8.305 1.418-2.316 3.88-3.804 6.11-5.05a40.145 40.145 0 0 1 7.39-2.989c5.098-1.464 10.477-1.859 15.695-1.058 1.184.215 2.696.273 3.723 1.16.887.734 1.211 1.871 1.254 2.941.016 2.711-2.172 4.793-4.074 6.41a61.375 61.375 0 0 1-14.473 8.934c-2.48 1.07-5.129 2.102-7.867 1.996-2.441-.097-4.848-1.129-6.637-2.781-.925-.805-1.636-1.793-2.277-2.824-.414-.746-1.527-.004-1.102.683a11.318 11.318 0 0 0 5.774 5.23c2.672 1.15 5.418 1.2 8.172.489 2.996-.777 5.918-2.215 8.668-3.695 2.808-1.465 5.515-3.25 8.054-5.07 2.344-1.75 5.02-3.66 6.352-6.352 1.008-2.059 1.074-4.871-.621-6.676-.93-1.043-2.324-1.367-3.688-1.566-1.46-.282-2.906-.383-4.28-.524a41.272 41.272 0 0 0-8.864.469c-2.88.508-5.656 1.332-8.371 2.406-2.66 1.09-5.332 2.469-7.551 4.426-2.328 1.93-3.8 4.473-3.695 7.555.05 1.543.453 3.11.863 4.617.355 1.258.738 2.644 1.215 3.871 1.066 2.484 2.765 4.531 5.511 5.344 2.942.746 6.348.242 9.293-.309 5.883-1.043 11.942-3.11 16.91-6.543 2.31-1.582 4.563-3.707 5.282-6.539.328-1.16.457-2.719-.156-3.863-.704-1.281-2.079-1.426-3.368-1.434-6.78-.398-13.617-.047-20.359.914a53.071 53.071 0 0 0-4.957.852c-.918-.098-.52 1.23.293 1.008Zm0 0"/></g></g></g></g><g clip-path="url(#q)"><g clip-path="url(#r)"><g clip-path="url(#s)"><g clip-path="url(#t)"><path fill="#010101" d="M19.93 414.64c-.489-13.062.082-26.113 1.613-39 1.895-16.218 5.387-32.238 10.441-47.66 4.582-13.886 10.473-27.347 16.703-40.496 5.399-11.574 11.114-23.015 17.293-34.175a475.865 475.865 0 0 1 24.887-40.063c1.235-1.773 2.469-3.547 3.703-5.316.516-.707-.699-1.282-1.203-.633-9.355 13.183-18.004 26.887-26.094 40.957-6.43 11.219-12.257 22.633-17.832 34.226-6.23 13.149-12.32 26.446-17.152 40.157-5.46 15.386-9.219 31.285-11.434 47.37-1.921 13.56-2.703 27.27-2.472 40.919.062 1.25.043 2.601.105 3.851.176.746 1.414.743 1.442-.136Zm0 0"/></g></g></g></g><g clip-path="url(#u)"><g clip-path="url(#v)"><g clip-path="url(#w)"><g clip-path="url(#x)"><path fill="#010101" d="M24.758 355.258c8.226-15.922 16.762-31.653 25.703-47.113 4.215-7.258 8.43-14.52 12.898-21.602 4.13-6.395 8.723-12.508 14.121-17.785 6.711-6.621 14.438-12.063 22.864-16.223.73-.363.117-1.504-.684-1.101a86.475 86.475 0 0 0-20.719 14.074c-5.812 5.297-10.742 11.332-15.148 17.898-4.488 6.668-8.469 13.688-12.55 20.625-4.688 8.031-9.333 16.133-13.759 24.285-4.785 8.72-9.406 17.473-13.988 26.293-.293.758.844 1.434 1.262.649Zm0 0"/></g></g></g></g><g clip-path="url(#y)"><g clip-path="url(#z)"><g clip-path="url(#A)"><g clip-path="url(#B)"><path fill="#010101" d="M21.75 364.152c.121-12.39-1.559-24.613-3.004-36.84-1.469-12.113-2.789-24.367-2.039-36.671.84-13.461 4.953-26.336 8.926-39.125a1278.11 1278.11 0 0 1 6.363-19.77c2.145-6.445 4.5-12.785 6.715-19.273 2.043-6 3.898-12.22 4.27-18.606.238-5.066 0-12.363-5.372-14.789-1.047-.539-2.312-.656-3.53-.469-.306.047-.579.22-.59.512-.333 2.688.113 5.324.683 7.926.683 2.867 1.27 5.652 1.91 8.45 1.313 5.722 2.566 11.429 3.879 17.148 2.602 11.554 5.227 22.996 7.824 34.546 2.61 11.496 5.235 22.938 7.793 34.422 2.121 9.559 2.684 19.52 1.2 29.18-.65 4.559-1.801 8.996-3.22 13.316-.87 2.743-1.8 5.47-3.046 8.063-1.278 2.703-2.86 5.219-4.555 7.71a65.551 65.551 0 0 1-4.543 5.888 72.037 72.037 0 0 1-2.77 3.066c-.695.719-1.878 2.27-2.859 2.453-1.457.191-1.469-2.285-1.273-3.121.258-1.352.945-2.547 1.675-3.672 1.454-2.191 3.098-4.223 4.704-6.32 3.14-4.156 6.46-8.328 10.007-12.211 6.082-6.707 13.082-12.555 20.82-17.29 16.712-10.238 36.204-15.238 55.794-14.859 1.582.016 3.207.098 4.832.184.636.031.804-.934.297-1.285-5.036-2.586-10.524 2.32-14.352 5.137-4.68 3.445-9.3 6.898-13.836 10.496-9.129 7.175-18.23 14.476-27.941 20.867-5.465 3.555-11.117 6.89-17 9.703-.727.36-.102 1.445.683 1.098 10.18-4.871 19.575-11.16 28.657-17.875 9.035-6.786 17.832-14.04 26.914-20.758a181.756 181.756 0 0 1 7.613-5.469c2.5-1.652 5.746-3.488 8.754-2.023.105-.446.195-.836.297-1.286-8.223-.5-16.407-.168-24.532 1.18-10.812 1.781-21.273 5.352-30.976 10.453-8.04 4.25-15.684 9.594-22.23 16.016-3.938 3.793-7.505 8.023-10.837 12.254-1.742 2.183-3.44 4.437-5.128 6.633-1.536 2.058-3.348 4.046-4.422 6.39-.903 1.848-1.512 4.473-.04 6.227 1.653 1.976 3.813-.23 5.04-1.473 3.539-3.594 6.722-7.68 9.472-11.926 1.262-1.882 2.504-3.949 3.403-6.035 1.5-3.418 2.758-7.066 3.824-10.644 2.965-9.965 3.906-20.578 2.797-30.957-.528-4.54-1.531-9.07-2.547-13.543-1.313-5.957-2.7-11.871-4.07-17.84-2.676-11.985-5.434-23.867-8.106-35.848-2.676-11.984-5.433-23.867-8.11-35.847-.581-2.786-1.335-5.61-.855-8.442-.148.145-.437.371-.586.512 2.88-.508 5.368 1.66 6.422 4.203 1.125 2.734 1.219 5.875 1.125 8.797-.12 6.328-1.922 12.558-3.953 18.504-2.121 6.332-4.45 12.558-6.555 18.84a1234.19 1234.19 0 0 0-6.234 19.207c-3.922 12.566-8.047 25.261-9.27 38.34-1.074 11.933.02 23.902 1.403 35.878 1.383 11.977 3.129 23.918 3.375 35.98.055 1.544.008 3.005.004 4.536-.426 1.078.89.973.906.152Zm0 0"/></g></g></g></g><path fill="#777cbb" d="M30.441 92.977c2.04 5.472 2.118 9.324 1.211 12.632-.285 1.028-1.394 4.676-5.715 8.817-6.027 5.777-17.542 11.793-26.218 10.543v44.273c10.8-.652 23.898-4.59 34.648-11.914 4.946-3.363 17.028-11.586 21.371-26.473 2.637-9.039 1.52-17.425.52-24.91-.883-6.586-1.785-7.687-5.715-22.484-4.227-15.941-6.336-24.031-6.059-29.586.172-3.57.793-16.082 9.703-26.3 8.383-9.622 19.458-11.86 29.282-13.84 18.433-3.727 33.91-.047 44.527 2.593 11.129 2.766 8.996 3.727 29.8 10.211 23.481 7.316 31.563 7.766 38.634 7.09 6.949-.66 15.843-1.645 22.691-8.48 6.016-6.008 7.399-13.481 8.313-18.86 0 0 .41-2.41.558-6.285H-.273v57.59c2.378 2.34 5.746 5.687 10.625 10.46 11.523 11.286 16.812 16.137 20.09 24.923Zm0 0"/><g clip-path="url(#C)"><path fill="#caaacd" d="M57.29 197.168c18.89-6.711 31.815-16.512 36.382-27.594.484-1.18 4.738-11.941 4.46-26.418-.1-5.398-1.046-13.363-10.933-39.605-2.14-5.676-3.941-10.203-5.531-14.203-4.582-11.516-6.89-17.293-7.895-27.465-.726-7.317-.441-13.43.856-18.164 1.055-3.867 2.527-5.942 3.543-7.16 2.754-3.309 6.547-5.77 11.289-7.309 3.785-1.227 7.168-1.523 8.61-1.66a29.972 29.972 0 0 1 2.745-.125c6.59 0 12.106 2.144 18.875 4.77 6.606 2.562 10.715 4.968 16.926 8.609 1.344.785 2.73 1.601 4.29 2.5 14.773 8.535 22.187 12.816 26.226 14.136 16.672 5.442 32.097 2.29 43.37-.015 4.84-.988 12.161-2.48 21.017-6.531 5.527-2.532 22.347-10.223 30.98-24.371.023-.047 2.797-4.645 4.566-12.547.817-3.645 1.504-8.395 1.48-14.012h1.15c.023 4.871-.489 9.668-1.52 14.258-1.809 8.078-4.582 12.691-4.7 12.883-4.406 7.222-10.878 12.785-16.945 16.859-6.07 4.078-11.738 6.664-14.539 7.953-8.972 4.102-16.363 5.613-21.262 6.617-5.468 1.117-12.285 2.508-19.753 2.918-8.778.469-16.688-.48-24.192-2.933-4.156-1.352-11.601-5.66-26.437-14.235a478.917 478.917 0 0 1-4.297-2.508c-6.164-3.605-10.242-5.996-16.758-8.527-7.848-3.05-13.516-5.25-21.113-4.574-8.61.762-15.051 3.64-19.133 8.566-3.906 4.696-5.3 12.938-4.149 24.5 1 10.016 3.282 15.742 7.825 27.157 1.59 4 3.398 8.535 5.539 14.218 9.957 26.41 10.902 34.48 11.011 39.977.11 5.539-.425 11.168-1.582 16.726-1.117 5.368-2.445 8.88-2.964 10.137-2.395 5.8-6.977 11.25-13.633 16.207-6.317 4.703-14.196 8.75-23.418 12.027-14.594 5.188-31.551 8-48.016 8-.883 0-1.762-.007-2.637-.023a148.753 148.753 0 0 1-7.304-.32V204.8c20.52 1.445 41.363-1.88 57.57-7.633Zm0 0"/></g><g clip-path="url(#D)"><path fill="#777cbb" d="M734.738 474.227c-2.226-5.989-2.312-10.204-1.324-13.825.313-1.129 1.524-5.12 6.238-9.656 6.582-6.32 19.157-12.902 28.625-11.535V390.75c-11.789.715-26.09 5.023-37.824 13.043-5.398 3.68-18.59 12.68-23.332 28.973-2.879 9.894-1.656 19.074-.566 27.265.96 7.207 1.949 8.414 6.238 24.614 4.613 17.445 6.918 26.3 6.617 32.382-.191 3.907-.867 17.602-10.594 28.785-9.152 10.532-21.242 12.981-31.968 15.149-20.121 4.078-37.016.055-48.61-2.836-12.148-3.031-9.82-4.078-32.531-11.176-25.633-8.011-34.457-8.5-42.172-7.761-7.59.722-17.297 1.796-24.773 9.285-6.567 6.57-8.078 14.754-9.074 20.636 0 0-.446 2.641-.61 6.883H768.27v-63.035c-2.598-2.562-6.274-6.23-11.602-11.45-12.578-12.355-18.356-17.663-21.93-27.28Zm0 0"/></g><g clip-path="url(#E)"><path fill="#caaacd" d="M705.43 360.184c-20.625 7.347-34.735 18.074-39.715 30.203-.535 1.293-5.176 13.07-4.875 28.918.113 5.91 1.144 14.625 11.937 43.351 2.336 6.211 4.305 11.164 6.04 15.543 5 12.606 7.519 18.93 8.62 30.063.79 8.008.481 14.699-.937 19.879-1.152 4.234-2.758 6.504-3.867 7.84-3.008 3.62-7.149 6.312-12.324 8-4.133 1.34-7.829 1.667-9.399 1.816a32.71 32.71 0 0 1-3 .137c-7.191 0-13.215-2.348-20.605-5.223-7.207-2.805-11.696-5.438-18.473-9.422-1.469-.86-2.984-1.754-4.684-2.734-16.128-9.344-24.222-14.032-28.632-15.477-18.2-5.953-35.04-2.504-47.344.016-5.285 1.086-13.277 2.718-22.945 7.148-6.032 2.774-24.395 11.196-33.82 26.68-.028.05-3.052 5.086-4.985 13.73-.895 3.993-1.64 9.188-1.613 15.34h-1.258c-.024-5.332.535-10.582 1.66-15.605 1.976-8.844 5-13.895 5.129-14.102 4.812-7.906 11.875-13.996 18.5-18.453 6.625-4.465 12.812-7.297 15.87-8.707 9.798-4.492 17.868-6.14 23.212-7.242 5.973-1.223 13.414-2.746 21.566-3.192 9.582-.52 18.219.524 26.407 3.207 4.539 1.48 12.664 6.196 28.863 15.582 1.703.989 3.222 1.875 4.691 2.743 6.73 3.949 11.18 6.566 18.293 9.336 8.57 3.336 14.754 5.746 23.047 5.007 9.402-.836 16.43-3.984 20.89-9.379 4.262-5.136 5.782-14.16 4.528-26.816-1.09-10.96-3.582-17.23-8.543-29.723-1.734-4.378-3.71-9.343-6.047-15.562-10.87-28.906-11.902-37.742-12.023-43.758a82.217 82.217 0 0 1 1.73-18.305c1.219-5.878 2.672-9.722 3.239-11.101 2.613-6.348 7.613-12.309 14.882-17.738 6.89-5.145 15.492-9.575 25.563-13.164 15.93-5.676 34.441-8.758 52.418-8.758a159.818 159.818 0 0 1 10.851.379v1.187c-22.402-1.582-45.156 2.059-62.847 8.356Zm0 0"/></g></svg>