<svg xmlns="http://www.w3.org/2000/svg" width="1024" height="768" version="1.0" viewBox="0 0 768 576"><defs><clipPath id="b"><path d="M21.148 178.066 111 198.97 64.941 396.934l-89.851-20.907Zm0 0"/></clipPath><clipPath id="q"><path d="M3 227h58v156H3Zm0 0"/></clipPath><clipPath id="c"><path d="M21.148 178.066 111 198.97 64.941 396.934l-89.851-20.907Zm0 0"/></clipPath><clipPath id="d"><path d="M21.148 178.066 111 198.97 64.941 396.934l-89.851-20.907Zm0 0"/></clipPath><clipPath id="e"><path d="M64 201h30v31H64Zm0 0"/></clipPath><clipPath id="f"><path d="M21.148 178.066 111 198.97 64.941 396.934l-89.851-20.907Zm0 0"/></clipPath><clipPath id="g"><path d="M21.148 178.066 111 198.97 64.941 396.934l-89.851-20.907Zm0 0"/></clipPath><clipPath id="h"><path d="M21.148 178.066 111 198.97 64.941 396.934l-89.851-20.907Zm0 0"/></clipPath><clipPath id="i"><path d="M85 194h6v12h-6Zm0 0"/></clipPath><clipPath id="j"><path d="M21.148 178.066 111 198.97 64.941 396.934l-89.851-20.907Zm0 0"/></clipPath><clipPath id="k"><path d="M21.148 178.066 111 198.97 64.941 396.934l-89.851-20.907Zm0 0"/></clipPath><clipPath id="l"><path d="M21.148 178.066 111 198.97 64.941 396.934l-89.851-20.907Zm0 0"/></clipPath><clipPath id="m"><path d="M63 246h31v22H63Zm0 0"/></clipPath><clipPath id="n"><path d="M21.148 178.066 111 198.97 64.941 396.934l-89.851-20.907Zm0 0"/></clipPath><clipPath id="o"><path d="M21.148 178.066 111 198.97 64.941 396.934l-89.851-20.907Zm0 0"/></clipPath><clipPath id="p"><path d="M21.148 178.066 111 198.97 64.941 396.934l-89.851-20.907Zm0 0"/></clipPath><clipPath id="a"><path d="M54 192h32v39H54Zm0 0"/></clipPath><clipPath id="r"><path d="M21.148 178.066 111 198.97 64.941 396.934l-89.851-20.907Zm0 0"/></clipPath><clipPath id="s"><path d="M21.148 178.066 111 198.97 64.941 396.934l-89.851-20.907Zm0 0"/></clipPath><clipPath id="t"><path d="M21.148 178.066 111 198.97 64.941 396.934l-89.851-20.907Zm0 0"/></clipPath><clipPath id="u"><path d="M7 260h59v78H7Zm0 0"/></clipPath><clipPath id="v"><path d="M21.148 178.066 111 198.97 64.941 396.934l-89.851-20.907Zm0 0"/></clipPath><clipPath id="w"><path d="M21.148 178.066 111 198.97 64.941 396.934l-89.851-20.907Zm0 0"/></clipPath><clipPath id="x"><path d="M21.148 178.066 111 198.97 64.941 396.934l-89.851-20.907Zm0 0"/></clipPath><clipPath id="y"><path d="M1 205h89v140H1Zm0 0"/></clipPath><clipPath id="z"><path d="M21.148 178.066 111 198.97 64.941 396.934l-89.851-20.907Zm0 0"/></clipPath><clipPath id="A"><path d="M21.148 178.066 111 198.97 64.941 396.934l-89.851-20.907Zm0 0"/></clipPath><clipPath id="B"><path d="M21.148 178.066 111 198.97 64.941 396.934l-89.851-20.907Zm0 0"/></clipPath><clipPath id="C"><path d="M.176 0H171v127H.176Zm0 0"/></clipPath><clipPath id="D"><path d="M.176 0H201v153.75H.176Zm0 0"/></clipPath><clipPath id="E"><path d="M519 390h249v185.992H519Zm0 0"/></clipPath><clipPath id="F"><path d="M473.527 350.254H768v225.738H473.527Zm0 0"/></clipPath></defs><path fill="#fff" d="M-76.8-57.6h921.6v691.2H-76.8z"/><path fill="#fff" d="M-76.8-57.6h921.6v691.2H-76.8z"/><path fill="#fff" d="M-76.8-57.6h921.6v691.2H-76.8z"/><path fill="#fff" d="M433.93 308.402c-2.93-7.851 1.52-11.59 2.343-17.367.829-5.781 9.418-28.504 33.176-34.3 23.758-5.798 36.461-4.965 41.38 7.445 4.921 12.406 4.5 31-6.15 36.37-10.648 5.372-42.902 17.665-48.34 19.41-11.472 3.724-20.241-5.745-22.41-11.558Zm0 0"/><g clip-path="url(#a)"><g clip-path="url(#b)"><g clip-path="url(#c)"><g clip-path="url(#d)"><path fill="#010101" d="M65.465 229.371c-3.504-.46-6.332-2.879-8.059-5.871-1.89-3.43-2.133-7.309-1.144-10.988.968-3.598 3.113-6.746 5.625-9.414 2.394-2.52 5.05-4.668 8.234-6.04 3.242-1.44 6.75-2.12 10.192-2.902 1.203-.246 4.847-1.156 4.359 1.149-.152.843-.617 1.699-.895 2.515-.347 1.106-.609 2.23-.922 3.387-.27 1.168-.543 2.336-.898 3.484-.344 1.106-.824 2.223-1.21 3.32-.622 1.528-1.188 3.02-1.817 4.587-.52 1.285-.996 2.582-1.559 3.855-1.012 2.27-2.328 4.512-3.77 6.55-1.199 1.743-2.449 3.517-4.175 4.876-1.52 1.226-3.27 1.742-5.211 1.379-.625-.145-1.203-.324-1.817-.512-.617-.187-.832.73-.226.957 1.5.57 3.066.848 4.664.602 2.062-.352 3.746-1.895 5.113-3.422 2.461-2.813 4.496-6.074 6.074-9.442.512-1.066.899-2.164 1.36-3.199 1.398-3.543 3.055-7.066 4.012-10.8.593-2.364 1.136-4.7 2.023-6.997.258-.73.496-1.554.148-2.34-.316-.73-1.078-1.042-1.808-1.125-2.012-.246-4.164.48-6.113.907-1.817.414-3.723.847-5.504 1.488-3.536 1.2-6.75 3.09-9.477 5.707-2.66 2.543-5.11 5.488-6.484 8.95-1.57 3.718-2 8.015-.653 11.886 1.192 3.398 3.68 6.527 7.137 7.945.809.32 1.707.617 2.574.688.64-.113.875-1.117.227-1.18Zm0 0"/></g></g></g></g><g clip-path="url(#e)"><g clip-path="url(#f)"><g clip-path="url(#g)"><g clip-path="url(#h)"><path fill="#010101" d="m80.297 211.645 9.21-7.22c.657-.55 1.407-1.12 2.055-1.632.102-.063.278-.242.391-.172.305.203.016 1.453.008 1.672-.125 1.113-.379 2.2-.672 3.273-1.266 4.493-3.906 8.45-6.777 12.086-1.489 1.852-3.032 3.559-4.5 5.328-1.203 1.387-2.352 2.922-4.012 3.81-3.352 1.901-7.488 1.51-11.047.331-.617-.187-.832.73-.223.957 3.348 1.133 7.11 1.438 10.45.149 1.89-.747 3.285-2.004 4.613-3.543 1.633-1.903 3.285-3.715 4.887-5.672 3.14-3.84 5.953-7.977 7.414-12.735.363-1.187.613-2.449.808-3.675.102-.813.383-2.02-.242-2.739-.86-.86-1.87.27-2.465.746a979.571 979.571 0 0 1-10.394 8.13c-.543.44.004 1.316.496.906Zm0 0"/></g></g></g></g><g clip-path="url(#i)"><g clip-path="url(#j)"><g clip-path="url(#k)"><g clip-path="url(#l)"><path fill="#010101" d="M85.824 195.836c.805-.43 2.188-1.074 3.008-.617.516.25.59 1.058.633 1.64.012 2.024-.735 4.09-1.473 5.942-.246.687-.59 1.398-.879 2.078-.273.598.598 1.02.903.473.812-1.786 1.55-3.637 2.039-5.543.398-1.536 1.129-4.485-.676-5.43-1.25-.688-2.883.074-4.027.644-.586.258-.075 1.082.472.813Zm0 0"/></g></g></g></g><g clip-path="url(#m)"><g clip-path="url(#n)"><g clip-path="url(#o)"><g clip-path="url(#p)"><path fill="#010101" d="M71.492 255.734a73.406 73.406 0 0 1 13.64-1.265c1.157-.04 2.294.008 3.427.05.52.032 1.093.036 1.574.06.52.03 1.289-.052 1.617.421.574.746.266 2.082-.004 2.855-.348.93-1.012 1.696-1.695 2.372-1.422 1.382-3.246 2.41-5.035 3.27a34.722 34.722 0 0 1-5.79 2.167c-2.019.54-4.042.902-6.101 1.04-2.066.179-4.355.171-5.863-1.497-1.188-1.332-1.645-3.152-2.102-4.793-.574-2.07-1.039-4.242.168-6.203 1.063-1.73 2.906-2.84 4.574-3.77a30.49 30.49 0 0 1 5.543-2.226c3.82-1.086 7.852-1.38 11.766-.778.887.165 2.023.208 2.793.872.664.55.91 1.398.941 2.195.016 2.023-1.625 3.578-3.05 4.785a45.958 45.958 0 0 1-10.844 6.66c-1.86.797-3.844 1.567-5.895 1.485-1.836-.075-3.636-.848-4.98-2.082-.696-.602-1.23-1.34-1.711-2.114-.313-.554-1.145 0-.824.512a8.473 8.473 0 0 0 4.332 3.91c2.004.86 4.066.902 6.125.371 2.25-.578 4.437-1.648 6.5-2.75 2.105-1.094 4.132-2.422 6.035-3.781 1.758-1.305 3.762-2.73 4.758-4.738.754-1.54.8-3.637-.47-4.989-.698-.777-1.745-1.02-2.769-1.171-1.093-.211-2.18-.286-3.21-.395a31.172 31.172 0 0 0-6.645.344c-2.156.379-4.238.992-6.274 1.793-1.996.808-3.996 1.836-5.66 3.297-1.742 1.441-2.843 3.336-2.765 5.64.043 1.153.343 2.32.652 3.446.266.941.555 1.976.914 2.894.8 1.856 2.074 3.383 4.137 3.996 2.203.555 4.758.184 6.969-.226 4.41-.774 8.953-2.313 12.675-4.871 1.727-1.18 3.418-2.766 3.953-4.883.247-.864.34-2.028-.12-2.883-.528-.957-1.56-1.066-2.528-1.07-5.082-.305-10.207-.047-15.266.664a40.364 40.364 0 0 0-3.714.632c-.688-.074-.387.918.222.754Zm0 0"/></g></g></g></g><g clip-path="url(#q)"><g clip-path="url(#r)"><g clip-path="url(#s)"><g clip-path="url(#t)"><path fill="#010101" d="M4.672 381.988c-.371-9.754.047-19.5 1.183-29.12 1.407-12.11 4.012-24.071 7.793-35.583 3.426-10.363 7.832-20.414 12.493-30.226 4.039-8.641 8.316-17.18 12.941-25.508a354.144 354.144 0 0 1 18.629-29.895c.926-1.324 1.848-2.648 2.773-3.969.387-.527-.527-.957-.902-.476-7.004 9.84-13.48 20.066-19.535 30.566-4.809 8.371-9.172 16.895-13.344 25.547-4.66 9.813-9.219 19.738-12.832 29.969-4.082 11.488-6.887 23.36-8.535 35.367-1.43 10.125-2.008 20.36-1.824 30.555.047.933.035 1.941.082 2.875.133.558 1.058.555 1.078-.102Zm0 0"/></g></g></g></g><g clip-path="url(#u)"><g clip-path="url(#v)"><g clip-path="url(#w)"><g clip-path="url(#x)"><path fill="#010101" d="M8.25 337.648c6.156-11.882 12.543-23.62 19.238-35.16 3.153-5.418 6.309-10.836 9.653-16.12 3.093-4.774 6.53-9.337 10.578-13.27 5.023-4.942 10.812-9 17.129-12.098.547-.27.086-1.125-.512-.824a64.71 64.71 0 0 0-15.527 10.496c-4.356 3.95-8.043 8.453-11.344 13.351-3.36 4.977-6.34 10.215-9.395 15.395-3.511 5.992-6.988 12.039-10.297 18.125-3.585 6.504-7.043 13.035-10.468 19.621-.22.566.633 1.07.945.484Zm0 0"/></g></g></g></g><g clip-path="url(#y)"><g clip-path="url(#z)"><g clip-path="url(#A)"><g clip-path="url(#B)"><path fill="#010101" d="M6 344.29c.082-9.255-1.188-18.384-2.277-27.513-1.114-9.047-2.11-18.199-1.559-27.386.621-10.051 3.691-19.66 6.664-29.211 1.54-4.914 3.129-9.86 4.754-14.754 1.605-4.813 3.367-9.543 5.023-14.387 1.524-4.48 2.915-9.121 3.188-13.894.172-3.782-.012-9.23-4.04-11.043-.788-.407-1.737-.493-2.648-.356-.23.035-.437.164-.44.383-.247 2.008.085 3.973.515 5.918.515 2.144.957 4.223 1.437 6.312.992 4.274 1.938 8.536 2.926 12.809 1.957 8.629 3.934 17.172 5.89 25.8 1.97 8.59 3.946 17.134 5.868 25.712 1.601 7.14 2.027 14.578.922 21.789-.48 3.402-1.34 6.719-2.399 9.945-.652 2.043-1.347 4.078-2.281 6.016-.957 2.02-2.14 3.894-3.41 5.754a48.689 48.689 0 0 1-3.403 4.394c-.664.77-1.378 1.57-2.074 2.285-.52.54-1.406 1.696-2.14 1.832-1.094.14-1.102-1.707-.957-2.332.191-1.011.707-1.902 1.254-2.742 1.085-1.637 2.32-3.152 3.519-4.715 2.352-3.101 4.84-6.215 7.496-9.113a71.098 71.098 0 0 1 15.598-12.89c12.523-7.633 27.136-11.352 41.824-11.055 1.188.011 2.402.074 3.621.14.48.024.606-.695.227-.96-3.782-1.934-7.891 1.722-10.758 3.824-3.508 2.57-6.969 5.148-10.367 7.828-6.84 5.351-13.66 10.797-20.934 15.562-4.098 2.649-8.332 5.137-12.742 7.23-.547.27-.074 1.083.516.825 7.628-3.633 14.667-8.32 21.468-13.328 6.774-5.063 13.364-10.473 20.168-15.48 1.867-1.41 3.77-2.77 5.703-4.079 1.875-1.234 4.309-2.601 6.563-1.504l.222-.957c-6.167-.383-12.3-.14-18.394.86-8.106 1.324-15.945 3.98-23.219 7.78-6.023 3.169-11.754 7.153-16.656 11.946-2.95 2.828-5.621 5.985-8.117 9.14-1.305 1.63-2.578 3.31-3.84 4.95-1.148 1.535-2.508 3.02-3.313 4.766-.671 1.382-1.128 3.34-.023 4.652 1.242 1.477 2.86-.168 3.781-1.098 2.649-2.68 5.032-5.726 7.09-8.894.945-1.406 1.875-2.95 2.547-4.508 1.121-2.55 2.062-5.273 2.863-7.945 2.215-7.438 2.91-15.36 2.07-23.114-.398-3.39-1.152-6.773-1.917-10.113-.993-4.45-2.036-8.867-3.067-13.328-2.015-8.95-4.094-17.824-6.105-26.773-2.016-8.95-4.094-17.825-6.106-26.774-.441-2.082-1.008-4.191-.648-6.305-.113.106-.328.278-.442.383 2.157-.379 4.028 1.242 4.82 3.14.844 2.044.915 4.388.848 6.571-.086 4.727-1.43 9.38-2.949 13.813-1.582 4.73-3.324 9.379-4.902 14.066a901.483 901.483 0 0 0-4.656 14.34c-2.93 9.379-6.016 18.855-6.922 28.621-.797 8.91.03 17.848 1.078 26.793 1.047 8.941 2.363 17.863 2.558 26.871.04 1.152.008 2.242.004 3.387-.316.8.668.726.68.113Zm0 0"/></g></g></g></g><g clip-path="url(#C)"><path fill="#777cbb" d="M23.047 69.313c1.515 4.078 1.574 6.949.902 9.414-.21.765-1.039 3.484-4.254 6.574-4.488 4.304-13.062 8.789-19.52 7.855v33.004c8.04-.484 17.79-3.422 25.794-8.883 3.68-2.507 12.676-8.632 15.91-19.73 1.965-6.738 1.133-12.992.387-18.57-.657-4.907-1.328-5.727-4.254-16.762-3.145-11.883-4.719-17.91-4.512-22.05.129-2.661.59-11.99 7.227-19.606 6.238-7.172 14.484-8.844 21.796-10.32 13.723-2.774 25.243-.036 33.149 1.933 8.285 2.062 6.7 2.777 22.183 7.613 17.48 5.453 23.5 5.79 28.762 5.285 5.172-.492 11.793-1.226 16.89-6.324C167.985 14.27 169.02 8.7 169.7 4.691c0 0 .305-1.796.414-4.687H.18v42.93c1.773 1.746 4.28 4.242 7.914 7.796 8.578 8.415 12.515 12.032 14.953 18.583Zm0 0"/></g><g clip-path="url(#D)"><path fill="#caaacd" d="M43.035 146.977c14.063-5 23.684-12.309 27.082-20.57.363-.88 3.528-8.9 3.324-19.692-.078-4.024-.78-9.961-8.14-29.524-1.594-4.23-2.938-7.605-4.121-10.586-3.41-8.585-5.125-12.89-5.875-20.472-.54-5.453-.328-10.012.636-13.54.786-2.882 1.883-4.429 2.637-5.34 2.05-2.464 4.875-4.3 8.402-5.448 2.82-.914 5.34-1.137 6.415-1.235a21.431 21.431 0 0 1 2.043-.093c4.906 0 9.011 1.597 14.05 3.554 4.918 1.91 7.977 3.703 12.602 6.418 1 .586 2.031 1.196 3.191 1.863 11 6.364 16.52 9.555 19.524 10.54 12.414 4.054 23.898 1.703 32.289-.012 3.601-.738 9.05-1.852 15.644-4.867 4.114-1.887 16.637-7.625 23.063-18.172.02-.035 2.082-3.461 3.398-9.352.61-2.715 1.121-6.254 1.102-10.445h.855a47.57 47.57 0 0 1-1.129 10.629c-1.347 6.023-3.41 9.46-3.5 9.601-3.28 5.387-8.097 9.536-12.613 12.57-4.52 3.04-8.738 4.97-10.824 5.93-6.68 3.059-12.184 4.184-15.828 4.93-4.07.832-9.145 1.871-14.707 2.176-6.532.351-12.422-.36-18.008-2.188-3.094-1.004-8.637-4.215-19.68-10.609a464.706 464.706 0 0 1-3.199-1.867c-4.59-2.692-7.625-4.473-12.477-6.36-5.843-2.273-10.062-3.914-15.714-3.41-6.415.57-11.207 2.715-14.247 6.387-2.906 3.5-3.945 9.645-3.09 18.262.747 7.465 2.446 11.738 5.825 20.246 1.183 2.98 2.531 6.363 4.125 10.597 7.414 19.688 8.117 25.704 8.2 29.801a55.99 55.99 0 0 1-1.177 12.465c-.832 4.004-1.824 6.621-2.21 7.559-1.782 4.324-5.192 8.386-10.15 12.082-4.698 3.504-10.566 6.52-17.433 8.965-10.863 3.867-23.484 5.964-35.742 5.964a109.476 109.476 0 0 1-7.402-.257v-.809c15.277 1.078 30.793-1.402 42.86-5.691Zm0 0"/></g><g clip-path="url(#E)"><path fill="#777cbb" d="M734.738 474.227c-2.226-5.989-2.312-10.204-1.324-13.825.313-1.129 1.524-5.12 6.238-9.656 6.582-6.32 19.157-12.902 28.625-11.535V390.75c-11.789.715-26.09 5.023-37.824 13.043-5.398 3.68-18.59 12.68-23.332 28.973-2.879 9.894-1.656 19.074-.566 27.265.96 7.207 1.949 8.414 6.238 24.614 4.613 17.445 6.918 26.3 6.617 32.382-.191 3.907-.867 17.602-10.594 28.785-9.152 10.532-21.242 12.981-31.968 15.149-20.121 4.078-37.016.055-48.61-2.836-12.148-3.031-9.82-4.078-32.531-11.176-25.633-8.011-34.457-8.5-42.172-7.761-7.59.722-17.297 1.796-24.773 9.285-6.567 6.57-8.078 14.754-9.074 20.636 0 0-.446 2.641-.61 6.883H768.27v-63.035c-2.598-2.562-6.274-6.23-11.602-11.45-12.578-12.355-18.356-17.663-21.93-27.28Zm0 0"/></g><g clip-path="url(#F)"><path fill="#caaacd" d="M705.43 360.184c-20.625 7.347-34.735 18.074-39.715 30.203-.535 1.293-5.176 13.07-4.875 28.918.113 5.91 1.144 14.625 11.937 43.351 2.336 6.211 4.305 11.164 6.04 15.543 5 12.606 7.519 18.93 8.62 30.063.79 8.008.481 14.699-.937 19.879-1.152 4.234-2.758 6.504-3.867 7.84-3.008 3.62-7.149 6.312-12.324 8-4.133 1.34-7.829 1.667-9.399 1.816a32.71 32.71 0 0 1-3 .137c-7.191 0-13.215-2.348-20.605-5.223-7.207-2.805-11.696-5.438-18.473-9.422-1.469-.86-2.984-1.754-4.684-2.734-16.128-9.344-24.222-14.032-28.632-15.477-18.2-5.953-35.04-2.504-47.344.016-5.285 1.086-13.277 2.718-22.945 7.148-6.032 2.774-24.395 11.196-33.82 26.68-.028.05-3.052 5.086-4.985 13.73-.895 3.993-1.64 9.188-1.613 15.34h-1.258c-.024-5.332.535-10.582 1.66-15.605 1.976-8.844 5-13.895 5.129-14.102 4.812-7.906 11.875-13.996 18.5-18.453 6.625-4.465 12.812-7.297 15.87-8.707 9.798-4.492 17.868-6.14 23.212-7.242 5.973-1.223 13.414-2.746 21.566-3.192 9.582-.52 18.219.524 26.407 3.207 4.539 1.48 12.664 6.196 28.863 15.582 1.703.989 3.222 1.875 4.691 2.743 6.73 3.949 11.18 6.566 18.293 9.336 8.57 3.336 14.754 5.746 23.047 5.007 9.402-.836 16.43-3.984 20.89-9.379 4.262-5.136 5.782-14.16 4.528-26.816-1.09-10.96-3.582-17.23-8.543-29.723-1.734-4.378-3.71-9.343-6.047-15.562-10.87-28.906-11.902-37.742-12.023-43.758a82.217 82.217 0 0 1 1.73-18.305c1.219-5.878 2.672-9.722 3.239-11.101 2.613-6.348 7.613-12.309 14.882-17.738 6.89-5.145 15.492-9.575 25.563-13.164 15.93-5.676 34.441-8.758 52.418-8.758a159.818 159.818 0 0 1 10.851.379v1.187c-22.402-1.582-45.156 2.059-62.847 8.356Zm0 0"/></g></svg>