<svg xmlns="http://www.w3.org/2000/svg" width="1366" height="768" version="1.0" viewBox="0 0 1024.5 576"><defs><clipPath id="a"><path d="M0 .14h1024v575.72H0Zm0 0"/></clipPath><clipPath id="b"><path d="M732 283h161v156H732Zm0 0"/></clipPath><clipPath id="c"><path d="m699.984 340.258 140.73-91.754 92.575 141.988-140.73 91.754Zm0 0"/></clipPath><clipPath id="d"><path d="m699.984 340.258 140.73-91.754 92.575 141.988-140.73 91.754Zm0 0"/></clipPath><clipPath id="e"><path d="M700 152h104v80.848H700Zm0 0"/></clipPath><clipPath id="f"><path d="M27 396h33v179.86H27Zm0 0"/></clipPath><clipPath id="g"><path d="M0 .14h255V190H0Zm0 0"/></clipPath><clipPath id="h"><path d="M0 .14h301.172v230.25H0Zm0 0"/></clipPath><clipPath id="i"><path d="M769 387h255v188.86H769Zm0 0"/></clipPath><clipPath id="j"><path d="M723.324 345.883H1024v229.976H723.324Zm0 0"/></clipPath></defs><g fill="#fff" clip-path="url(#a)"><path d="M0 .14h1024.5v583.5H0Zm0 0"/><path d="M0 .14h1024.5v576H0Zm0 0"/><path d="M0 .14h1024.5v576H0Zm0 0"/></g><path fill="#fff" d="M660.348 348.926c-8.711-23.156 4.523-34.176 6.976-51.219 2.453-17.039 28.008-84.047 98.645-101.133 70.64-17.09 108.414-14.633 123.043 21.95 14.625 36.581 13.375 91.41-18.29 107.246-31.66 15.84-127.562 52.085-143.73 57.234-34.117 10.976-60.195-16.942-66.644-34.078Zm0 0"/><g clip-path="url(#b)"><g clip-path="url(#c)"><g clip-path="url(#d)"><path fill="#d6e8f7" d="M880.36 405.75c-23.81 34.773-101.22 48.055-130.032 7.848-26.812-37.493-20.984-76.196 6.297-107.828a42.485 42.485 0 0 1 15.387-11.122c17.922-7.746 58.441-21.328 83.8.153 33.364 28.273 48.38 76.16 24.547 110.949Zm-27.188-102.887c-23.031-19.468-59.922-7.011-76.242.024A38.584 38.584 0 0 0 762.918 313c-24.883 28.797-30.277 63.95-5.95 97.922 26.087 36.43 96.544 24.191 118.29-7.399 21.742-31.59 8.207-75.078-22.086-100.66Zm0 0"/></g></g></g><g clip-path="url(#e)"><path fill="#cb962e" fill-rule="evenodd" d="M770.531 160.379a5.848 5.848 0 0 0-2.187 4.559c0 3.234 2.636 5.863 5.886 5.863 1.196 0 2.672-.348 4.06-1.492.776-.637 2.265-2.786 2.265-2.786s-.063.094-.09.13c.933-1.274 1.957-2.813 3.12-3.852a5.849 5.849 0 0 0 .446-8.278c-2.168-2.41-5.89-2.609-8.308-.445-1.743 1.559-3.383 3.77-4.774 5.68-.07.097-.258.375-.418.62Zm-19.676 8.07a5.84 5.84 0 0 0 2.02-5.18c-.387-3.109-2.223-4.546-4.7-5.035-.745-.148-2.593-.48-4.671 1.051-.285.207-1.723 1.73-2.102 2.09-1.382 1.305-2.62 2.668-3.847 4.117-.04.051-.438.45-.7.711a5.842 5.842 0 0 0-2.507 4.797c0 2.898 1.535 4.395 3.246 5.254 1.011.508 2.847 1.176 5.222.043.547-.258 3.485-2.95 3.743-3.254.937-1.11 1.879-2.156 2.937-3.156.203-.196 1.031-1.086 1.36-1.438Zm-39.496 10.856c.703-.621 2.723-2.422 3.176-2.922l1.7-2.063c.222-.265.492-.648.687-.93a5.838 5.838 0 0 0 1.105-5.605c-.605-1.851-1.765-2.808-2.863-3.383-1.351-.707-2.996-1.023-4.934-.254-.539.215-1.355.61-2.175 1.5-.125.137-.465.692-.864 1.168l-1.398 1.7c-.504.437-3.484 3.039-4.426 4.433-1.004 1.492-1.363 2.98-1.363 4.2 0 3.238 2.637 5.863 5.883 5.863a5.886 5.886 0 0 0 5.472-3.707Zm77.262 11.285a5.852 5.852 0 0 0-2.973 5.094c0 3.234 2.637 5.863 5.883 5.863 1.024 0 3.07-.39 5.051-2.27 1.715-1.629 4.664-5.761 5.348-6.437a5.855 5.855 0 0 0 .023-8.293 5.907 5.907 0 0 0-8.324-.02c-.59.582-4.192 5.051-5.008 6.063Zm-22.344 5.672a5.83 5.83 0 0 0 1.196-5.735c-1.016-3.074-4.344-4.746-7.43-3.73a5.953 5.953 0 0 0-2.082 1.183c-.371.317-1.43 1.836-1.871 2.47-1.32 1.562-2.582 3.296-4.02 4.726a5.847 5.847 0 0 0 0 8.289 5.899 5.899 0 0 0 8.32 0c1.72-1.707 3.247-3.77 4.829-5.613.16-.184.758-1.114 1.058-1.59Zm-46.566-6.645a156.886 156.886 0 0 1-7.027 7.465 5.847 5.847 0 0 0 0 8.29c2.293 2.288 6.023 2.288 8.32 0a167.12 167.12 0 0 0 7.562-8.032 5.848 5.848 0 0 0-.55-8.274 5.907 5.907 0 0 0-8.305.551Zm55.086 35.5a5.787 5.787 0 0 0 1.945-3.625c.43-3.207-1.84-6.156-5.058-6.582-1.012-.133-2.426-.086-3.954.856-.656.402-2.695 2.797-2.695 2.797s.203-.262.238-.301c-1.175 1.402-2.609 2.652-3.898 3.937a5.847 5.847 0 0 0 0 8.29c2.293 2.284 6.023 2.284 8.32 0 1.54-1.532 3.22-3.052 4.621-4.723l.48-.649"/></g><path fill="#010101" d="M65.93 398.18c-4.235.414-8.211-1.653-11.051-4.7-3.149-3.511-4.488-8.003-4.336-12.601.156-4.492 1.809-8.777 4.027-12.602 2.117-3.613 4.649-6.867 8.004-9.343 3.406-2.586 7.328-4.34 11.153-6.2 1.34-.62 5.367-2.683 5.418.157.05 1.03-.258 2.168-.36 3.199-.105 1.394-.105 2.789-.156 4.234 0 1.45 0 2.895-.102 4.34-.105 1.395-.363 2.84-.52 4.234-.308 1.961-.566 3.875-.874 5.887-.258 1.652-.465 3.305-.774 4.957-.57 2.945-1.5 5.942-2.632 8.73-.93 2.376-1.915 4.801-3.563 6.868-1.45 1.86-3.36 2.945-5.734 3.047-.774 0-1.496-.051-2.27-.102-.773-.055-.773 1.082 0 1.188 1.91.257 3.82.152 5.63-.57 2.32-.981 3.87-3.255 5.058-5.423 2.117-3.976 3.613-8.367 4.543-12.753.308-1.395.464-2.79.722-4.133.672-4.543 1.653-9.14 1.754-13.79.055-2.945.055-5.835.465-8.777.106-.93.156-1.964-.465-2.789-.566-.777-1.547-.93-2.426-.828-2.425.258-4.75 1.703-6.918 2.738-2.011.98-4.128 2.012-6.039 3.254-3.82 2.375-7.074 5.473-9.55 9.293-2.43 3.72-4.493 7.852-5.164 12.293-.829 4.801-.157 9.969 2.476 14.149 2.324 3.668 6.094 6.664 10.535 7.386 1.032.157 2.168.258 3.2.102.722-.309.722-1.547-.051-1.445Zm0 0"/><path fill="#010101" d="M78.473 373.29c2.945-3.669 5.886-7.333 8.832-11 .617-.83 1.34-1.704 1.96-2.481.102-.102.258-.36.41-.309.415.156.415 1.703.466 1.96.156 1.345.156 2.688.105 4.032-.258 5.63-2.273 11-4.648 16.059-1.239 2.582-2.578 5.012-3.82 7.488-1.032 1.965-1.962 4.082-3.665 5.578-3.406 3.149-8.363 3.82-12.855 3.41-.774-.054-.774 1.082 0 1.188 4.234.41 8.726-.258 12.289-2.688 2.012-1.394 3.3-3.254 4.437-5.422 1.395-2.687 2.84-5.27 4.184-8.003 2.633-5.372 4.8-11 5.215-16.993.101-1.496.05-3.046-.055-4.543-.101-.98-.101-2.48-1.031-3.152-1.238-.773-2.117.828-2.684 1.55-3.304 4.184-6.61 8.263-9.965 12.395-.515.672.36 1.551.825.93Zm0 0"/><path fill="#010101" d="M80.645 353.2c.824-.723 2.27-1.86 3.355-1.552.668.157.98 1.086 1.188 1.758.566 2.375.257 5.008-.106 7.383-.102.879-.309 1.809-.465 2.688-.152.773.98 1.03 1.188.308.465-2.324.828-4.7.879-7.074.05-1.91.101-5.578-2.274-6.195-1.652-.465-3.355.875-4.543 1.859-.617.46.207 1.29.778.824ZM80.18 427.512a88.673 88.673 0 0 1 15.64-5.215c1.344-.36 2.688-.617 4.028-.879.62-.102 1.293-.258 1.859-.36.621-.105 1.496-.413 2.012.051.879.723.879 2.375.777 3.356-.156 1.191-.723 2.273-1.344 3.254-1.289 2.015-3.148 3.719-5.007 5.219a41.883 41.883 0 0 1-6.196 4.128c-2.219 1.188-4.492 2.172-6.867 2.895-2.375.773-5.059 1.394-7.277-.156-1.758-1.239-2.79-3.254-3.77-5.063-1.238-2.27-2.375-4.699-1.496-7.332.773-2.324 2.633-4.133 4.336-5.68a36.387 36.387 0 0 1 5.883-4.132c4.183-2.325 8.828-3.77 13.578-4.133 1.086-.05 2.43-.309 3.512.262.93.464 1.445 1.394 1.703 2.324.57 2.375-.93 4.644-2.27 6.453a55.263 55.263 0 0 1-10.894 10.793c-1.961 1.445-4.078 2.894-6.504 3.36-2.168.41-4.492 0-6.403-1.087-.98-.515-1.808-1.238-2.582-2.015-.515-.567-1.343.312-.824.828a10.161 10.161 0 0 0 6.14 3.406c2.583.465 5.009-.05 7.282-1.238 2.477-1.29 4.75-3.149 6.867-5.008 2.168-1.86 4.18-3.977 6.04-6.094 1.702-2.015 3.663-4.234 4.284-6.87.465-2.013-.05-4.493-1.91-5.731-1.03-.723-2.324-.723-3.562-.621-1.344.05-2.633.257-3.871.414a37.355 37.355 0 0 0-7.692 2.218c-2.43 1.036-4.699 2.325-6.867 3.825-2.117 1.496-4.183 3.253-5.73 5.421-1.653 2.168-2.426 4.7-1.703 7.383.359 1.344 1.03 2.637 1.703 3.875.566 1.032 1.187 2.168 1.855 3.149 1.45 1.965 3.36 3.41 5.938 3.566 2.738.05 5.629-1.086 8.105-2.172 4.957-2.117 9.863-5.164 13.527-9.191 1.704-1.86 3.254-4.184 3.305-6.817.05-1.086-.156-2.48-.93-3.355-.875-.98-2.117-.828-3.25-.57-6.043 1.035-11.98 2.738-17.71 4.957a48.304 48.304 0 0 0-4.18 1.757c-.828.102-.207 1.188.465.825Zm0 0"/><g clip-path="url(#f)"><path fill="#010101" d="M36.293 594.164c-3.098-11.36-5.266-22.93-6.555-34.547-1.652-14.617-1.86-29.387-.57-43.949 1.187-13.117 3.617-26.133 6.402-38.938 2.375-11.257 5.063-22.464 8.211-33.515a428.488 428.488 0 0 1 13.68-40.23 7837.26 7837.26 0 0 1 2.168-5.423c.312-.726-.875-.984-1.188-.312-5.523 13.48-10.324 27.27-14.558 41.262-3.356 11.156-6.145 22.363-8.672 33.672-2.79 12.808-5.422 25.718-6.867 38.734-1.653 14.613-1.703 29.332-.364 43.894 1.086 12.293 3.204 24.481 6.196 36.41.312 1.083.57 2.274.879 3.356.308.621 1.394.363 1.238-.414Zm0 0"/></g><path fill="#010101" d="M28.395 541.078c3.976-15.648 8.261-31.195 12.96-46.582 2.22-7.23 4.438-14.46 6.918-21.59 2.32-6.453 5.11-12.754 8.778-18.488 4.543-7.176 10.219-13.527 16.777-18.898.567-.465-.207-1.344-.828-.829a77.972 77.972 0 0 0-15.332 16.579c-4.027 5.835-7.125 12.136-9.652 18.796-2.582 6.766-4.649 13.739-6.817 20.66-2.476 8.004-4.906 16.06-7.125 24.118-2.426 8.62-4.699 17.246-6.918 25.922-.101.722 1.032 1.086 1.239.312Zm0 0"/><path fill="#010101" d="M27.57 549.496c-2.425-10.898-6.402-21.277-10.172-31.71-3.77-10.329-7.433-20.813-9.293-31.763-2.011-11.98-1.03-24.117-.156-36.148.465-6.195.98-12.445 1.551-18.645.566-6.093 1.344-12.132 1.96-18.28.571-5.68.93-11.516-.05-17.196-.828-4.492-2.531-10.848-7.746-11.879-1.031-.258-2.168-.102-3.2.309-.257.105-.464.312-.413.57.258 2.426 1.187 4.648 2.222 6.816 1.188 2.375 2.27 4.7 3.407 7.024 2.324 4.75 4.593 9.504 6.918 14.254 4.644 9.605 9.293 19.105 13.937 28.714 4.649 9.551 9.293 19.055 13.89 28.61 3.821 7.953 6.348 16.578 7.02 25.355.364 4.133.258 8.262-.101 12.344-.207 2.582-.465 5.164-1.035 7.695-.567 2.633-1.446 5.164-2.426 7.696a59.513 59.513 0 0 1-2.785 6.093 66.776 66.776 0 0 1-1.809 3.25c-.465.778-1.187 2.38-2.016 2.739-1.238.465-1.753-1.703-1.753-2.477-.051-1.242.308-2.43.722-3.566.828-2.219 1.86-4.336 2.84-6.504 1.91-4.29 3.977-8.625 6.3-12.758 3.973-7.125 8.93-13.684 14.766-19.418 12.594-12.394 28.704-20.762 46-24.426 1.391-.312 2.84-.57 4.286-.828.566-.101.515-.98 0-1.187-4.957-1.239-8.778 4.183-11.567 7.437-3.406 3.977-6.762 7.953-10.015 12.031-6.559 8.16-13.063 16.422-20.29 24.016-4.078 4.234-8.363 8.313-12.96 11.98-.567.465.207 1.293.828.829 7.949-6.356 14.922-13.79 21.527-21.535 6.559-7.801 12.805-15.961 19.414-23.708a162.78 162.78 0 0 1 5.574-6.351c1.86-1.961 4.336-4.234 7.282-3.563v-1.187c-7.332 1.238-14.457 3.203-21.325 6.043-9.136 3.77-17.605 9.035-25.09 15.492-6.195 5.371-11.824 11.621-16.261 18.59-2.688 4.133-4.957 8.574-7.024 12.965-1.082 2.27-2.117 4.593-3.148 6.867-.93 2.117-2.117 4.234-2.582 6.508-.414 1.808-.414 4.234 1.238 5.472 1.86 1.395 3.305-.98 4.133-2.324 2.375-3.87 4.336-8.105 5.883-12.394.722-1.91 1.394-3.977 1.758-5.989.617-3.304.98-6.765 1.187-10.12.566-9.348-.777-18.852-3.875-27.735-1.39-3.875-3.2-7.645-5.008-11.36-2.375-4.96-4.8-9.867-7.226-14.824-4.801-9.965-9.653-19.832-14.457-29.797-4.801-9.968-9.653-19.832-14.453-29.796-1.086-2.325-2.325-4.649-2.48-7.23-.102.151-.31.41-.411.565 2.426-1.03 5.059.364 6.504 2.375 1.547 2.172 2.27 4.907 2.789 7.489 1.187 5.578.875 11.414.309 17.043-.57 5.992-1.344 11.93-1.91 17.867-.571 6.043-1.087 12.086-1.551 18.129-.875 11.824-1.91 23.808-.309 35.531 1.496 10.688 4.906 20.965 8.57 31.192 3.664 10.226 7.64 20.347 10.325 30.882.363 1.344.62 2.633.93 3.977-.153 1.031.98.672.827-.05Zm0 0"/><g clip-path="url(#g)"><path fill="#777cbb" d="M33.977 103.938c2.277 6.105 2.367 10.406 1.355 14.101-.316 1.148-1.555 5.219-6.383 9.844-6.73 6.449-19.59 13.164-29.277 11.765v49.43c12.058-.73 26.683-5.125 38.691-13.3 5.52-3.758 19.012-12.938 23.864-29.555 2.945-10.09 1.695-19.453.582-27.809-.985-7.352-1.996-8.582-6.383-25.102-4.719-17.796-7.074-26.824-6.77-33.027.196-3.984.89-17.953 10.84-29.363 9.36-10.738 21.727-13.238 32.695-15.45 20.586-4.16 37.868-.054 49.723 2.895 12.43 3.09 10.047 4.16 33.277 11.399 26.223 8.168 35.246 8.668 43.141 7.914 7.762-.739 17.695-1.832 25.34-9.47 6.715-6.702 8.262-15.046 9.281-21.05 0 0 .457-2.691.625-7.02H-.32v64.294c2.656 2.613 6.418 6.351 11.867 11.68 12.867 12.6 18.773 18.015 22.43 27.823Zm0 0"/></g><g clip-path="url(#h)"><path fill="#caaacd" d="M63.957 220.254c21.098-7.492 35.527-18.434 40.629-30.809.543-1.316 5.289-13.328 4.98-29.492-.113-6.027-1.168-14.914-12.207-44.215-2.39-6.336-4.402-11.386-6.18-15.855-5.113-12.856-7.69-19.305-8.816-30.656-.808-8.172-.492-14.997.957-20.282 1.18-4.316 2.825-6.633 3.957-7.992 3.078-3.695 7.313-6.441 12.606-8.16 4.226-1.371 8.008-1.703 9.613-1.852a32.956 32.956 0 0 1 3.07-.14c7.356 0 13.516 2.394 21.075 5.324 7.375 2.863 11.964 5.547 18.898 9.61 1.504.878 3.05 1.788 4.793 2.792 16.496 9.528 24.777 14.309 29.285 15.785 18.617 6.07 35.844 2.551 48.43-.019 5.406-1.106 13.582-2.773 23.469-7.293 6.171-2.824 24.953-11.414 34.597-27.207.024-.055 3.117-5.188 5.098-14.004.914-4.074 1.676-9.375 1.652-15.648h1.282c.027 5.441-.543 10.793-1.696 15.918-2.023 9.02-5.117 14.171-5.246 14.382-4.922 8.063-12.148 14.278-18.926 18.82-6.777 4.555-13.105 7.442-16.234 8.88-10.02 4.582-18.273 6.265-23.742 7.39-6.106 1.246-13.719 2.797-22.059 3.254-9.8.528-18.637-.535-27.012-3.273-4.64-1.508-12.957-6.317-29.523-15.89a670.982 670.982 0 0 1-4.8-2.798c-6.884-4.027-11.434-6.695-18.712-9.523-8.765-3.403-15.093-5.86-23.574-5.106-9.617.852-16.805 4.063-21.367 9.567-4.36 5.238-5.918 14.441-4.633 27.347 1.117 11.18 3.664 17.579 8.738 30.317 1.774 4.469 3.797 9.531 6.188 15.875 11.117 29.484 12.172 38.496 12.297 44.629.12 6.183-.477 12.468-1.77 18.672-1.246 5.992-2.73 9.914-3.312 11.32-2.672 6.473-7.79 12.555-15.223 18.09-7.05 5.25-15.848 9.77-26.148 13.425-16.297 5.793-35.23 8.934-53.618 8.934-.984 0-1.968-.008-2.945-.027-2.75-.051-5.476-.176-8.156-.36v-1.21c22.914 1.617 46.187-2.098 64.285-8.52Zm0 0"/></g><g clip-path="url(#i)"><path fill="#777cbb" d="M990.52 472.336c-2.278-6.11-2.368-10.41-1.356-14.102.316-1.152 1.555-5.222 6.383-9.847 6.73-6.45 19.59-13.16 29.277-11.766v-49.426c-12.058.727-26.687 5.121-38.691 13.301-5.52 3.754-19.012 12.934-23.863 29.555-2.946 10.09-1.7 19.453-.582 27.804.984 7.356 1.996 8.582 6.382 25.106 4.72 17.793 7.075 26.824 6.766 33.027-.191 3.985-.887 17.953-10.836 29.36-9.36 10.742-21.727 13.242-32.7 15.453-20.581 4.16-37.862.05-49.722-2.895-12.426-3.09-10.043-4.16-33.277-11.398-26.219-8.172-35.246-8.672-43.137-7.918-7.762.738-17.695 1.836-25.34 9.469-6.715 6.703-8.261 15.05-9.281 21.05 0 0-.457 2.696-.625 7.02h254.898v-64.293c-2.656-2.613-6.418-6.352-11.867-11.676-12.867-12.601-18.773-18.015-22.43-27.824Zm0 0"/></g><g clip-path="url(#j)"><path fill="#caaacd" d="M960.535 356.016c-21.094 7.496-35.527 18.437-40.625 30.808-.543 1.317-5.289 13.328-4.984 29.492.117 6.028 1.172 14.918 12.21 44.215 2.391 6.336 4.403 11.39 6.18 15.856 5.114 12.855 7.692 19.304 8.817 30.66.808 8.168.492 14.996-.961 20.277-1.176 4.317-2.82 6.633-3.953 7.996-3.078 3.692-7.313 6.438-12.606 8.16-4.226 1.368-8.008 1.7-9.617 1.852-1.043.094-2.062.14-3.066.14-7.356 0-13.52-2.398-21.078-5.327-7.375-2.86-11.961-5.547-18.895-9.61-1.504-.875-3.05-1.789-4.793-2.789-16.496-9.527-24.777-14.312-29.285-15.785-18.617-6.074-35.844-2.555-48.43.016-5.406 1.105-13.582 2.773-23.469 7.293-6.171 2.824-24.953 11.418-34.597 27.21-.028.051-3.121 5.184-5.098 14.004-.914 4.07-1.68 9.371-1.652 15.645h-1.281c-.028-5.442.543-10.793 1.695-15.918 2.02-9.02 5.113-14.168 5.246-14.379 4.922-8.066 12.148-14.277 18.926-18.824 6.777-4.555 13.105-7.442 16.234-8.88 10.02-4.581 18.274-6.265 23.738-7.386 6.11-1.246 13.723-2.8 22.063-3.258 9.8-.527 18.633.536 27.012 3.274 4.64 1.512 12.953 6.316 29.523 15.89 1.742 1.012 3.297 1.914 4.8 2.801 6.88 4.028 11.434 6.696 18.712 9.52 8.761 3.406 15.094 5.863 23.574 5.105 9.617-.851 16.805-4.062 21.367-9.562 4.36-5.239 5.914-14.446 4.633-27.352-1.117-11.18-3.664-17.574-8.738-30.316-1.774-4.465-3.797-9.528-6.188-15.871-11.117-29.485-12.172-38.496-12.297-44.63-.12-6.187.477-12.468 1.766-18.671 1.25-5.996 2.734-9.918 3.316-11.32 2.672-6.477 7.786-12.559 15.223-18.094 7.05-5.246 15.848-9.766 26.148-13.426 16.297-5.789 35.23-8.934 53.618-8.934.984 0 1.968.012 2.945.028 2.75.054 5.477.176 8.156.36v1.21c-22.914-1.613-46.191 2.098-64.289 8.52Zm0 0"/></g></svg>