<svg xmlns="http://www.w3.org/2000/svg" width="1366" height="768" version="1.0" viewBox="0 0 1024.5 576"><defs><clipPath id="b"><path d="M215 297h83v89h-83Zm0 0"/></clipPath><clipPath id="h"><path d="M26 283h70.164v54.547H26Zm0 0"/></clipPath><clipPath id="c"><path d="m203.387 312.23 60.812-29.289 43.285 89.872-60.816 29.289Zm0 0"/></clipPath><clipPath id="d"><path d="m264.496 282.8-60.816 29.29 43.285 89.867 60.812-29.289Zm0 0"/></clipPath><clipPath id="e"><path d="M253 456h94v95h-94Zm0 0"/></clipPath><clipPath id="f"><path d="m304.227 435.813 63.503 75.949-77.097 64.468-63.504-75.949Zm0 0"/></clipPath><clipPath id="g"><path d="m304.227 435.813 63.503 75.949-77.097 64.468-63.504-75.949Zm0 0"/></clipPath><clipPath id="a"><path d="M0 .14h1024v575.72H0Zm0 0"/></clipPath><clipPath id="i"><path d="M872 373h152v135H872Zm0 0"/></clipPath><clipPath id="j"><path d="M862.031 360H1024v215.86H862.031Zm0 0"/></clipPath><clipPath id="k"><path d="M995 449h29v21h-29Zm0 0"/></clipPath><clipPath id="l"><path d="M1006 417h18v27h-18Zm0 0"/></clipPath><clipPath id="m"><path d="M661.738.14H1024v322.5H661.738Zm0 0"/></clipPath><clipPath id="n"><path d="M667 .14h357V300H667Zm0 0"/></clipPath></defs><g fill="#fff" clip-path="url(#a)"><path d="M0 .14h1024.5v583.5H0Zm0 0"/><path d="M0 .14h1024.5v576H0Zm0 0"/><path d="M0 .14h1024.5v576H0Zm0 0"/></g><g clip-path="url(#b)"><g clip-path="url(#c)"><g clip-path="url(#d)"><path fill="#ef601e" d="m227.492 353.84 21.36-14.012-4.489-4.582s-10.328 4.172-17.105 4.2c-6.781.023-11.422-2.239-11.371-4.778.047-2.535 21.347.48 22.965-.3 1.617-.778 3.253-1.419 3.253-1.419l-1.648-1.676a.396.396 0 0 1 .008-.582.406.406 0 0 1 .523-.058s-9.922-30.719-6.691-32.781c3.23-2.063 4.844 4.921 8.43 17.507 3.59 12.586 1.683 17.493 1.683 17.493.285.296 2.547 2.593 5.985 5.894 0 0 1.476-14.422 3.054-19.168 1.574-4.75 3.758-11.531 5.258-11.504 1.5.028 1.324-1.387 1.422 4.996.09 5.762-6.73 23.7-8.11 27.215a353.752 353.752 0 0 0 7.176 6.625s2.825-6.195 3.184-11.129c.36-4.937.348-21.906 4.805-24.558 4.457-2.657.554 25.214-1.036 30.238a22.549 22.549 0 0 1-4.277 7.812 246.445 246.445 0 0 0 7.43 6.262c.394-1.18 3.191-10.023 3.804-16.918.66-7.402-.132-18.215 4.172-17.652 4.301.562-1.687 24.75-2.957 28.094-1.07 2.812-1.918 7.332-2.168 8.707.106.07.192.148.309.238a189.83 189.83 0 0 0 4.906 3.61l3.906-10.923c.852-3.41.22-21.12 3.72-19.539 3.495 1.578.183 9.653.167 15.004.008 5.098-5.3 15.852-5.797 16.867 10.606 7.32 19.172 11.754 18.364 13.207-.98 1.754-4.024.075-4.368-.195l-.007-.02-8.875-6.218-8.332-5.735c-3.426 3.852-20.915 23.25-24.024 20.93-3.476-2.582 4.899-7.87 10.742-11.433 5.844-3.567 11.938-10.442 11.938-10.442l-7.367-5.086-5.016 7.133s-17.406 12.59-20.742 8.852c-3.336-3.739 8.582-7.348 13.27-9.024 3.617-1.308 8.277-6.336 10.21-8.547l-5.062-5.18a59.342 59.342 0 0 1-8.43 6.962c-7.07 4.906-15.43 9.175-17.305 6.328-1.875-2.844 11.203-7.137 15.168-9.215 3.97-2.078 8.989-5.707 8.989-5.707l-7.57-7.742c-2.778 3.101-11.458 12.386-16.368 13.3-5.992 1.118-7.824.5-7.086-1.351Zm0 0"/></g></g></g><g clip-path="url(#e)"><g clip-path="url(#f)"><g clip-path="url(#g)"><path fill="#caaacd" d="M278.055 546.285c-22.051-11.469-35.137-55.914-13.48-75.691 20.198-18.414 43.331-17.77 63.777-4.04a24.824 24.824 0 0 1 7.582 8.227c5.773 9.957 16.52 32.742 5.628 49.156-14.332 21.59-41.44 33.829-63.507 22.348Zm58.593-23.32c9.864-14.903.032-35.64-5.218-44.707a22.613 22.613 0 0 0-6.895-7.492c-18.613-12.528-39.633-13.172-57.933 3.53-19.622 17.907-7.625 58.349 12.418 68.837 20.039 10.488 44.664-.57 57.628-20.168Zm0 0"/></g></g></g><g clip-path="url(#h)"><path fill="#cb962e" fill-rule="evenodd" d="M48.465 331.781a3.943 3.943 0 0 0 1.476-3.082 3.97 3.97 0 0 0-3.976-3.96c-.809 0-1.809.234-2.746 1.007-.528.43-1.535 1.883-1.535 1.883l.062-.09c-.629.863-1.324 1.902-2.11 2.606a3.95 3.95 0 0 0-.304 5.593 3.994 3.994 0 0 0 5.621.301c1.18-1.05 2.285-2.547 3.23-3.84.047-.062.172-.25.282-.418Zm13.305-5.453a3.958 3.958 0 0 0-1.368 3.5c.262 2.102 1.504 3.074 3.18 3.402.504.102 1.754.325 3.16-.71.192-.141 1.164-1.168 1.422-1.41.934-.883 1.77-1.805 2.598-2.786.031-.031.3-.304.476-.48a3.953 3.953 0 0 0 1.696-3.242c0-1.961-1.04-2.97-2.196-3.551-.683-.344-1.925-.793-3.531-.031-.371.175-2.36 1.996-2.531 2.199-.637.754-1.27 1.46-1.989 2.136-.136.13-.695.735-.917.973Zm26.71-7.34c-.476.422-1.843 1.637-2.148 1.977l-1.148 1.394c-.153.18-.336.438-.465.63a3.94 3.94 0 0 0-.75 3.784c.41 1.254 1.195 1.899 1.937 2.29.914.476 2.024.69 3.336.171a3.918 3.918 0 0 0 1.473-1.015c.082-.09.312-.465.582-.79l.945-1.148c.344-.297 2.356-2.054 2.992-2.996.68-1.008.926-2.015.926-2.84 0-2.187-1.785-3.96-3.98-3.96a3.98 3.98 0 0 0-3.7 2.503Zm-52.25-7.629a3.958 3.958 0 0 0 2.012-3.441c0-2.188-1.785-3.961-3.98-3.961-.692 0-2.075.262-3.414 1.531-1.16 1.102-3.153 3.895-3.618 4.352a3.955 3.955 0 0 0-.015 5.605 3.998 3.998 0 0 0 5.629.016c.398-.395 2.836-3.418 3.386-4.102Zm15.11-3.832a3.94 3.94 0 0 0-.809 3.875c.688 2.078 2.938 3.207 5.028 2.524a4.06 4.06 0 0 0 1.406-.801c.25-.215.969-1.238 1.265-1.672.891-1.05 1.747-2.223 2.72-3.191a3.955 3.955 0 0 0 0-5.606 4.001 4.001 0 0 0-5.63 0c-1.16 1.156-2.191 2.551-3.265 3.797-.106.125-.512.754-.715 1.074Zm31.492 4.493a103.778 103.778 0 0 1 4.754-5.047 3.954 3.954 0 0 0 0-5.602 3.994 3.994 0 0 0-5.629 0 110.294 110.294 0 0 0-5.113 5.43 3.949 3.949 0 0 0 .37 5.59 3.996 3.996 0 0 0 5.618-.371Zm-37.254-23.997a3.924 3.924 0 0 0-1.316 2.45c-.29 2.168 1.246 4.16 3.422 4.449.687.09 1.64.058 2.671-.578.446-.274 1.825-1.89 1.825-1.89s-.137.175-.16.202c.792-.949 1.765-1.793 2.636-2.66a3.947 3.947 0 0 0 0-5.601 3.99 3.99 0 0 0-5.625 0c-1.043 1.035-2.18 2.058-3.125 3.19l-.328.438"/></g><g clip-path="url(#i)"><path fill="#f3c6ee" d="M872.813 443.484c3.335 22.055 21.207 62.133 68.519 63.461 47.313 1.328 74.738-13.55 85.281-45.5 10.54-31.953-10.62-81.773-39.16-86.68-36.207-6.226-124.773 1.704-114.64 68.72Zm0 0"/></g><g clip-path="url(#j)"><path d="M976.477 589.969c-3.336 0-6.645.015-9.954-.028-.28-.007-.664-.347-.824-.632-1.914-3.438-3.875-6.848-5.664-10.352-1.996-3.894-3.914-7.84-5.687-11.84-1.692-3.812-3.305-7.676-4.68-11.61-1.473-4.222-2.875-8.507-3.86-12.866-.835-3.707-1.046-7.555-1.527-11.34-.031-.274-.043-.543-.07-.922-1.18.195-2.531.058-3.367.648-1.07.766-2.211.926-3.352 1.266-.554.168-1.152.176-1.726.293-1.121.226-2.047.61-2.598 1.805-.535 1.16-2.016 1.214-3.254.312-1.332-.969-1.648-.871-2.2.672-.507 1.43-1.593 2.09-3.066 1.883a3.064 3.064 0 0 0-.625-.031c-1.941.113-3.437-.598-4.261-2.403-.434-.949-.992-.992-1.805-.527-1.102.625-2.246 1.07-3.578.988-1.637-.113-2.129-.441-2.55-2.031-.958.172-1.86.293-2.38-.871-.09-.203-.726-.223-1.11-.219-1.76.024-1.839-.05-1.675-1.824.14-1.465-.55-2.317-2.055-2.574-.129-.02-.246-.106-.343-.149.242-1.625-1.274-3.168.156-4.734-.34-.082-.445-.145-.52-.117-1.437.488-2.035.12-1.757-1.352.265-1.437.8-2.84 1.347-4.207.262-.656.27-1.09-.27-1.559-.929-.816-.913-1.878-.085-2.812 1.086-1.219 2.629-1.484 4.027-2.078a25.54 25.54 0 0 0 1.98-.93c.836-.441 1.403-.996 1.434-2.098.031-1.14.93-1.777 1.895-2.316.543-.305.945-.855 1.445-1.246.68-.531 1.36-1.078 2.098-1.52 2.855-1.726 5.765-3.367 8.593-5.136 1.504-.938 2.97-1.969 4.29-3.137 1.183-1.059 2.14-2.367 3.054-3.75-1.148.695-2.297 1.387-3.445 2.086-.211.129-.371.332-.59.434-2.598 1.19-5.125 2.578-7.82 3.476-2.153.715-4.512.813-6.778 1.207-1.289.223-2.527.192-3.812-.187-.7-.207-1.524-.047-2.285.004-4.715.335-9.418.05-13.828-1.622-4.551-1.718-9.149-3.472-13.13-6.39-4.769-3.496-9.445-7.094-12.097-12.633-.215-.441-.68-.79-1.09-1.105a247.81 247.81 0 0 0-4.281-3.18c-.746-.547-.785-.969-.102-1.559a1.51 1.51 0 0 1 .348-.234c2.234-1.031 4.398-2.309 6.734-2.992 1.578-.465 3.407-.09 5.34-.09-.308-.297-.531-.688-.836-.77-1.398-.394-1.832-1.504-2.152-2.715-.106-.406-.086-.859-.266-1.218-.156-.305-.527-.711-.804-.711-.875-.004-1.063-.543-.934-1.164.336-1.645.293-3.371 1.305-4.867.89-1.325.797-2.254-.364-3.36-1.054-1.004-1.23-2.168-.972-3.441.222-1.117.59-2.207.933-3.29.082-.245.328-.437.477-.667.586-.887 1.176-1.774 1.742-2.668.2-.317.344-.664.535-1.055a6298.95 6298.95 0 0 1-4.992-3.945c-.195-.149-.445-.262-.566-.457-.993-1.57-2.172-3.07-2.84-4.774-.453-1.152-.219-2.562-.555-3.875-.262-1.027.149-2.258.406-3.363.102-.438.543-.875.942-1.152.601-.422.86-.809.277-1.41-.594-.614-.504-1.266-.289-2.036.16-.586.027-1.257-.016-1.894-.074-1.121-.66-2.324.614-3.2.148-.101.261-.347.277-.538.102-1.032.785-1.618 1.613-2.024.528-.254.645-.57.723-1.113.074-.531.348-1.352.719-1.465 1.504-.469 1.816-1.738 2.14-2.93.559-2.02 1.516-3.496 3.786-3.765.25-.032.515-.414.675-.692.653-1.129 1.64-1.758 2.867-2.12a3.98 3.98 0 0 0 1.36-.68c1.367-1.094 2.367-1.067 3.555.183.207.219.367.477.55.715.106-.04.22-.078.325-.117 0-1.203.054-2.407-.008-3.61-.098-1.75.625-3.218 1.304-4.773.786-1.797 2.403-2.633 3.747-3.785.293-.25 1.128-.192 1.523.043.973.59 1.832 1.355 2.602 1.945.273-.84.546-1.879.953-2.863.465-1.125 1.265-1.965 2.406-2.508 1.27-.606 1.95-1.45 1.875-3.086-.172-3.582 1.945-6.05 4.758-7.855 1.976-1.27 4.199-2.149 6.27-3.282.663-.363 1.245-.933 1.753-1.511.453-.516.715-1.196 1.133-1.758 1.062-1.43 2.281-2.438 4.305-2.043.949.187 2.004-.012 2.988-.18.828-.144 1.543-.187 2.285.324.66.45 1.422.739 2.14 1.094.044.176.087.36.122.535.277-.394.508-.844.851-1.176.95-.918 1.989-.668 2.668.454.614 1.02 1.399 1.937 2.082 2.921.563.813 1.086 1.657 1.625 2.489.235.363.457.734.828 1.343.305-.675.489-1.105.684-1.52.805-1.745 1.457-1.98 3.258-1.296.945.356 1.933.598 2.988.918.293-.914.524-1.637.766-2.355.629-1.907 1.527-2.47 3.476-2.012 1.696.387 3.305.488 4.813-.582.18-.13.469-.188.7-.168.968.086 1.632-.406 2.323-.992a5.208 5.208 0 0 1 1.82-.965c.305-.098.907.12 1.087.387.312.48.609.636 1.18.593.468-.031.968.125 1.425.278.723.242.895-.079.82-.711a.417.417 0 0 1-.011-.098c-.176-1.293-.489-2.793.648-3.644 1.64-1.231 3.606-1.825 5.719-1.227.324.09.68.262.898.508.907.98 1.746 2.039 2.672 3.011.438.454 1.035.747 1.527 1.157.762.636 1.594 1.222 2.215 1.98 1.582 1.945 3.075 3.961 4.582 5.969.387.523.703 1.105 1.055 1.66.246-.457.414-1.05.805-1.375.238-.203.82 0 1.41.027.082-.445.223-1.175.344-1.906.222-1.422 1.367-1.937 2.46-2.445.274-.125.731.152 1.188.265.145-.23.332-.558.54-.875.753-1.136 2.245-1.101 2.98.055.117.18.41.32.636.352a14.7 14.7 0 0 0 1.758.086c.746 0 1.207.394 1.34 1.078.23 1.156.387 2.332.574 3.496.059.363.133.719.254 1.402.684-.902 1.277-1.5 1.649-2.215.57-1.109 1.425-1.476 2.617-1.53 1-.044 2.043.323 3.043-.317.156-.102 1.074.633 1.351 1.136.696 1.258 1.192 2.622 1.844 3.91.3.594.523 1.505 1.594.997.09-.043.394.16.465.312.52 1.137 1.03 2.274 1.464 3.438.106.281-.09.683-.324 1.02.016.062.008.16.051.187 1.406.96 2.098 2.172 1.648 3.949-.097.383.25.988.559 1.344.867.996 1.305 2.047.895 3.36-.059.187-.114.51-.02.585 1.2.973.473 2.008.02 2.91-1.336 2.645-2.965 5.153-4.118 7.863-.843 2.008-1.898 4.082-1.543 6.415.149.992.434 1.964.61 2.953.316 1.726.597 3.464.863 5.023.45-1.129.992-2.555 1.59-3.953.535-1.242 1.035-2.512 1.723-3.676.753-1.289 2.007-1.55 3.425-1.058.313.105.914-.043 1.118-.293.87-1.063 1.77-1.664 3.25-1.18.44.144 1.203-.266 1.652-.625.89-.723 1.613-1.64 2.5-2.371 1.437-1.192 3.219-1.223 4.957-1.106.457.032 1.078.504 1.281.934.465.988.883 2.062 1.02 3.137a14.32 14.32 0 0 0 1.492 4.851c1.047 2.028 1.867 4.176 2.7 6.301.35.895.706 1.691 1.507 2.313.652.5 1.133 1.214 1.73 1.793.258.246.606.484.942.542 3.191.555 4.074 3.262 4.437 5.965.032.223-.027.532-.164.692-.824.953-.34 1.629.395 2.297 1.304 1.195 1.511 2.761 1.476 4.414-.007.316.02.738.207.941 1.637 1.758 1.504 3.832 1.032 5.91-.461 2.035-1.063 4.035-1.684 6.028-.18.586-.64 1.09-1.027 1.722.507.68.722 1.54.3 2.57-.496 1.204-.347 2.434.18 3.63.492 1.101.52 2.203.02 3.343-.239.528-.391 1.156-.36 1.727.164 2.898-1.629 3.918-3.949 4.351-.668.125-1.34.27-1.996.59.7.18 1.469.242 2.086.586.594.324 1.266.863 1.441 1.445.114.375-.507 1.188-.988 1.473-1.219.734-2.539 1.293-3.828 1.902-1.555.73-3.11 1.473-4.691 2.153-1.52.652-3.118.703-4.739.472-.48-.066-.976-.035-1.46-.023-1.044.02-1.485.586-1.34 1.59.144 1.023.222 2.058.328 3.105-.047 0 .046.028.086-.004 2.597-2.5 5.968-3.363 9.312-3.992 5.035-.953 10.16-1.496 15.297-1.137 2.316.16 4.598.758 6.894 1.137.793.125 1.594.184 2.391.305.242.035.477.16.691.488-.492.098-.984.25-1.484.285-1.18.075-2.031.703-2.687 1.602-2.676 3.656-6.157 6.484-9.82 9.027-3.41 2.371-7.204 4.098-11.239 5.258-4.352 1.25-8.672 2.617-13.027 3.856-2.305.656-4.664 1.125-6.989 1.718-2.324.594-4.726 1.004-6.933 1.899-2.309.937-4.418 2.351-6.617 3.558l.046.399c.473 0 .993.129 1.403-.02 1.969-.71 3.86-1.644 5.86-2.238 4.968-1.473 10.097-1.961 15.218-1.242 5.027.703 10.023 1.726 14.988 2.832 1.762.39 3.387 1.422 5.07 2.156.29.125.575.27.868.355 3.406 1.012 6.675 2.504 10.28 2.817.145.012.278.16.415.246-3.113 2.738-6.836 2.996-10.715 2.691-.015.118-.035.23-.05.348 1.042.633 2.124 1.215 3.124 1.91 1.563 1.09 3.414 1.996 4.528 3.453 1.207 1.575 1.726 3.684 2.511 5.575.207.503.211 1.09.415 1.585.992 2.387 1.94 4.79 3.058 7.118.61 1.27 1.566 2.375 2.277 3.609.391.672.594 1.457.883 2.188l-.332.171c-.758-.59-1.52-1.164-2.27-1.761-1.609-1.278-3.316-2.196-5.468-2.325-3.184-.19-6.043-1.511-8.836-2.968-.91-.473-1.879-.848-2.809-1.266 1.13 2.18 2.215 4.262 3.29 6.348.68 1.32.484 2.648-.04 3.953-.086.207-.367.394-.597.453-.098.02-.395-.309-.41-.496-.141-1.64-1.391-2.445-2.414-3.504-2.622-2.71-5.688-4.793-8.856-6.773-2.3-1.438-4.82-2.301-7.371-3.164-4.16-1.41-7.766-3.778-10.91-6.836-.219-.215-.453-.41-.598-.543.48 11.543 2.606 23.035 1.485 34.738-.707.105-1.149-.219-1.48-1.004-.274-.645-.813-1.184-1.263-1.758-.87-1.113-1.855-2.16-2.625-3.347-1.984-3.06-3.855-6.176-6.398-8.844-1.406-1.473-2.45-3.285-3.711-4.903-1.691-2.168-3.477-4.261-5.16-6.437-2.602-3.352-5.582-6.461-7.367-10.36-1.032-2.257-1.692-4.695-2.38-7.093-.187-.645.118-1.43.192-2.153-1.754.082-6.34 3.254-10.652 7.41.222.376.469.782.703 1.192 1.172 2.035.3 3.89-2.031 4.246-.852.133-1.73.149-2.801.234.094.836.078 1.672.285 2.45.395 1.465-.437 3.043-1.883 2.84-1.93-.274-3.09 1.23-4.715 1.558-.18.04-.324.41-.425.652-1.055 2.493-1.989 5.04-3.172 7.47-1.309 2.683-2.676 5.374-5.02 7.39-.168.14-.238.547-.18.793.333 1.387.747 2.762 1.086 4.148 1.293 5.29 3.164 10.38 5.528 15.274 1.82 3.78 3.847 7.465 5.738 11.207 1.887 3.73 4.512 6.941 7.152 10.133 1.739 2.054 3.563 4.066 5.41 6.199Zm-43.524-102.442c1.11.563 2.129.418 3.07-.379.102-.082.239-.144.375-.183 2.008-.692 2.903-2.285 3.047-4.219.32-4.277.47-8.558.688-12.84.015-.351 0-.703 0-1.058.117.007.234.007.351.011 0 1.266.043 2.532-.004 3.797-.164 4.387.118 8.84-1.68 13.09 1.302-.336 2.626-.687 3.352-1.887 1.043-1.71 2.09-3.457 2.84-5.308 1.485-3.68 2.961-7.39 4.078-11.192.77-2.625.117-3.39-1.992-4.148a14.012 14.012 0 0 0-2.422-.645c-1.52-.261-2.91.532-3.62 1.926-.966 1.903-2.075 3.504-4.462 4.004-1.765.367-3.25 1.406-4.465 3-1.136 1.496-2.593 2.875-4.718 3.305-2.446.496-4.493 1.64-5.063 4.457-.16.8-.668 1.738-1.316 2.191-1.168.828-1.844 1.95-2.559 3.09-.234.379-.55.711-.836 1.066-.496.633-.98.633-1.71.227-2.352-1.32-4.65-2.82-7.583-2.457-1.16.145-2.152-.457-3.054-1.18-.422-.336-.934-.566-1.407-.843a4.545 4.545 0 0 1-.133.234c.766.582 1.715 1.031 2.266 1.773 1.344 1.817 2.555 3.73 3.715 5.668.762 1.274 1.617 2.282 3.086 2.786 1.93.656 3.879.835 5.887.656 2.691-.246 5.386-.48 8.07-.801.941-.113 1.855-.465 2.781-.711-.297-.227-.558-.242-.82-.25-4.352-.2-8.621-.75-12.492-2.98-.325-.188-.63-.418-.946-.63.059-.081.121-.167.18-.245 1.055.523 2.086 1.082 3.156 1.562 2.813 1.274 5.848 1.516 8.856 1.934 2.539.351 4.636-.305 6.48-1.98-.332-.294-.656-.583-.984-.872ZM924.36 367.5l.028.027c-1.028-.418-1.895-1.187-3.18-.968-1.285.214-2.621.086-3.926.187-.582.05-1.332.125-1.695.488-.89.903-1.598 1.996-2.402 2.989-.457.558-.883 1.21-1.477 1.558-.578.336-.812.688-.797 1.285.02.664.012 1.332.113 1.98.18 1.13.442 2.243.668 3.368-.109.02-.214.035-.316.059-.36-1.989-.715-3.973-1.086-6.008-.941.5-1.871 1.168-2.906 1.504-2.766.898-4.813 2.629-6.27 5.066-.707 1.188-1.05 2.504-.851 3.883.883-.89 1.593-1.895 2.55-2.516 2.079-1.343 4.446-1.824 6.918-1.609.485.039 1.168.223 1.387.57.797 1.266 1.852 1.11 3 .785.84-.234 1.426.102 1.84.817.305.527.602 1.062.902 1.594-.074-1.282-.32-2.508-.476-3.747-.149-1.195-.18-2.406-.293-3.609-.113-1.25-.3-2.492-.367-3.746-.067-1.203-.02-2.402-.02-3.605.508 6.246 1 12.464 2.54 18.562-.09.016-.177.04-.266.055-.29-1.059-.579-2.121-.809-2.953-.367 1.16-.79 2.464-1.195 3.78-.836 2.688-1.653 5.38-2.504 8.067-1.242 3.95-1.547 7.953-.77 12.235 1.125-1.653 2.145-3.34 4.418-2.391.469-1.352.88-2.566 1.32-3.781.653-1.809 1.758-3.059 3.743-3.598 1.91-.523 3.343-1.773 4.156-3.672a39.822 39.822 0 0 1 1.86-3.75c.316-.558.761-1.168 1.3-1.445.961-.492 1.352-1.238 1.543-2.2.473-2.386 1.102-4.741 2.258-6.886 1.133-2.105 2.281-4.207 4.457-5.516.77-.464 1.375-1.199 2.055-1.812-.782-.227-1.559-.317-2.188-.664-1.738-.961-2.308-.79-3.031 1.101-.028.063-.028.141-.07.196-.29.394-.582.789-.875 1.18-.415-.352-.856-.676-1.227-1.067-.176-.188-.25-.504-.305-.77-.25-1.238-1.222-1.859-2.238-2.722-.535 4.965-1.094 9.734-2.422 14.36a.748.748 0 0 1-.062-.505c.68-4.234 1.277-8.48 2.09-12.687.324-1.688-.735-2.723-1.31-3.992-.093-.2-.62-.348-.89-.278-.261.07-.582.418-.629.684-.347 1.91-.59 3.84-.937 5.75-.465 2.562-.996 5.11-1.5 7.66l-.305-.059c.785-4.336 1.578-8.675 2.383-13.12-1.004.933-1.133.917-1.934-.114Zm105.25 143.918c-1.8-.195-3.605-.367-5.41-.602-2.273-.3-4.535-.48-7.113.055 3.035 1.828 5.832 3.516 8.629 5.203 1.754 1.063 3.547 1.938 5.695 1.496.2-.043.418.028.63.051 3.355.43 6.515 1.469 9.444 3.164a291.59 291.59 0 0 1 6.028 3.59c.965.59 1.879 1.25 2.816 1.875-.043.086-.09.164-.133.25-.36-.164-.738-.297-1.074-.508-1.84-1.137-3.652-2.316-5.496-3.441-3.496-2.14-7.125-3.973-11.246-4.574-.774-.114-1.582-.016-2.371-.016.11.367.246.469.387.547 2.007 1.137 4.027 2.242 6.011 3.414 1.078.633 2.192 1.27 3.137 2.082 4.555 3.902 9.996 6.25 15.371 8.879-.344-.676-.687-1.274-.973-1.89-1.656-3.61-3.168-7.274-4.18-11.134-.538-2.054-1.71-3.738-3.59-4.836-2.198-1.28-4.398-2.55-6.597-3.843-.144-.086-.23-.278-.476-.586 1.968-.078 3.738-.285 5.484-.168 2.23.148 3.953-.785 5.496-1.832-3.015-.98-6.098-1.864-9.086-3-2.699-1.024-5.262-2.344-8.14-2.946-5.016-1.05-10.012-2.148-15.145-2.457-5.855-.351-11.46.668-16.867 2.91-.25.106-.485.266-.844.465 1.813.461 3.418 1.051 5.063 1.227 2.101.227 4.238.074 6.363.144a55.29 55.29 0 0 1 4.172.301c3.843.414 7.683.91 11.527 1.309 4.656.48 9.316.883 13.973 1.332.281.027.554.152.832.226-.137.192-.262.25-.38.239-5.3-.574-10.605-1.211-15.913-1.723-5.66-.55-11.332-.992-16.996-1.457-.645-.055-1.301.059-2.114.102.235.183.301.261.38.3 2.94 1.504 5.874 3.024 8.835 4.48.489.243 1.098.317 1.649.31 1.394-.008 2.8-.239 4.18-.141 2.437.168 4.859.5 7.285.8.257.032.492.278.738.419 0 .007.02-.016.02-.016Zm-127.925-23.883c1.175.309 2.347.64 3.527.922 1.14.27 2.289.64 3.621.086-1.633-2.606-3.066-5.262-6.05-6.887-.587.653-1.255 1.399-2.012 2.246-.579-.445-.31-1.203-.31-1.863-.007-2.613-1.315-4.687-2.776-6.691a.605.605 0 0 0-.25-.188c-2.567-1.207-5.344-1.703-8.036-1.07-1.863.445-3.418.226-5.062-.402-1.031-.399-2.031-.172-2.734.648-.942 1.101-1.895 2.195-2.918 3.387 6.691 6.879 15.527 10.058 24.402 13.168-.387.023-.711-.063-1.043-.164a77.952 77.952 0 0 1-12.836-5.086c-3.453-1.73-6.715-3.778-9.406-6.551-1.278-1.32-2.59-2.496-4.235-3.29-.066-.03-.117-.073-.175-.113-1.844-1.062-3.739-1.562-5.801-.617-.555.254-1.14.438-1.723.657.317.437.621.847.922 1.265 1.598 2.23 2.762 4.793 4.965 6.57.926.747 1.898 1.442 2.746 2.262 4.582 4.477 10.43 6.735 16.129 9.27 3 1.336 6.23 1.453 9.414 1.824 1.176.14 2.363.18 3.547.184 1.277 0 2.55-.141 3.828-.125.684.007 1.379.347 2.047.285 2.25-.223 4.5-.496 6.734-.883 3.352-.574 6.145-2.555 9.223-3.832.027-.012.015-.113.02-.145-.872 0-1.801-.203-2.598.04-2.184.671-4.309 1.535-6.461 2.304-.39.14-.809.188-1.215.277-.004-.027-.004-.05-.008-.078 2.074-.715 4.14-1.433 6.215-2.148-.027-.094-.047-.192-.074-.293-.328.031-.653.066-.977.09-2.215.187-4.445.594-6.644.5-2.575-.121-5.063-.77-6.395-3.43-.125-.246-.594-.379-.926-.45-1.906-.382-3.828-.702-5.73-1.105-.332-.066-.61-.398-.906-.605Zm36.535-112.77c-1.848.512-2.407 2.313-3.528 3.548-.695.757-.68 1.617-.418 2.523.907 3.074 1.813 6.156 2.723 9.23l.54 1.832-.333.094c-1.133-3.66-2.265-7.328-3.355-10.863-1.45.883-1.352 2.586-1.7 4.105-.066.274-.14.54-.226.801-.379 1.223-1.133 2.461-1.05 3.652.085 1.286.937 2.52 1.456 3.774.16.387.32.773.465 1.164.102.266.172.547.258.816-.074.028-.149.059-.227.086-.87-2.05-1.742-4.097-2.719-6.402-.55.625-1.011 1.012-1.28 1.496a44.08 44.08 0 0 0-1.923 3.723c-1.004 2.215-2.71 3.508-4.992 4.258-.797.261-1.738.867-2.09 1.57-.8 1.61-1.293 3.371-1.875 5.082-.066.183.035.488.164.652.825 1.031 1.7 2.02 2.512 3.055.375.473.676.644 1.305.371 1-.43 1.62-.004 1.984 1.027.14.391.504.758.856.996 1.609 1.09 3.261 2.235 3.422 4.325.074.984-.348 1.972.335 2.922.122.171-.14.64-.261.957-.13.32-.32.617-.45.937-.277.68-.054 1.059.641 1.371.793.36 1.149-.21 1.64-.527 1.227-.8 2.423-1.809 4.005-1.438.722.172 1.203.141 1.836-.242.515-.316 1.363-.61 1.789-.387.379.2.379 1.118.55 1.72.016.066.063.116.145.257l1.02.219c-.274-.813-.45-1.489-.72-2.125-1.519-3.465-2.273-7.121-2.945-10.82-.687-3.766-1.675-7.477-2.539-11.208-.113-.484-.289-.96-.504-1.66.258.239.36.293.395.375.148.352.293.707.414 1.07 1.285 3.919 1.969 7.95 2.621 12.02.531 3.277 1.762 6.442 2.692 9.652.261.903.644 1.766.863 2.672.23.961.332 1.961.504 3.012 1.281-.305 1.465.723 1.886 1.465.782-1.23.782-1.23 2.493-.856 1.351-1.402 2.742-1.386 4.078-.003.176.187.543.277.824.265 1.18-.055 2.258.012 2.586 1.512.039-.43-.156-.93.012-1.121.675-.785.355-1.656.363-2.489.004-2.925-.117-5.855.027-8.777.074-1.453.7-2.851 1.676-4.031.008.422-.121.8-.219 1.187-.304 1.172-.84 2.348-.847 3.532-.043 3.312.062 6.625.285 9.925.043.645.84 1.27 1.347 1.852.493.566.926-.043 1.399-.117.414-.063.879.133 1.32.215-.246.89.614.902 1.106 1.472.238-1.781 1.586-1.293 2.582-1.457.281-.047.625.242.941.375-.246.285-.45.645-.754.848-.414.277-.906.441-1.36.656.028.113.06.219.087.332.527.113 1.09.149 1.582.348.785.32.77.805.14 1.195.239.688.454 1.297.672 1.938.934.093 1.13.57.524 1.418-.809 1.129-.727 1.742.437 2.687.567-.46 1.114-1.02 1.766-1.387.418-.238.992-.183 1.496-.257-.191.464-.383.933-.578 1.398-.028.059-.047.121.027-.062l1.75 1.53c-.531.555-1.066 1.11-1.668 1.74 1.078.429 1.758 1.12 1.082 2.175.75.863 1.407 1.558 1.969 2.32.129.176.012.668-.16.89-.86 1.157-.856 1.266.406 1.864 1.192.563 1.508 1.102 1.234 2.125.461.438 1.586.606.899 1.598-.606.87-.332 2.172-1.45 2.77-.085.05-.027.327-.074.488-.105.335-.234.664-.375.992-.421.98-1.375 1.18-2.246 1.312-1.047.16-1.21.79-1.277 1.66 4.445-1.613 8.61-8.156 8.598-13.453-.125-.031-.262-.101-.387-.086-2.106.235-3.613-.875-4.426-2.55-1.254-2.586-2.293-5.297-3.176-8.036-.527-1.648.317-2.855 2-3.523.723-.29 1.493-.461 2.383-.73-.777-1.516-1.547-2.91-2.226-4.352-2.422-5.14-5.395-9.93-9.215-14.149-2.375-2.617-5.133-4.68-8.613-5.699-1.079-.316-2.211-.844-3.02-1.597-.816-.766-1.445-1.868-1.816-2.938-.356-1.012-.246-2.183-.399-3.277-.043-.32-.195-.703-.43-.906-1.113-.97-1.066-1.938.18-2.657.973-.558 1.059-.894.344-1.77-.55-.671-1.219-1.253-1.75-1.945-.926-1.199-.79-2.187-.027-3.527.761-1.324 1.894-2.504 1.75-4.25-.16-1.965-.04-3.96-.278-5.914-.316-2.543-.855-5.059-1.347-7.566-.067-.332-.497-.872-.692-.844-.492.074-1.137.3-1.367.68-.664 1.109-.898 2.144-.316 3.609.925 2.293 1.226 4.848 1.765 7.289.078.355.012.742.012 1.117-.777-3.101-1.348-6.2-2.262-8.797-.535.352-1.09.66-1.574 1.063-.602.508-1.14 1.094-1.715 1.644Zm72.148 54.344-.02-.023c-.23.578-.382 1.21-.718 1.726-.637.965-.813 1.989-.914 3.133-.156 1.692-.543 3.364-.934 5.024-.16.695-.648 1.3-.867 1.992-.969 3.016-1.84 6.062-2.855 9.059-1.102 3.25-2.532 6.335-5.121 8.73.964.848.972 1.121.015 1.98-.305.278-.719.43-1.023.707-1.13 1.032-2.235 2.083-3.352 3.13.078.09.16.183.235.273 8.015-3.992 16.003-8.055 24.347-11.34-.933.578-1.969.941-2.945 1.406-4.004 1.887-8.008 3.778-11.985 5.73-3.23 1.587-6.418 3.255-9.609 4.915-.664.34-1.375.703-1.871 1.238-1.98 2.117-3.871 4.313-5.813 6.465-.84.933-1.718 1.824-2.585 2.738 1.683-.527 3.222-1.238 4.82-1.777 3.637-1.227 7.285-2.34 11.18-2.543 4.753-.246 9.449-1.414 14.253-1.098 2.614.172 5.227.32 7.848.43 1.098.05 1.942.441 2.598 1.32.64.863 1.539 1.414 2.61 1.235a13.865 13.865 0 0 0 3.19-.977c1.551-.684 3.04-1.5 4.544-2.285.707-.371 1.418-.75 2.07-1.207.836-.598.777-1.29-.168-1.735-.586-.285-1.246-.464-1.89-.578-.966-.172-1.946-.246-2.919-.359.227-.285.473-.387.727-.457 1.648-.438 3.316-.813 4.953-1.309 1.512-.464 2.129-1.453 2.176-3.058.023-.688.015-1.442.285-2.055.64-1.473.297-2.851-.328-4.133-.438-.906-.32-1.707-.004-2.504.379-.957.41-1.793-.203-2.66-.387-.539-.375-.996.34-1.344.289-.14.535-.543.636-.875.633-2.023 1.27-4.046 1.801-6.097.402-1.543.563-3.23-.41-4.543-.695-.934-.871-1.817-.89-2.867-.028-1.211-.348-2.317-1.255-3.23-.492-.497-.847-1.126-1.168-1.56l-16.511 7.247c.18-.348.445-.504.726-.625 2.742-1.203 5.508-2.356 8.227-3.614 2.629-1.214 5.215-2.515 7.797-3.828.27-.14.523-.633.508-.945-.122-2.164-1.06-4.992-3.965-5.426-.563-.086-1.098-.601-1.567-1.012-1.246-1.086-2.144-2.628-4.09-2.714-1.199-.051-2.246-.457-2.57-1.852-.144-.598-.46-1.16-.691-1.719l-1.762 2.328.027.028c.196-.434.309-.946.614-1.29 1.375-1.527 1.148-3.69 2.18-5.35.128-.204-.032-.606-.09-.903-.286-1.465-.54-2.934-.883-4.387-.18-.766-.38-1.594-.825-2.215-.32-.453-1.046-.816-1.613-.86-2.289-.167-4.117.759-5.515 2.575-.317.41-.743.738-1.13 1.09-.652.594-1.413.785-2.226.457-.781-.309-1.328-.066-1.84.523-.316.371-.68.715-1.086.977-.218.144-.613.21-.851.113-1.356-.539-2.324-.32-3.078.918-.54.887-.934 1.863-1.364 2.813-.84 1.87-1.656 3.754-2.484 5.629-.274.617-.242 1.015.434 1.457 1.527 1.004 2.976 2.18 3.398 4.074.508 2.285.625 4.605.039 6.918-.098.375-.102.762-.168 1.305.602-.895 1.086-1.614 1.578-2.329Zm-98.312-19.836c-.11-.035-.215-.066-.32-.105-.051-.223-.153-.45-.141-.668.058-1.113-.262-2.043-1.133-2.797-.277-.234-.465-.613-.61-.96-.359-.856-.984-1.411-1.89-1.294-.934.125-1.188.926-1.328 1.785-.34 2.055-1.899 3.293-3.988 3.29a3 3 0 0 0-1.079.218c-1.918.778-2.855 2.2-2.875 4.297a4.866 4.866 0 0 1-.535 2.094c-.695 1.355-1.523 2.64-2.308 3.949-.13.207-.332.375-.5.555-.067-.223-.153-.45-.207-.676-.047-.23.03-.566-.098-.691-.98-.91-.996-2.184-1.363-3.332-.102-.313-.524-.766-.778-.75-.683.035-.91-.27-1.113-.829-.434-1.164-.816-2.37-2.332-2.644-.996-.18-1.598.172-1.602 1.18a74.446 74.446 0 0 0 .086 3.734c.086 1.808.188 3.617.332 5.43.032.382.207.777.395 1.125.695 1.27 1.543 2.472 2.11 3.796.6 1.41 1.296 2.668 2.84 3.094 1.902.531 2.882 1.946 3.78 3.524.602 1.058 1.22 2.136 2.012 3.043 1.653 1.886 2.582 4 2.668 6.504.102 2.988.258 5.972.356 8.964.117 3.524.183 7.047.293 10.57.062 2.153.09 4.31.273 6.454.238 2.855 1.293 5.34 3.703 7.101.871.637 1.664 1.399 2.582 1.954.754.46 1.64.695 2.469 1.03-1.297-2.507-1.645-5.023-1.711-7.609.254.457.312.957.414 1.45.277 1.324.422 2.699.89 3.953.88 2.351 4.282 4.277 7.15 4.234-1.575-2.945-2.47-6.93-1.829-8.742.137.586.246.969.312 1.36.23 1.234.317 2.515.704 3.699.41 1.277.992 2.527 1.687 3.68.563.929 1.352.816 1.824-.157.395-.813.621-1.707 1.043-2.504.364-.687.762-1.559 1.387-1.871 1.418-.711 2.984-1.129 4.488-1.672.313-.113.7-.187.918-.406 1.176-1.223 2.297-2.485 3.453-3.727.137-.148.32-.277.508-.363 1.453-.656 2.934-1.262 4.356-1.969.66-.332 1.336-.77 1.78-1.336.614-.785 1.071-1.715 1.493-2.625.356-.777.902-1.215 1.715-1.379 2.41-.507 4.668-.12 6.633 1.371.46.352.808 1.036.926 1.618.418 2.09-.446 3.984-1.122 5.879-.691 1.921-1.464 3.812-2.296 5.949.382-.215.53-.285.671-.375 2.192-1.473 4.375-2.953 6.575-4.422.84-.559 1.859-.945 2.523-1.66 2.074-2.242 4.149-4.512 5.977-6.95 2.632-3.519 4.062-7.582 4.675-11.933.336-2.395.497-4.75-.859-6.957-.45-.723-.644-1.606-1-2.39-.27-.594-.535-1.223-.95-1.716-.6-.718-2.37-.941-2.8-.488-.734.774-1.445 1.594-2.27 2.274-4.304 3.55-8.632 7.062-12.964 10.582-.336.27-.715.484-1.075.726.27-.488.653-.82 1.051-1.133 1.582-1.25 3.207-2.449 4.746-3.754a543.194 543.194 0 0 0 8.32-7.19c.696-.614 1.505-1.235 1.9-2.036.929-1.856.651-4.195-1.962-4.649-.64-.113-1.32-.058-1.972.016-2.375.266-3.004-.086-4.11-2.226-.18-.336-.648-.59-1.039-.727-.527-.18-1.11-.207-1.883-.328-2.133 5.066-4.152 10.27-6.504 15.32-2.336 5.008-5.007 9.86-7.53 14.777-.099-.046-.192-.097-.29-.144 1.45-3.004 2.89-6.016 4.352-9.023 1.476-3.032 3.101-6 4.406-9.102 1.367-3.246 2.52-6.57 4.387-9.594.503-.808.742-1.789 1.113-2.683.523-1.282-.297-2.97-1.945-2.883-.536.027-1.211-.04-1.602-.344-.938-.73-1.527-.465-2.184.36-.742.921-1.52 1.835-2.394 2.62-.344.305-1.008.32-1.52.31-.101 0-.277-.704-.273-1.083.015-.902.183-1.805.172-2.707-.004-.605-.004-1.547-.348-1.746-1.062-.613-.887-1.438-.8-2.348.12-1.293-.083-1.507-1.563-1.582-1.153 3.032-2.582 6.082-3.469 9.285-1.781 6.395-4.094 12.582-6.586 18.723-.152.379-.332.746-.496 1.125-.117-.191-.133-.355-.082-.5.621-1.695 1.262-3.375 1.879-5.066 1.121-3.114 2.308-6.211 3.328-9.36 1.336-4.144 2.39-8.379 4.379-12.285.363-.715.816-1.398 1.043-2.156.164-.55.02-1.192.016-1.79-.508.165-1.012.345-1.524.485-.476.14-1.078.492-1.426.328-1.008-.468-1.824-.148-2.691.266-1.078.52-2.176 1.008-3.25 1.539-.149.074-.262.281-.336.45-.418.91-.688 1.921-1.238 2.741-2.051 3.047-3.004 6.524-3.793 10.012-.676 3.016-.903 6.133-1.305 9.215-.137 1.043-.203 2.105-.297 3.16-.09-.008-.176-.012-.27-.02 0-.359-.015-.722 0-1.085.223-4.813.798-9.563 2.184-14.203.785-2.622 1.64-5.184 3.219-7.457a8.095 8.095 0 0 0 .96-1.852c.122-.344.138-.953-.07-1.148-1.062-.985-.648-1.895-.105-2.915.176-.332.176-1.02-.043-1.234-.539-.512-.375-.914-.172-1.48.192-.547.45-1.407.188-1.739a19.108 19.108 0 0 0-3.074-3.054c-.477-.375-.934-.559-1.043-1.254-.13-.856-.723-1.164-1.438-.7-.797.512-1.223.149-1.664-.406-.644-.82-1.234-1.699-1.934-2.472-1.875-2.082-3.351-1.996-4.687.086-.496.73-1.102 1.437-1.656 2.171Zm39.46 85.27c.09-.031.184-.059.278-.09.152.41.305.82.469 1.227 1.629 4.144 2.984 8.441 5.554 12.129 2.668 3.828 5.575 7.492 8.403 11.207.133.175.476.32.699.293 1.039-.133 2.09-.227 3.086-.528 1.246-.375 1.652-1.367 1.137-2.574-.254-.602-.61-1.18-.989-1.719-.699-.988-.703-2.039-.265-3.086.293-.699.715-1.355 1.144-1.984.422-.621.64-1.164.235-1.922-.438-.816-.157-1.496.695-1.582 1.871-.187 2.918-1.797 4.504-2.453.14-.059.183-.465.195-.711.02-.89.078-1.727 1.106-2.105.359-.133.652-.442 1.078-.747-1.024-.175-1.903-.218-2.703-.484-.84-.285-1.61-.793-2.496-1.246-.118.46-.22.855-.317 1.25-.176.715-.644.914-1.34.824-1.133-.152-2.273-.316-3.41-.375-3-.156-5.566-.656-6.973-3.976-.914-2.157-2.73-3.938-4.156-5.868-.113-.152-.34-.253-.527-.296-1.152-.254-2.309-.63-3.477-.7-3.476-.21-6.797-1.101-10.09-2.101-2.445-.738-4.738-.625-6.894.844-1.086.738-2.617 1.207-3.195 2.226-2.286 4.024-5.961 6.52-9.543 9.059-2.512 1.785-5.395 3.043-8.102 4.554-.418.23-.976.477-1.129.856-.37.879-1.058 1.254-1.836 1.594-.906.402-1.343 1.09-1.547 2.07-.129.621-.484 1.336-.964 1.715-.747.594-1.684.957-2.555 1.394-1.23.614-2.543 1.082-3.676 1.836-1.023.68-.926 1.34-.094 2.215.516.54.938 1.195.332 1.922-1.136 1.367-1.101 3.074-1.41 4.684-.031.16.14.363.13.332.722.078 1.269.16 1.82.191a.89.89 0 0 0 .542-.152c1.934-1.422 3.938-2.762 5.766-4.317a326.757 326.757 0 0 0 9.703-8.605c2.059-1.89 3.98-3.918 5.977-5.88.203-.198.437-.362.656-.542a2.044 2.044 0 0 1-.555.91c-2.465 2.418-5.004 4.762-7.383 7.258-4.218 4.426-9.21 7.879-14.113 11.457-.625.457-1.047 2.3-.758 2.957.23.527.36 1.098.547 1.707.371.148.918.375 1.469.598-.113-.063-.219-.13-.332-.196 3.742-3.449 7.488-6.898 11.23-10.343.028.027.055.05.075.074-3.621 3.636-7.246 7.277-10.63 10.672.09 1.097.227 1.875.204 2.644-.035.82.226 1.18 1.066 1.047.242-.039.508.031.727-.043.617-.207.808.07 1.086.594.187.351.77.562 1.218.687.29.078.653-.113.985-.183l-.176.277c.524.566.945 1.36 1.594 1.637.633.277 1.512.12 2.254 0 2.265-.371 3.812-1.875 5.008-3.64 2.488-3.661 4.925-7.36 7.191-11.153 1.973-3.305 3.398-6.88 4.379-10.613.078-.305.207-.598.312-.899.102.031.203.063.305.098-.57 2.031-.976 4.129-1.746 6.09-2.727 6.984-6.86 13.12-11.781 18.836.457.668.883 1.445 1.465 2.074.398.433.988.785 1.558.957.723.219 1.52.36 2.262.293 1.316-.117 2.117-.352 2.45-1.692.093-.39.276-.898.577-1.078 1.133-.683 1.489-1.816 1.836-2.93 1.203-3.851 2.559-7.671 3.48-11.593 1.243-5.25 2.133-10.586 3.188-15.887.106-.543.266-1.082.406-1.621-1.289 10.832-3.265 21.488-7.625 31.535.457.34.88.715 1.348 1.008 1.227.758 1.98.476 2.52-.84.12-.293.375-.644.644-.742.973-.344 1.973-.606 2.973-.875 1.066-.285 2.293-.32 3.172-.89.992-.653 1.933-.938 3.078-1.063.84-.09 1.941-.375 2.394-.973 2.106-2.789 3.426-5.808 2.508-9.512-.82-3.289-1.328-6.656-1.902-10-.434-2.507-.77-5.027-1.11-7.546-.152-1.165-.207-2.344-.308-3.516.097-.008.191-.02.289-.031.137.636.308 1.265.406 1.91.578 3.887 1.07 7.785 1.723 11.66.672 4.012 2.125 7.906 1.683 12.078-.027.246.32.559.54.8.542.61 1.21 1.13 1.667 1.798.985 1.453 3.309 1.945 4.793.988 1.16-.746 2.262-1.535 3.801-1.543.996 0 2.2-.059 2.707-.937-2.836-3.914-5.73-7.586-8.246-11.508-1.523-2.375-2.504-5.11-3.633-7.723-1.422-3.3-2.758-6.637-4.101-9.969-.203-.5-.227-1.074-.336-1.605.215.273.261.582.379.86 1.75 4.023 3.547 8.027 5.246 12.073 2.328 5.543 5.836 10.352 9.191 15.282 1.23 1.804 2.719 2.168 4.61 2 1-.086 1.699-1.047 1.476-1.84-.234-.817-.336-1.676-.531-2.512-.09-.387-.176-.82-.41-1.12-1.528-1.985-3.012-4.02-4.66-5.9-3.868-4.394-6.543-9.425-8.372-14.949-.441-1.242-.765-2.511-1.132-3.773Zm1.258-121.098c-1.12.82-1.257 1.918-1.554 3.008-.23.863-.64 1.75-1.203 2.442-.602.738-1.555 1.187-2.22 1.898-.523.562-1.097 1.285-1.175 1.992-.144 1.383-.894 2.375-1.644 3.395-1.164 1.582-1.098 2.984.289 4.406.39.398.8.777 1.152 1.21 1.094 1.325.98 1.876-.512 2.759-.8.476-.828.996-.105 1.52.152.109.312.284.351.456.274 1.184.696 2.375.711 3.57.02 1.325.524 2.34 1.477 3.055.902.68 1.945 1.278 3.02 1.602 3.163.96 5.906 2.648 8.042 5.078 2.313 2.625 4.47 5.43 6.368 8.371 2.02 3.129 3.73 6.461 5.425 9.781.93 1.82 1.25 2.227 3.114 2.192-1.29-6.993-5.422-12.903-7.356-19.657.832 1.508 1.512 3.086 2.223 4.645 2.234 4.871 4.867 9.59 5.547 15.027.023.184.16.422.316.504 1.262.676 2.543 1.324 3.738 1.934.118-3.27-1.254-6.258-2.129-9.356a610.648 610.648 0 0 0-3.695-12.504c-.941-3.066-1.914-6.136-4.035-8.668-.316-.375-.55-.812-.824-1.218.297 0 .402.125.508.246 2.605 3.008 3.87 6.59 4.859 10.39 1.203 4.645 2.8 9.188 4.156 13.793.574 1.965 1.121 3.957 1.399 5.98.277 2.024 1.625 2.99 3.277 4.247-.063-7.7-2.063-14.887-2.652-22.238.226.449.39.91.472 1.379.719 4.398 1.489 8.785 2.117 13.203.313 2.199.7 4.484.415 6.644-.207 1.602.535 2.133 1.488 2.992.172-.421.375-.726.414-1.054.43-3.051.984-6.106 1.187-9.176.203-3.059.04-6.14.059-9.211.008-.926.203-1.871.117-2.789a81.42 81.42 0 0 0-.777-5.906c-.531-3.149-.863-6.348-2.11-9.332-.601-1.446-1.285-2.86-1.91-4.301-.187-.43-.312-.887-.535-1.555 1.656.153 3.098.29 4.742.438.309-1.852.676-3.715.907-5.594.144-1.203.183-2.441.066-3.64-.066-.637-.5-1.274-.879-1.829-.434-.637-1.148-1.117-1.457-1.789-.504-1.105-1.184-1.992-2.258-2.504a28.278 28.278 0 0 0-3.297-1.316c-.738-.246-.879-.684-.937-1.395-.078-.93-.153-1.992-.645-2.722-1.558-2.305-3.3-4.485-4.976-6.711-.024-.028-.114.004-.227.011.028.176.04.34.074.508.883 4.047 1.754 8.098 2.657 12.137 1.011 4.55 2.011 9.098 3.082 13.633.804 3.426 1.71 6.832 2.566 10.242.117.48.227.96.34 1.441a1 1 0 0 1-.441-.605c-1.243-4.102-2.336-8.211-3.016-12.473-.723-4.523-2.047-8.949-3.086-13.422-.856-3.699-1.711-7.398-2.48-11.113-.208-1.016-.422-1.805-1.614-1.933-.215-.024-.445-.215-.61-.387-.882-.906-1.859-1.754-2.581-2.781-.817-1.165-1.856-1.622-3.149-1.356-1.136.234-2.246.684-3.32 1.152-.195.086-.32.82-.18 1.102.586 1.176 1.356 2.262 1.938 3.445 1.633 3.305 3.16 6.66 4.812 9.953 1.239 2.47 2.61 4.872 3.922 7.301l-.304.176c-.168-.277-.356-.547-.516-.832a755.68 755.68 0 0 1-2.836-5.227c-1.09-2.03-2.227-4.039-3.227-6.109-1.132-2.348-2.117-4.766-3.195-7.145-.183-.398-.527-.722-.793-1.082-.23.563-.242 1.004-.222 1.446.035 1.07-.348 1.785-1.465 2.082-.594.156-1.176.476-1.676.844-.266.199-.527.695-.465.988.676 3.375 1.379 6.75 2.145 10.101.468 2.067 1.058 4.102 1.597 6.149-2.16-5.317-2.875-11.012-4.379-16.79-.55.7-.98 1.188-1.351 1.72-1.117 1.632-.637 3.472-.438 5.19.282 2.462.867 4.892 1.324 7.329-1.18-2.945-1.625-6.082-1.957-9.387Zm-57.093 44.563c.343-.586.605-1.125.953-1.602.957-1.316 1.554-2.699 1.55-4.402 0-1.363.66-2.602 2.036-3.176 1.039-.433 2.12-.762 3.207-1.062.656-.184.785-.43.594-1.114-.391-1.386-.813-2.8-.915-4.226-.285-4.07-.418-8.149-.578-12.227-.015-.457.203-.922.313-1.387.09.02.176.043.265.063 0 3.07-.117 6.145.032 9.21.156 3.09.09 6.25 1.508 9.145.84-.234 1.175-.765 1.234-1.554.113-1.559.683-2.785 2.418-3.02-.235-6.867.476-13.492 2.918-19.844-.563 2.418-1.207 4.825-1.711 7.266a42.23 42.23 0 0 0-.75 11.836c.027.32.152.668.34.922.453.64.972 1.238 1.468 1.848.31.378.637.746 1.114 1.312-.082-1.36-.215-2.402-.184-3.441.086-2.586.504-5.078 1.45-7.54 1.28-3.335 2.25-6.796 3.324-10.214.453-1.434-.07-2.703-.934-3.809-.633-.808-1.504-.078-2.25-.168-.594-.07-1.18-.383-1.734-.656-.453-.223-.828-.688-1.293-.793-2.621-.582-7.528.816-8.746 3.457-.711 1.547-1.848 2.738-3.41 3.547-1.95 1.008-2.82 3.394-2.278 5.531.313 1.203.438 2.453.59 3.692.027.242-.242.523-.371.785-.223-.172-.54-.293-.645-.524-.218-.465-.46-.988-.46-1.484.011-2.395-1.583-3.66-3.305-4.852-.149-.105-.465-.175-.586-.097-.996.683-2.203 1.23-2.875 2.16-1.422 1.957-2.45 4.152-2.04 6.734.098.613.114 1.266.016 1.88-.148.983-.422 1.944-.64 2.91l-.317.023c-.047-.094-.105-.176-.136-.274-.075-.23-.157-.465-.211-.699-.414-1.894-1.977-2.434-3.512-1.234-.34.27-.746.547-1.16.613-1.352.227-2.285.926-2.922 2.125-.176.332-.547.77-.856.797-2.027.172-2.867 1.445-3.324 3.223-.37 1.421-.578 2.976-2.406 3.457-.262.066-.492.718-.52 1.12-.046.66-.23 1.079-.882 1.372-1.582.715-1.946 2.343-2.383 3.758-.274.89.344 2.054.058 2.937-.394 1.223-.234 2.098.547 3.035.16.195-.008.988-.21 1.086-1.176.524-1.384 1.418-1.286 2.563.031.39-.246.8-.281 1.207-.106 1.472.504 2.902.3 4.386-.003.028.044.055.06.086.898 1.43 1.792 2.864 2.687 4.293a.907.907 0 0 0 .203.235c1.77 1.297 3.453 2.75 5.351 3.832 1.329.757 2.946 1 4.438 1.476.043-.113.09-.222.133-.332-.117-.21-.23-.418-.356-.62-.402-.65-.922-1.255-1.187-1.958-.465-1.223-.778-2.5-1.133-3.758a1.597 1.597 0 0 1-.027-.61c.101-.944.304-1.89.304-2.835 0-.973-.351-1.703-1.609-1.547-.535.063-1.113-.2-1.668-.312.523-.16.996-.09 1.469-.016 1.761.285 1.867.168 2.207-1.59.113-.578.52-1.09.875-1.789-.469-.863-.051-1.789.648-2.68.246-.316.606-.695.602-1.039-.008-1.273.484-2.062 1.777-2.199-.047-.433-.082-.797-.121-1.164-.039.05-.082.102-.117.152l2.347 2.633c.383-.578.899-.992.848-1.328-.34-2.43-.785-4.848-1.234-7.262-.215-1.148-.504-2.28-.758-3.418.11-.02.223-.046.332-.066.746 3.746 1.496 7.492 2.242 11.234.094-.007.184-.02.274-.03.375-1.935.765-3.86 1.125-5.794.355-1.926.746-3.844 2.035-5.418.191-.234.41-.527.68-.61 1.195-.37 3.12.727 3.562 1.915.2.527.531 1.383.863 1.414 1.305.121 1.453 1.004 1.653 1.95.218.968.355 1.956 1.37 2.554Zm119.707 64.972c.078-.082.16-.16.246-.242.847 1.367 1.683.754 2.304.078a8.162 8.162 0 0 0 1.485-2.359c.273-.68.328-1.379 1.176-1.668.21-.07.386-.594.375-.902-.028-.727-.188-1.442-.262-2.168-.04-.336-.09-.707.02-1.008.414-1.094.894-2.168 1.363-3.285-1.11-.067-2.192-.153-3.27-.196-2.773-.105-5.55-.246-8.328-.265-1.144-.012-2.289.27-3.433.387-3.079.32-6.231.332-9.231 1.015-4.023.918-7.95 2.324-11.883 3.606-.832.27-1.543.922-2.316 1.398.039.078.078.152.113.234.953.13 1.899.25 2.852.38-.739.046-1.477.042-2.188-.098-1.012-.196-1.71.129-2.367.914-1.91 2.254-3.77 4.554-6.203 6.316-1.961 1.418-3.93 2.785-6.297 3.442-1.938.535-3.867 1.109-5.832 1.539-.957.21-1.98.21-2.973.172-.773-.036-1.539-.282-2.386-.446.046.262.035.38.09.453.175.262.367.512.562.758 1.594 2.02 3.328 3.938 4.3 6.39.169.423.704.786 1.153.99a7.576 7.576 0 0 0 2.094.628c1.62.23 3.289.219 4.875.578.984.223 1.383.18 1.578-.863.195-1.09.558-1.2 1.496-.598 1.5.961 3.074 1.445 4.867.934.348-.102.793.125 1.196.191 1.503.238 3.19.774 4.351-.52.953-1.066 1.766-.945 2.848-.507.41.168.898.215 1.351.215.621 0 1.266-.239 1.856-.121.976.191 1.87.394 2.828-.16.336-.2.93-.051 1.375.062.531.133 1.023.433 1.558.578.813.219 1.696.617 2.2-.555.074-.172.445-.187.625-.343.34-.309.629-.672.96-.997.368-.363.712-.925 1.145-1.015.754-.168 1.149-.621 1.211-1.223.129-1.238.434-2.347 1.414-3.012-2.738-1.039-5.41-2.054-8.082-3.074.047-.125.094-.246.145-.363.656.29 1.312.578 1.965.863 2.503 1.102 5.03 2.075 7.804 2.223.766.043 1.203-.09 1.324-.906.114-.723.543-1.028 1.317-1.043.969-.016 1.93-.258 2.898-.305 1.117-.059 1.313-.535 1.043-1.559-.297-1.109-.054-1.324 1.031-1.3 1.047.015 1.41-.356 1.47-1.426.027-.617.124-1.215.187-1.817Zm-25.278-37.359c.957-2.055 1.106-4.25 1.239-6.465.328-5.281.742-10.562 1.117-15.84.3-4.238.637-8.472.883-12.71.215-3.649-.344-7.235-.942-10.825-.23-1.375-.39-2.765-.597-4.265l-1.075.64c-1.172-1.574-2.199-1.785-4-1.094-.562.215-1.277.141-1.902.06-1.176-.15-2.34-.4-3.73-.65.265.571.382.852.523 1.126 1.379 2.617 2.762 5.222 3.254 8.199.723 4.355 1.77 8.644 1.726 13.121-.05 5.719.176 11.437-.761 17.105a19.341 19.341 0 0 1-.895 3.414c-.215.598-.219.97.149 1.504 2.027 2.922 3.37 6.141 3.43 9.711.062 3.973-.126 7.95-.262 11.926-.024.621-.328 1.258-.606 1.836-.578 1.203-1.222 2.367-1.867 3.578.766.36 1.406.285 1.793-.566 1.004-2.203 2.152-4.36 2.96-6.64 1.255-3.544 2.224-7.192 3.415-10.763 1.77-5.312 3.816-10.543 5.394-15.91 1.282-4.351 2.395-8.75 4.286-12.883a8.697 8.697 0 0 0 .777-4.3c-.133-1.864-.36-3.754-.852-5.547-.804-2.934-.976-2.95-4.027-2.707-.168.012-.332.058-.492.09-.317 1.648-.738 3.25-.914 4.875-.465 4.359-.848 8.738-1.227 13.109-.265 3.094-.558 6.188-.699 9.29-.16 3.663-1.004 7.16-2.277 10.565a57.068 57.068 0 0 1-2.07 4.915c-.34.707-.977 1.285-1.481 1.921-.074-.066-.149-.136-.223-.199.45-.613 1.047-1.168 1.32-1.86 1.231-3.1 2.872-6.148 3.43-9.378.977-5.61 1.254-11.344 1.828-17.024.47-4.613.922-9.222 1.434-13.828.113-.988.64-1.945.684-2.925.082-2.02.015-4.047-.11-6.067-.054-.808-.312-1.66-.676-2.39-.601-1.223-1.523-2.07-3.074-1.883-.336.043-.789-.117-1.05-.336-.649-.547-1.231-.531-1.883-.055 1.02 5.93 2.136 11.82 1.453 17.863-.137 1.243-.051 2.516-.149 3.762-.449 5.598-.957 11.18-1.379 16.777-.187 2.504-.203 5.024-.343 7.528-.075 1.535-.618 2.933-1.532 4.195Zm-49.168 40.297c1.774.422 3.368.8 4.961 1.184 2.121.511 4.172 1.296 6.43 1.164.773-.043 1.566.304 2.356.449.957.176 1.914.363 2.882.48 1.035.13 2.13.028 3.106.325.976.293 1.828.214 2.746-.063a213.26 213.26 0 0 1 5.695-1.61c3.598-.952 6.43-3.163 8.942-5.726 2.363-2.414 4.394-5.148 6.644-7.676a800.753 800.753 0 0 1 10.52-11.613c.691-.746 1.632-1.266 2.465-1.875.496-.363 1.015-.691 1.667-1.129-1.73-.988-3.062-.52-4.296.277-2.418 1.56-4.602 3.41-6.414 5.637-.899 1.106-1.813 1.195-3.04.797-3.468-1.148-7.027-1.324-10.628-.809-1.524.22-2.903.774-3.954 1.961-1.168 1.317-2.324 2.653-3.59 4.106-.226-.293-.464-.707-.796-1.02-.387-.359-.84-.859-1.293-.898-2.086-.164-4.18-.207-6.278-.234-.418-.004-.886.18-1.238.418-2.98 1.98-5.883 4.078-8.918 5.96-1.738 1.086-3.058 2.356-3.945 4.235-.977 2.066-1.688 4.379-4.024 5.66Zm-40.414-14.55c-.058.027-.117.058-.18.085-.554-1.207-1.183-2.387-1.652-3.625-1.238-3.293-2.652-6.55-3.53-9.937-.688-2.63-.79-5.426-.938-8.153-.301-5.363-.223-10.691 2.722-15.5.133-.215.235-.586.137-.773-.758-1.516-1.399-3.156-3.223-3.77-1.867-.629-2.941-1.968-3.57-3.785-.332-.945-.852-1.82-1.29-2.726-.163.007-.323.02-.491.03l-2.742 8.888c.273-3.29 1.37-6.336 2.628-9.063-.308-.715-.718-1.246-.75-1.8-.14-2.184-.152-4.38-.23-6.567-.023-.55-.137-1.094-.203-1.645-.582 1.27-.938 2.536-1.242 3.817-.512 2.152-.93 4.332-1.508 6.465-1.094 4.054-1.293 8.218-1.18 12.332.121 4.578.695 9.156 1.39 13.683.434 2.836 1.15 5.656 2.555 8.262 1.989 3.7 3.024 7.871 5.579 11.3 1.285 1.723 2.375 3.63 4.386 4.673.895.464 1.778.96 2.672 1.445a24.036 24.036 0 0 0 9.04 2.812c-.782-.613-1.454-1.164-2.15-1.675-2.1-1.543-3.706-3.45-4.085-6.098a53.888 53.888 0 0 1-.54-6.195c-.112-4.457-.058-8.918-.171-13.375-.074-3-.274-5.996-.524-8.985-.085-1.02-.292-2.12-.789-2.984-.878-1.52-2.015-2.887-3.097-4.395-1.598 2.446-2.531 5.094-2.77 7.864-.254 3.011-.18 6.07-.035 9.097.195 4.075.79 8.09 2.406 11.903 1.18 2.773 2.254 5.593 3.375 8.394Zm96.52-99.454c-1.145-.266-1.824.203-2.36 1.059a14.34 14.34 0 0 1-1.296 1.765c-.25.285-.653.434-.985.64-.23-.366-.593-.714-.664-1.108-.164-.957-.164-1.946-.289-2.91-.207-1.68-.894-2.2-2.531-1.825-.328.074-.707.5-.809.844-.187.625-.16 1.312-.265 1.965-.332 1.969-.684 3.937-1.028 5.906-.242-.105-.265-.176-.258-.234.403-2.582.829-5.16 1.188-7.75.11-.77-.105-1.547-.918-1.864-.809-.308-1.273.18-1.64.887-.594 1.121-.75 1.133-1.766.457-1.664.418-2.063 1.652-2.266 3.137-.11.785-.562 1.523-.86 2.289a4.189 4.189 0 0 0-.296-.106c-.164-.332-.336-.668-.617-1.234-.196.7-.297 1.137-.434 1.555-.535 1.566-.46 1.722 1.043 2.258 2.223.785 4.098 1.94 4.856 4.37.109.337.39.704.695.872 1.16.617 1.578 1.543 1.535 2.828-.09 2.738.285 5.527-1.031 8.117-.14.27-.074.645-.13 1.168 1.974-1.188 3.704-1.328 5.224.406 1.12-.574 2.218-1.219 3.351-.082.098.098.336.09.504.074 2.02-.175 3.207 1.004 3.777 2.676.465 1.356.559 2.856.684 4.305.11 1.164.023 2.344.023 3.379 1.336.148 2.38.265 3.516.394-.063.09-.004.036.012-.023 1.347-4.426 3.422-8.508 5.804-12.457.418-.695.989-1.512-.02-2.297-.14-.105-.042-.586.032-.871.238-.98.203-1.961-.582-2.621-1.156-.973-.91-2.14-.754-3.352.031-.254.09-.61-.039-.758-.683-.77-1.426-1.492-2.371-2.453-2.754 3.696-5.39 7.23-8.02 10.758 2.524-4.133 5.22-8.137 8.79-11.648-.372-.828-.813-1.832-1.274-2.871-1.308.507-1.433-.918-2.238-1.442-2.684 3.32-4.528 7.133-6.324 10.977 1.25-4.055 3.199-7.727 5.808-11.051.2-.254.375-.723.274-.969a28.462 28.462 0 0 0-1.535-3.117c-.133-.238-.579-.39-.891-.414-.344-.035-.703.168-1.055.18-.695.02-1.152.246-1.41.964a143.137 143.137 0 0 1-1.945 5.083c-.387.964-.852 1.89-1.278 2.832l-.23-.098c1.09-2.852 2.18-5.692 3.293-8.59Zm-100.66 102.129c-1.961-1.574-3.48-3.527-4.637-5.723-1.57-2.98-2.969-6.043-4.488-9.05-1.309-2.594-2.434-5.247-2.926-8.13-.313-1.843-.633-3.68-.922-5.527-.277-1.777-.262-1.777-1.98-1.98a17.46 17.46 0 0 1-1.344-.211c-1.688-.313-3.363-.625-5.047-.934-.781-.144-1.316.004-1.523.926-.125.559-.418 1.172-.825 1.55-.988.911-1.52 2-1.758 3.29-.292 1.605-.734 3.144.77 4.547 1.332 1.238 1.313 2.36.324 3.96-.965 1.567-1.218 3.27-1.25 5.165 1.07-.098 1.332.566 1.492 1.34.07.34.172.675.274 1.007.336 1.106.785 2.082 2.078 2.399.32.074.64.437.816.746.489.871.836 1.824 1.36 2.668 1.047 1.687 2.187 3.328 3.457 5.246 1.566-2.98 3.722-2.457 5.957-1.68.512.184 1.09.196 1.637.278.035-.082.066-.164.105-.25-3.262-2.305-5.57-5.32-6.914-9.059a6.87 6.87 0 0 1 1.098 1.379c1.648 2.77 3.5 5.363 6.152 7.285.203.149.488.293.715.274 2.476-.192 4.93-.23 7.379.484Zm156.183 2.43-.23-.278c-11.156 1.106-21.418 5.055-31.672 9.743 2.289 1.558 4.66 1.851 6.922 1.425 2.543-.48 5.023-1.43 7.441-2.402 3.196-1.281 6.309-2.781 9.461-4.18.227-.101.488-.125.735-.183-.098.28-.247.422-.426.504-2.047.964-4.07 1.968-6.153 2.867-2.46 1.062-4.937 2.125-7.476 3.004-3.317 1.144-6.688 1.398-9.938-.27-.695-.36-1.172-.289-1.808.082-2.153 1.277-4.371 2.445-6.516 3.746-1.015.614-1.906 1.434-2.851 2.16.046.13.093.262.136.391 2.14-.14 4.34 0 6.395-.488 3.351-.793 6.601-1.996 9.887-3.047 2.449-.785 4.886-1.602 7.332-2.399.062-.02.152.04.34.098-.239.133-.383.234-.54.293-2.48.906-4.945 1.852-7.445 2.695-5.262 1.77-10.535 3.508-16.223 3.114-.316-.02-.703.113-.964.3-3.512 2.454-7 4.93-10.508 7.399-.055.035-.16.004-.242.004-.063-.094-.122-.188-.188-.281 1.55-1.22 2.957-2.754 4.695-3.57 2.414-1.134 3.16-3.223 4.118-5.313-1.559-.508-3 .367-3.274 1.988-.203 1.191-.742 1.902-1.918 2.445-1.027.48-1.785 1.543-2.652 2.36-.059.054.004.218-.043.3a3.382 3.382 0 0 1-.395.543c-.62.676-1.277 1.317-1.855 2.024-.149.187-.063.566-.086.86.316-.032.68.023.937-.118 1.63-.879 3.23-1.797 4.84-2.715.489-.277.91-.722 1.422-.875a223.837 223.837 0 0 1 7.64-2.16c2.079-.543 4.2-.926 6.27-1.504a584.579 584.579 0 0 0 12.801-3.738c5.223-1.578 10.082-3.887 14.29-7.426 1.124-.945 2.3-1.832 3.347-2.851 1.527-1.465 2.941-3.028 4.394-4.547Zm-53.867 56.988c-.133.039-.265.07-.402.11-.18-.63-.324-1.278-.551-1.891-.645-1.766-1.371-3.508-1.977-5.29-1.246-3.683-.664-7.39.211-11.027.227-.949.22-1.593-.254-2.375-1.511-2.492-2.992-5.011-4.488-7.515-.254-.418-.547-.801-.972-1.426-.094 1.242-.172 2.144-.215 3.047-.063 1.441-.32 2.918-.106 4.32.473 3.063 1.254 6.082 1.778 9.14.199 1.153.03 2.372.03 3.56a7.363 7.363 0 0 1-.277.015c-.062-.996-.035-2.004-.207-2.98-.523-2.985-1.171-5.954-1.68-8.938a21.41 21.41 0 0 1-.296-3.938c.02-1.093.328-2.175.453-3.277.07-.598.012-1.207.012-2.16-1.364.633-2.465 1.14-3.567 1.652a10.646 10.646 0 0 1-.086-.074c.625-.5 1.258-1.008 2.028-1.629-.973-.254-1.828-.543-2.707-.676-.352-.054-.918.106-1.121.368-1.477 1.93-2.625 4.144-2.258 6.554.332 2.203 1.183 4.375 2.125 6.414 1.785 3.856 4.691 6.977 7.27 10.305 1.726 2.23 3.546 4.387 5.312 6.586a792.851 792.851 0 0 1 4.773 6.059c1.055 1.347 2.172 2.648 3.094 4.074 1.09 1.687 1.98 3.496 3.004 5.226.246.418.691.715 1.039 1.067-1.027-2.258-2-4.446-2.203-6.903-.059-.683-.059-1.41-.309-2.023-.937-2.285-2.047-4.504-2.941-6.805-.793-2.035-1.336-4.164-2.063-6.226-1.199-3.375-2.449-6.727-3.687-10.09-.2-.528-.45-1.04-.676-1.559-.101.012-.195.028-.297.04-.238 1.382-.52 2.757-.695 4.148-.531 4.066.726 7.789 2.25 11.472.336.836.437 1.766.656 2.645Zm11.766 7.375c-.121.027-.25.055-.375.078.133-5.012-.614-9.812-2.73-14.36-2.145-4.605-5.915-7.726-9.575-10.976.09.813.266 1.547.54 2.246 1.292 3.313 2.655 6.602 3.913 9.926.961 2.563 1.746 5.195 2.7 7.762.855 2.308 1.867 4.508 2.152 7.031.375 3.21 2.445 5.809 3.824 8.656.016.024.121.008.203.016.02-.098.063-.192.059-.29-.203-5.171.36-10.35-.367-15.53-.5-3.551-.66-7.141-.926-10.72-.09-1.202-.008-2.417-.082-3.624-.282-4.383-2.703-7.844-5.086-11.258-1.043-1.496-2.547-2.672-3.867-3.965-.368-.36-.829-.64-1.274-.91-1.098-.672-2.273-1.234-3.308-1.992-1.625-1.196-3.286-1.793-5.325-.774l3.028 1.368c-.043.105-.09.207-.133.312-1.23-.469-2.453-.937-3.684-1.41.664 1.52 1.246 2.887 2.153 3.98 1.101 1.325 2.437 2.47 3.765 3.59 1.297 1.102 2.719 2.051 4.063 3.11 2.957 2.328 4.89 5.402 6.36 8.804.023.051-.052.149.007-.008-1.719-2.316-3.3-4.882-5.317-7.046-2.015-2.157-4.468-3.907-6.726-5.836-.078.074-.145.144-.223.218 1 1.82 1.996 3.637 3 5.454.047.085.145.148.219.21 2.059 1.813 4.215 3.524 6.145 5.47 1.703 1.718 3.207 3.624 4.195 5.921 1.305 3.031 2.445 6.094 2.656 9.414.106 1.7.016 3.418.016 5.133Zm25.52-11.547-.177.09c-2.8-2.703-5.652-5.356-8.394-8.113-1.582-1.598-3.313-3.137-3.879-5.48-.055-.223-.36-.415-.582-.56a1238.187 1238.187 0 0 0-7.281-4.542c-.27-.168-.567-.29-.856-.43l-.23.183c.234.82.394 1.68.715 2.465 1.543 3.75 4.261 6.473 7.629 8.606 1.476.937 2.976 1.828 4.437 2.789.625.414 1.176.95 1.758 1.43-.09.105-.176.218-.266.324-.703-.516-1.379-1.078-2.113-1.551-3.047-1.973-6.238-3.77-8.703-6.492-1.965-2.172-3.453-4.633-3.735-7.656-.023-.207-.132-.5-.292-.598-1.48-.871-2.985-1.707-4.727-2.695.16.964.219 1.68.406 2.359 1.442 5.379 4.262 9.746 9.364 12.336 2.953 1.496 5.972 2.867 8.945 4.324 1.914.942 3.82 1.887 5.687 2.918.739.402 1.352 1.04 2.02 1.574-.078.102-.16.207-.246.309-.813-.55-1.578-1.195-2.45-1.633-4.359-2.195-8.699-4.45-13.144-6.465-4.965-2.254-8.016-6.14-9.973-11.015-.507-1.258-.62-2.692-.84-4.051-.09-.578-.28-.93-.867-1.117-2.324-.743-4.636-1.532-6.965-2.274-.523-.164-1.09-.191-1.488-.262 1.89 1.844 3.805 3.7 5.703 5.579.254.257.39.64.582.96 1.246 2.047 2.496 4.09 3.746 6.137.04.059.098.102.145.149 3.383 3.363 7.2 6.086 11.727 7.676 2.668.94 5.347 1.828 7.77 3.316 3.179 1.953 6.273 4.004 8.862 6.754.973 1.031 2.285 1.75 2.559 3.472.969-2.39-.61-3.921-1.45-5.605-.84-1.68-1.933-3.238-3.003-4.996.508.055.969.027 1.375.156.86.278 1.71.602 2.543.961 2.289.98 4.52 2.129 6.863 2.942 1.465.507 3.102.523 4.664.757-.36-.437-.797-.636-1.219-.86-2.418-1.312-4.867-2.565-7.222-3.976-1.43-.855-2.64-2.066-4.074-2.898-4.915-2.863-9.883-5.633-14.833-8.438-.125-.066-.289-.066-.718-.168.465.75.71 1.348 1.129 1.782 2.609 2.707 5.254 5.383 7.894 8.054.809.817 1.676 1.586 2.48 2.41.29.313.481.712.723 1.063Zm-60.356-84.484c-.453 1.664-.727 3.347-1.375 4.863-.856 1.996-1.738 4.094-3.11 5.727-1.207 1.433-3.128 2.253-4.695 3.402-.527.39-1.02.894-1.371 1.453-.855 1.344-1.582 2.773-2.45 4.113-.402.625-1 1.121-1.85 2.055.628.43 1.136.871 1.718 1.16.957.477 1.934 1.074 2.953 1.211 1.785.242 3.64.344 5.004-1.316 1.211-1.473 2.84-2.235 4.727-2.403 2.957-.27 5.902-.23 8.808.465.653.152 1.305.309 1.52-.547.25-1.011.644-2.031-.262-3.015a3.934 3.934 0 0 1-.91-1.746c-.215-.961-.79-1.457-1.582-1.918-1.856-1.082-2.883-3.688-1.914-5.579.582-1.136.406-2.175.523-3.367-.492.075-.926.192-1.355.192-.532 0-3.09-2.52-3-3.016.218-1.203-.692-1.34-1.38-1.734Zm13.101 19.699c.215-.04.293-.027.332-.067 2.293-2.394 4.645-4.718 7.891-5.832.184-.066.406-.199.5-.359.793-1.344 1.664-2.652 2.293-4.074.676-1.508 1.113-3.129 1.64-4.703.07-.211.18-.543.079-.66-.707-.832-.246-1.625-.02-2.461.477-1.743 1.215-3.493 1.258-5.254.059-2.578 1.078-4.715 2.203-6.883.653-1.258 1.453-2.465 1.957-3.785.676-1.79 1.153-3.653 1.684-5.492.09-.309.02-.684-.04-1.02-.433-2.484-2.421-3.664-4.238-5.074-.125.297-.23.515-.304.742-2.282 6.906-4.559 13.813-6.844 20.723-.805 2.445-1.633 4.89-2.426 7.34-1.203 3.746-2.32 7.527-3.59 11.253-.644 1.883-1.55 3.684-2.375 5.606Zm-16.441-34.313c-.008 1.543-.258 2.797 1.039 3.672.297.2.457.938.348 1.34-.235.895-.524 1.856-1.082 2.555-.532.656-.356 1.027.023 1.531.504.668 1.297 1.27 1.457 2.012.356 1.64 1.43 2.527 2.684 3.394.441.305 1 .953.937 1.36-.105.703.2.933.637 1.242.277.2.625.41.746.7.32.8.742 1.206 1.672.901.324-.105.77-.011 1.105.13.184.074.41.492.352.64-.508 1.18-.41 2.477-.746 3.71-.68 2.505.015 3.466 2.262 4.755.347.199.738.465.902.8.672 1.352 1.266 2.747 1.89 4.122l.34.035c.207-.852.543-1.688.598-2.543.191-2.957.336-5.914.39-8.879.032-1.766.204-3.64-.284-5.285-.711-2.406-1.711-4.82-3.047-6.938-1.801-2.86-4.344-5.144-7.23-6.922-1.509-.937-3.231-1.53-4.993-2.332Zm47.473 51.586c4.488-2.855 9.273-4.14 14.43-4.066-.282.234-.614.305-.938.363-2.2.39-4.446.61-6.582 1.196-3.625.992-6.95 2.535-8.899 6.058-.261.473-.746.824-1.113 1.235-.523.578-1.047 1.164-1.57 1.746 11.824-6.903 24.418-11.258 38-12.75-2.063-.5-4.09-1.149-6.14-1.258-6.266-.348-12.477.164-18.556 1.812-2.23.606-4.418 1.364-6.117 3.063-.265.265-.597.547-.945.64-1.012.254-1.336.993-1.57 1.961Zm-136.832-38.699c-.13-2.445-.329-4.734-.348-7.031-.024-2.25.043-4.52.254-6.758.215-2.219.676-4.414 1.023-6.621-.953.7-1.46.254-2.113-.207-.484-.34-1.23-.527-1.805-.441-.273.035-.425.878-.644 1.355-.211.457-.371.96-.676 1.352-.559.714-.996 1.39-.543 2.347.102.207 0 .68-.168.828-1.27 1.047-.922 2.508-1.043 3.844-.05.54.02 1.094.102 1.629.05.355.152.762.367 1.035.414.527.32.8-.293.965a15.21 15.21 0 0 1-.582.133c.39 1.004.941 1.887 1.043 2.82.148 1.371 1.14 2.195 1.687 3.29.723 1.456 2.028 1.241 3.246 1.355.137.015.266.058.493.105Zm74.726-76.426c-.55-.066-.898-.058-1.21-.152-.427-.121-.997-.21-1.188-.516-.36-.562-.782-.656-1.192-.32-1.508 1.215-3.285 1.723-5.074 2.344a8.355 8.355 0 0 1-3.652.437c-.25-.023-.496-.082-.528-.086.68 4.09 1.348 8.149 2.036 12.317.843-.688 1.675-1.41 2.55-2.067.715-.535 1.032-1.218 1.235-2.082.246-1.058.726-2.066 1.133-3.082.175-.437.476-.832.62-1.273.57-1.77 1.383-3.344 3.126-4.254.644-.34 1.257-.738 2.144-1.266Zm39.621 132.938c-.851-.336-1.703-1.012-2.453-.902-1.672.238-3.305.527-4.96.003-.911.79-1.79.227-2.72.016-.476-.105-1.187-.05-1.507.234-.953.86-2.012 1.348-3.246 1.09-1.7-.355-3.133-.187-4.43 1.137-.469.477-.746.766-.63 1.441.08.434.036 1.121-.233 1.332-.946.72-1.989 1.329-3.04 1.883-.722.38-1.53.606-2.246.883.16.82.32 1.617.426 2.16 2.828-1.328 5.781-2.77 8.785-4.094 1.035-.46 1.86-.992 2.371-2.035.508-1.035 1.422-1.394 2.551-1.14.508.109 1 .37 1.512.41.77.047 1.617.137 2.32-.106 1.887-.648 3.715-1.55 5.645-.152.152.113.379.117.531.16.453-.793.879-1.535 1.324-2.32Zm-129.66-26.77c1.762-.058 3.64-.597 4.91 1.239.117.168.43.27.66.273 1.692.047 2.914 1.074 4.172 1.992.82.598 1.41.453 2.094-.226.75-.75-.012-1.082-.32-1.547-.938-1.41-1.852-2.836-2.844-4.203-.469-.645-1.016-1.524-1.68-1.692-1.816-.449-3.718-.64-5.543.102a176.204 176.204 0 0 0-5.636 2.433c-.313.141-.547.45-.852.711 1.406 1 2.64 1.965 3.973 2.782.449.277 1.168.343 1.699.218 1.101-.254 2.164-.703 3.238-1.078.012-.078.024-.16.031-.238a1170.51 1170.51 0 0 1-3.902-.766Zm141.149-45.644a4.898 4.898 0 0 1-.332-.055c-.16.563-.305 1.133-.489 1.688-.32.96-.582 1.949-1.015 2.851-.692 1.442-1.598 2.785-2.254 4.242-.547 1.2-1.117 2.473-1.23 3.754-.223 2.52-.993 4.89-1.56 7.317-.1.441-.015.925-.015 1.39.004.45.137.946-.008 1.348-.347.945-1.07 1.809-1.191 2.758-.274 2.097-1.059 3.918-2.23 5.656.726-.64 1.437-1.297 1.94-2.09 1.669-2.62 3-5.406 3.9-8.398.687-2.301 1.335-4.625 2.19-6.867 1.122-2.95 1.77-5.938 1.618-9.094-.016-.305.066-.613.113-.922.184-1.192.371-2.387.563-3.578Zm-59.747 98.414-.277.148c.527 4.57 1.063 9.133 1.613 13.895 2.903-3.703 4.914-7.617 6.575-12-.47.242-.746.36-1 .52-2.11 1.374-4.688.742-5.977-1.462-.238-.41-.617-.734-.934-1.101Zm-29.57-44.106c-1.496-.488-3.02-.89-4.465-1.492-2-.836-3.98-.668-6.004-.246-1.09.23-2.191.406-3.28.617-.528.11-1.056.254-1.696.407 3.027 2.109 3.031 2.062 6.379 2.168.933.03 1.914.332 2.777.71.95.41 1.797 1.04 2.676 1.606.742.48 1.262.375 1.691-.426.578-1.09 1.23-2.152 1.922-3.344Zm54.7-37.812c-.274-.79-.434-1.582-.801-2.258-.383-.695-.973-1.27-1.446-1.918-.527-.73-.605-1.39.114-2.133.437-.457.742-1.117.89-1.742.11-.441.028-1.21-.265-1.422-1.043-.738-1.16-1.71-1.141-2.844.008-.308-.457-.921-.66-.902-2.664.246-4.196 1.059-3.262 3.985a56.928 56.928 0 0 0 1.781 4.792c.399.957.875 1.922 1.516 2.72.812.991 1.75 2 3.273 1.722ZM901.245 482.5c.332-.223.52-.316.656-.453 1.493-1.496 3.282-2.25 5.399-2.41 1.023-.075 2.015-.453 3.215-.742-2.235-.446-4.262-.7-6.188-1.282-1.918-.582-3.73-1.504-5.55-2.261.96 2.27 2.773 4.222 2.468 7.148Zm112.047 4.355c.016.262.008.47.039.672.223 1.453.07 1.684-1.336 2.024-.574.14-1.18.445-1.73.363-1.73-.246-2.368.77-2.856 2.137-.297.84-.715 1.64-1.078 2.457.09.058.176.12.266.18 2.566-2.551 5.886-4.153 8.351-6.813 1.153-1.242 2.121-2.664 3.25-4.098-.914.11-1.59.192-2.261.27-.477 2.484-.52 2.531-2.645 2.808Zm18.273-68.445c-.957-2.402-1.863-4.687-2.804-7.058-.926 1.386-1.059 2.003-.93 3.87.148 2.204 1.277 3.223 3.734 3.188Zm-72.734 50.793h4.79c-.919-.723-1.95-1.523-2.977-2.328-.54.691-1.13 1.445-1.813 2.328Zm63.273 4.508h3.456c-.52-.629-.961-1.2-1.45-1.734-.132-.149-.418-.27-.601-.247-.899.141-1.43.883-1.403 1.98Zm-55.96-4.086c.476.598.886 1.11 1.367 1.719.316-.633.59-1.16.867-1.719h-2.234Zm0 0"/></g><path d="M911.363 447.504c.297-6.274.703-12.54.852-18.813.144-6.277.031-12.562.031-18.843.09 0 .184-.008.274-.008 0 1.433-.04 2.867.003 4.297.102 3.18.414 6.355.332 9.52-.164 6.269-.523 12.534-.832 18.796-.086 1.688-.289 3.363-.441 5.047-.074 0-.144 0-.219.004Zm6.703-24.68c-.398 5.356-.73 10.711-1.218 16.059-.383 4.262-.145 8.492.257 12.726.028.313.04.621-.156.961-.18-1.355-.465-2.699-.527-4.062-.133-2.68-.344-5.38-.172-8.051.352-5.594.918-11.172 1.426-16.75.027-.297.273-.574.418-.855Zm48.532 25.578c-1.278 3.188-8.797 9.243-14.946 11.723 1.825-1.063 3.7-2.043 5.453-3.215 1.766-1.18 3.497-2.445 5.075-3.863 1.574-1.414 2.945-3.074 4.418-4.645Zm-1.16 8.024c-2.63 5.054-6.805 8.5-10.887 12.015 1.879-1.898 3.832-3.734 5.62-5.714 1.798-1.98 3.446-4.106 5.266-6.301Zm-20.668-7.906c2.683-4.91 5.87-9.45 9.882-13.38-3.699 4.16-6.812 8.755-9.882 13.38Zm-38.985-22.579c-.863-5.796-1.812-11.578-1.55-17.468.515 5.824 1.035 11.652 1.55 17.468Zm12.305-3.093c.433-2.672.828-5.352 1.32-8.012.223-1.211.645-2.379 1.219-3.504-.332 1.29-.711 2.57-.98 3.879-.45 2.18-.813 4.379-1.227 6.562-.07.356-.238.7-.356 1.047 0 .004.024.028.024.028Zm11.25 77.718c-7.543 6.106-15.102 12.192-24.13 16.075 8.688-4.395 16.278-10.434 24.13-16.075Zm-3.75 10.106c-4.133 7.047-8.516 13.906-14.563 19.55 5.547-6.007 10.157-12.706 14.563-19.55Zm-4.672 2.938c-.895.937-1.785 1.878-2.68 2.812a4.846 4.846 0 0 1-.203-.192c.899-.945 1.797-1.89 2.695-2.832.063.07.13.141.188.211Zm0 0"/><g clip-path="url(#k)"><path d="M1039.352 449.742c-.27.172-.536.348-.809.5-1.758 1.012-3.484 2.074-5.281 3-4.024 2.09-8.035 4.203-12.14 6.121-3.59 1.676-7.29 3.137-10.974 4.614-4.171 1.668-8.375 3.261-12.578 4.855-.539.211-1.144.258-1.773.395 7.414-3.02 14.871-5.813 22.113-9.075 7.23-3.257 14.25-6.988 21.363-10.511.028.03.051.07.079.101Zm0 0"/></g><g clip-path="url(#l)"><path d="M1025.242 417.555c-1.71 2.789-3.324 5.636-5.144 8.343-3.621 5.38-7.348 10.684-11.063 15.993-.555.793-1.305 1.46-2.11 2.054.903-1.207 1.848-2.382 2.7-3.625 4.148-6.07 8.273-12.156 12.395-18.242.722-1.062 1.359-2.183 2.09-3.246.32-.465.777-.84 1.167-1.254-.007.004-.035-.023-.035-.023Zm0 0"/></g><path d="M1010.367 429.11c.39-.997.738-2.008 1.176-2.981 2.047-4.543 4.121-9.082 6.191-13.613.164-.364.371-.704.79-.95-.383.918-.743 1.848-1.149 2.754-1.898 4.235-3.79 8.465-5.719 12.684-.336.738-.867 1.39-1.308 2.082l.02.023Zm-12.39 40.726c2.363-.613 4.718-1.227 7.082-1.84l.046.176c-2.355.633-4.707 1.27-7.066 1.898-.02-.078-.043-.152-.062-.234Zm-4.532 1.355c1.266-.406 2.532-.808 3.805-1.214.02.058.035.117.059.18-1.266.41-2.536.816-3.801 1.23-.028-.067-.043-.13-.063-.196Zm-24.41-77.741c-.289-.415-.652-.805-.847-1.259a1278.344 1278.344 0 0 1-4.872-11.73c-.191-.469-.261-.988-.437-1.434 2.035 4.711 4.078 9.422 6.11 14.137.038.09.015.203.019.305Zm0 0"/><path d="M969.016 393.469c.527.875 1.109 1.722 1.57 2.629.809 1.586 1.539 3.21 2.305 4.816-.082.04-.157.082-.235.117-.61-1.25-1.218-2.504-1.84-3.746-.449-.902-.941-1.785-1.379-2.687-.175-.364-.273-.762-.402-1.149l-.02.02Zm-25.126 30.683c-.234-1.867-.492-3.73-.695-5.597-.261-2.395-.437-4.79-.715-7.176-.652-5.578-2.68-10.785-4.39-16.082-.32-.98-.617-1.973-.77-3.05.098.167.227.327.29.51 1.21 3.454 2.519 6.876 3.581 10.372a53.279 53.279 0 0 1 2.164 11.574c.227 2.942.567 5.879.856 8.82.023.2 0 .403 0 .598-.106.012-.211.024-.32.031Zm-5.699-49.359c.23.523.52 1.023.676 1.57 1 3.438 2.153 6.848 2.89 10.344.497 2.352.391 4.82.556 7.242-.102.008-.196.02-.297.031-.157-1.44-.274-2.89-.48-4.324-.372-2.535-.665-5.09-1.227-7.582-.528-2.332-1.368-4.597-2.063-6.89-.035-.13-.02-.274-.027-.414 0-.004-.028.023-.028.023Zm-47.894 23.34c.582 4.094 1.836 7.906 3.437 11.637.809 1.882 1.364 3.867 1.996 5.816.137.437.122.922.235 1.328-1.305-3.492-2.707-6.957-3.871-10.496-.77-2.332-1.219-4.777-1.785-7.176-.082-.344-.012-.734-.012-1.11Zm-13.625 14.453c.117.11.285.195.351.336 1.016 2.086 2.016 4.176 3.016 6.265-.094.043-.191.094-.281.133-1.024-2.25-2.043-4.504-3.063-6.757Zm.023-.023c-.738-2.192-1.476-4.395-2.21-6.586.113-.032.226-.07.34-.102.612 2.234 1.234 4.473 1.847 6.71l.023-.022Zm108.762 85.047c-3.906-3.465-7.816-6.93-11.945-10.594 1.875.582 10.695 8.226 12.16 10.363-.074.074-.145.156-.215.23Zm32.625-18.2c-9.684 1.895-19.289.266-28.91-.75 9.621.625 19.223 2.34 28.91.75Zm-37.687 3.95c6.195 3.316 12.39 6.636 18.585 9.952-.043.075-.078.153-.12.227-6.192-3.309-12.376-6.617-18.567-9.922.031-.094.066-.176.102-.258Zm.128 3.605c.977.21 11.762 8.656 12.766 10.242-4.23-3.39-8.453-6.777-12.766-10.242Zm14.942.969c-2.176-.97-4.348-1.942-6.524-2.914.036-.075.067-.145.098-.22 2.191.95 4.383 1.907 6.574 2.856-.047.098-.101.188-.148.278Zm-7.586-78.75c.367 1.746.73 3.492 1.101 5.238-.105.02-.207.043-.316.062-.316-1.754-.629-3.511-.945-5.27.054-.007.105-.019.16-.03Zm-91.777 60.23c-6.434-9.668-8.926-28.45-4.95-38.258-3.363 13.399-1.074 26.055 4.95 38.258Zm-6.981-9.601c-2.11-3.114-4.98-22.981-3.34-27.25 0 3.046-.183 6.113.047 9.144.23 3.043.797 6.07 1.352 9.074.562 3.043 1.297 6.051 1.941 9.031Zm24.239 34.16c-7.657 1.03-14.97-.68-22.223-2.82 7.293 1.863 14.62 3.398 22.222 2.82Zm-11.657-6.465c-1.219-.403-2.469-.723-3.644-1.219-3.832-1.601-7.586-3.371-10.895-5.945-.379-.301-.746-.61-1-1.13.313.204.633.388.926.61 4.035 3.082 8.601 5.137 13.312 6.93.457.176.856.512 1.282.773 0 .008.02-.02.02-.02Zm-1.75 8.055 11.957.48c-4.004.46-7.996.371-11.957-.48ZM921.586 391.8c-.762-4.542-1.649-9.425-2.363-14.331-.45-3.063-.641-6.153-.942-9.23-.031-.333.02-.669.04-1 .081-.005.167-.012.253-.016.094.742.196 1.488.274 2.23.351 3.492.609 6.996 1.078 10.469.355 2.621 1.05 5.2 1.449 7.816.219 1.457.156 2.953.21 4.063Zm2.774-24.3c-.301 3.492-.583 6.984-.903 10.473-.082.855-.258 1.699-.633 2.515.082-.914.16-1.824.235-2.738.226-2.902.418-5.813.703-8.71.047-.517-.27-1.306.629-1.52-.004.007-.032-.02-.032-.02Zm76.882 35.113c.91-3.875 3.16-7.586 5.625-11.195-1.937 3.86-3.875 7.719-5.625 11.195Zm-68.262 84.883c-4.082-1.445-7.609-3.594-9.175-6.703.074-.074.148-.156.226-.23.125.23.23.468.375.687 1.555 2.309 3.742 3.8 6.239 4.934.808.367 1.546.89 2.316 1.343-.008 0 .02-.03.02-.03Zm-.132-7.062c-1.055-1.575-2.657-2.852-2.832-4.75.902 1.515 1.863 3.132 2.832 4.75ZM874.48 448.05c2.016 5.68 5.649 10.009 9.579 14.145 1.027 1.086 2.011 2.207 3.058 3.364-3.512-1.684-12.734-14.348-12.637-17.508Zm-2.933 23.09c2.031-.195 5.515 2.278 6.258 4.368-1.778-2.008-3.586-3.578-6.258-4.367Zm0 0"/><g clip-path="url(#m)"><path fill="#52599a" fill-opacity=".996" d="M661.484.219h363v322.34c-3.62-6.516-6.48-17.309-8.574-32.38-2.86-45.378-6.18-79.394-9.96-102.038-3.216-13.028-7.391-24.934-12.52-35.727-3.313-8.723-11.22-20.465-23.727-35.234-12.566-10.094-21.789-15.043-27.668-14.848-.758 0-2.562.922-5.414 2.766l-15.598 11.246c-6.894 1.308-13.011.933-18.359-1.121-5.293-2.778-15.652-15.575-31.074-38.391-4.492-4.484-9.492-8.168-15-11.055L729.62 30.762C694.676 18.102 671.965 7.918 661.484.219Zm0 0"/></g><g clip-path="url(#n)"><path fill="#f3c6ee" d="M667.324.219h4.348c9.125 7.957 18.656 15.035 28.582 21.23l12.098 5.887c14.89 6.305 41.175 14.523 78.855 24.656 4.566 1.938 17.387 11.399 38.465 28.383 3.012.46 5.297-.844 6.851-3.914l8.844-27.758c3.735-3.223 8.258-3.297 13.567-.223 7.074 3.637 14.246 10.782 21.52 21.438 3.01 4.746 8.194 19.375 15.554 43.894 3.578 6.43 7.062 10.227 10.457 11.387 7.894 2.07 14.617.754 20.168-3.941 2.383-1.906 7.125-10.004 14.23-24.297 2.063-2.711 4.348-4.582 6.848-5.606 7.96-2.496 15.851.079 23.68 7.72 18.265 17.605 30.949 39.491 38.047 65.663 2.535 9.934 4.343 18.809 5.425 26.621 2.356 36.47 5.559 67.868 9.621 94.192v13.836c-5.355-24.52-9.523-60.418-12.5-107.696-1.062-7.648-2.836-16.367-5.328-26.148-11.136-33.406-24.261-55.457-39.383-66.156-7.359-6.082-13.757-7.754-19.187-5.02-2.172 1.281-3.774 2.684-4.805 4.2-7.136 14.382-12.285 22.8-15.445 25.253-7.746 5.422-15.195 6.793-22.344 4.11-4.12-1.399-8.168-5.723-12.144-12.965-7.496-24.918-12.489-39.313-14.989-43.188-7.289-10.472-14.214-17.382-20.773-20.734-3.79-2.277-7.082-2.461-9.867-.555l-8.598 27.266c-3.223 5.02-6.629 6.824-10.219 5.422l-29.78-22.934c-1.88-1.488-4.606-3.265-8.18-5.328-38.126-10.246-64.766-18.594-79.919-25.047-14.882-6.832-29.449-16.715-43.699-29.648Zm0 0"/></g></svg>